<?xml version="1.0" encoding="UTF-8"?>
<!DOCTYPE svg PUBLIC "-//W3C//DTD SVG 1.1//EN" "http://www.w3.org/Graphics/SVG/1.1/DTD/svg11.dtd">
<!-- Creator: CorelDRAW 2018 (64-Bit) -->
<svg xmlns="http://www.w3.org/2000/svg" xml:space="preserve" width="35px" height="55px" version="1.1" style="shape-rendering:geometricPrecision; text-rendering:geometricPrecision; image-rendering:optimizeQuality; fill-rule:evenodd; clip-rule:evenodd"
viewBox="0 0 35 55"
 xmlns:xlink="http://www.w3.org/1999/xlink">
 <defs>
  <style type="text/css">
   <![CDATA[
    .fil0 {fill:white}
   ]]>
  </style>
 </defs>
 <g id="Layer_x0020_1">
  <metadata id="CorelCorpID_0Corel-Layer"/>
  <path class="fil0" d="M5.5 0l24 0c3.3,0 6,2.7 6,6l0 43c0,3.3 -2.7,6 -6,6l-24 0c-3.3,0 -6,-2.7 -6,-6l0 -43c0,-3.3 2.7,-6 6,-6zm7.43 3.62l9.14 0c0.2,0 0.36,0.17 0.36,0.37l0 0c0,0.2 -0.16,0.36 -0.36,0.36l-9.14 0c-0.2,0 -0.36,-0.16 -0.36,-0.36l0 0c0,-0.2 0.16,-0.37 0.36,-0.37zm4.27 41.44c1.69,0 3.06,1.37 3.06,3.06 0,1.69 -1.37,3.06 -3.06,3.06 -1.69,0 -3.07,-1.37 -3.07,-3.06 0,-1.69 1.38,-3.06 3.07,-3.06z"/>
 </g>
</svg>
