<svg width="21" height="24" viewBox="0 0 21 24" fill="none" xmlns="http://www.w3.org/2000/svg">
<path d="M0.440701 13.0586L7.9407 20.5586C8.23133 20.8539 8.6157 20.9992 9.00008 20.9992C9.38445 20.9992 9.76789 20.8527 10.0604 20.5598C10.6463 19.9738 10.6463 19.0246 10.0604 18.4387L5.11883 13.4992H19.5001C20.3284 13.4992 21 12.8289 21 11.9992C21 11.1695 20.3284 10.4992 19.5001 10.4992H5.11883L10.0595 5.55859C10.6454 4.97266 10.6454 4.02344 10.0595 3.4375C9.47351 2.85156 8.52429 2.85156 7.93836 3.4375L0.438358 10.9375C-0.145236 11.5258 -0.145237 12.4727 0.440701 13.0586Z" fill="white"/>
</svg>
