<svg width="21" height="24" viewBox="0 0 21 24" fill="none" xmlns="http://www.w3.org/2000/svg">
<path d="M20.5593 13.0586L13.0593 20.5586C12.7687 20.8539 12.3843 20.9992 11.9999 20.9992C11.6155 20.9992 11.2321 20.8527 10.9396 20.5598C10.3537 19.9738 10.3537 19.0246 10.9396 18.4387L15.8812 13.4992H1.49992C0.671644 13.4992 0 12.8289 0 11.9992C0 11.1695 0.671644 10.4992 1.49992 10.4992H15.8812L10.9405 5.55859C10.3546 4.97266 10.3546 4.02344 10.9405 3.4375C11.5265 2.85156 12.4757 2.85156 13.0616 3.4375L20.5616 10.9375C21.1452 11.5258 21.1452 12.4727 20.5593 13.0586Z" fill="white"/>
</svg>
