<svg width="296" height="200" viewBox="0 0 296 200" fill="none" xmlns="http://www.w3.org/2000/svg">
<path d="M262.05 6.66797H39.9375V166.553H262.05V6.66797Z" fill="white"/>
<path d="M261.775 6.66797H39.6621V18.4855H261.775V6.66797Z" fill="#E0E0E0"/>
<path d="M47.5259 12.7909C47.5096 13.0745 47.4105 13.347 47.241 13.5749C47.0715 13.8028 46.839 13.9761 46.5721 14.0733C46.3052 14.1705 46.0158 14.1874 45.7394 14.1219C45.463 14.0564 45.2119 13.9113 45.0171 13.7047C44.8222 13.498 44.6922 13.2388 44.643 12.9591C44.5939 12.6793 44.6277 12.3913 44.7405 12.1306C44.8532 11.8699 45.0398 11.648 45.2773 11.4922C45.5147 11.3363 45.7926 11.2535 46.0767 11.2539C46.2728 11.2596 46.4658 11.3039 46.6448 11.3842C46.8238 11.4645 46.9852 11.5794 47.1198 11.7221C47.2544 11.8648 47.3595 12.0327 47.4292 12.2161C47.4989 12.3995 47.5317 12.5948 47.5259 12.7909Z" fill="#263238"/>
<path d="M52.9184 12.7909C52.9021 13.0743 52.8032 13.3467 52.6339 13.5745C52.4646 13.8023 52.2324 13.9756 51.9657 14.0729C51.6991 14.1703 51.4098 14.1874 51.1336 14.1222C50.8573 14.0571 50.6062 13.9125 50.4111 13.7063C50.2161 13.5 50.0857 13.2412 50.0361 12.9618C49.9864 12.6823 50.0197 12.3944 50.1317 12.1337C50.2438 11.8729 50.4297 11.6506 50.6666 11.4943C50.9035 11.3379 51.181 11.2544 51.4649 11.2539C51.6613 11.259 51.8549 11.3029 52.0344 11.383C52.2139 11.463 52.3758 11.5778 52.5108 11.7206C52.6459 11.8634 52.7514 12.0314 52.8213 12.2151C52.8913 12.3988 52.9243 12.5945 52.9184 12.7909Z" fill="#263238"/>
<path d="M58.3071 12.7909C58.2908 13.0745 58.1918 13.347 58.0223 13.5749C57.8528 13.8028 57.6202 13.9761 57.3534 14.0733C57.0865 14.1705 56.797 14.1874 56.5206 14.1219C56.2443 14.0564 55.9932 13.9113 55.7983 13.7047C55.6035 13.498 55.4734 13.2388 55.4243 12.9591C55.3751 12.6793 55.409 12.3913 55.5217 12.1306C55.6344 11.8699 55.821 11.648 56.0585 11.4922C56.296 11.3363 56.5739 11.2535 56.8579 11.2539C57.0542 11.259 57.2475 11.3029 57.4268 11.383C57.606 11.4632 57.7677 11.578 57.9024 11.7208C58.0371 11.8637 58.1422 12.0318 58.2116 12.2155C58.2811 12.3991 58.3135 12.5947 58.3071 12.7909Z" fill="#263238"/>
<path d="M135.427 31.2123C135.427 31.2957 130.575 31.3616 124.594 31.3616C118.612 31.3616 113.76 31.2957 113.76 31.2123C113.76 31.1289 118.59 31.0586 124.594 31.0586C130.597 31.0586 135.427 31.1245 135.427 31.2123Z" fill="#263238"/>
<path d="M164.248 31.2123C164.248 31.2957 159.395 31.3616 153.414 31.3616C147.433 31.3616 142.58 31.2957 142.58 31.2123C142.58 31.1289 147.411 31.0586 153.414 31.0586C159.417 31.0586 164.248 31.1245 164.248 31.2123Z" fill="#263238"/>
<path d="M193.074 31.2123C193.074 31.2957 188.221 31.3616 182.24 31.3616C176.259 31.3616 171.406 31.2957 171.406 31.2123C171.406 31.1289 176.237 31.0586 182.24 31.0586C188.243 31.0586 193.074 31.1245 193.074 31.2123Z" fill="#263238"/>
<path d="M222.144 31.2123C222.144 31.2957 217.314 31.3616 211.31 31.3616C205.307 31.3616 200.477 31.2957 200.477 31.2123C200.477 31.1289 205.329 31.0586 211.31 31.0586C217.292 31.0586 222.144 31.1245 222.144 31.2123Z" fill="#263238"/>
<path d="M247.405 34.8625C247.405 34.8625 247.589 34.8625 247.923 34.7703C248.414 34.6375 248.85 34.3532 249.17 33.9579C249.405 33.669 249.573 33.3315 249.662 32.9698C249.748 32.5259 249.775 32.0725 249.741 31.6216C249.679 30.6599 249.956 29.4258 249.135 28.4948C248.943 28.2652 248.708 28.0758 248.443 27.9379C248.177 27.7999 247.887 27.7161 247.589 27.6912C246.97 27.6912 246.272 27.6912 245.6 27.6912H241.208H231.108C230.681 27.6996 230.265 27.8275 229.907 28.0604C229.549 28.2932 229.264 28.6218 229.083 29.0087C228.898 29.4035 228.81 29.8374 228.829 30.2734V31.6304C228.801 32.0594 228.827 32.4903 228.908 32.9127C229.008 33.3073 229.204 33.6709 229.479 33.971C229.73 34.2542 230.046 34.4713 230.401 34.6034C230.77 34.7002 231.153 34.7373 231.534 34.7132L239.785 34.7439L245.349 34.7922L246.865 34.823H247.255C247.348 34.823 247.391 34.823 247.391 34.823C247.346 34.8289 247.301 34.8289 247.255 34.823H246.865L245.349 34.8537L239.785 34.902L231.534 34.9328C231.126 34.9633 230.717 34.9247 230.322 34.8186C229.911 34.6813 229.541 34.4427 229.246 34.1247C228.937 33.7907 228.716 33.3846 228.605 32.9434C228.547 32.7167 228.517 32.4836 228.517 32.2496C228.517 32.0256 228.517 31.8104 228.517 31.5821V30.291C228.494 29.808 228.591 29.3269 228.798 28.8901C229.001 28.4544 229.322 28.0845 229.725 27.8228C230.128 27.5611 230.597 27.4181 231.077 27.4102H241.178H245.569C246.263 27.4102 246.922 27.4102 247.576 27.4102C247.9 27.4391 248.214 27.5316 248.502 27.6823C248.79 27.833 249.045 28.039 249.253 28.2885C249.647 28.7617 249.867 29.3551 249.877 29.9704C249.877 30.5281 249.877 31.0595 249.877 31.5557C249.906 32.0209 249.87 32.4879 249.772 32.9434C249.672 33.3224 249.487 33.6737 249.232 33.971C248.892 34.3727 248.428 34.6506 247.914 34.7615C247.751 34.8213 247.579 34.8554 247.405 34.8625Z" fill="#263238"/>
<path d="M120.271 73.0273H60.5643C58.476 73.0273 56.7832 74.7202 56.7832 76.8084V83.0399C56.7832 85.1282 58.476 86.821 60.5643 86.821H120.271C122.359 86.821 124.052 85.1282 124.052 83.0399V76.8084C124.052 74.7202 122.359 73.0273 120.271 73.0273Z" fill="#E0E0E0"/>
<path d="M39.6606 6.66838L261.777 6.55859H261.892V6.66838C261.892 54.9132 261.892 109.253 261.892 166.518V166.663H261.769L39.6518 166.641H39.5508V166.54C39.6123 69.4886 39.6518 7.4852 39.6518 6.65081C39.6518 7.4852 39.6957 69.4973 39.7528 166.54L39.6518 166.439L261.769 166.413L261.646 166.54V166.518C261.646 109.236 261.646 54.8957 261.646 6.66838L261.76 6.78256L39.6606 6.66838Z" fill="#263238"/>
<path d="M242.833 101.677C242.833 101.677 242.833 101.396 242.833 100.861C242.833 100.325 242.833 99.5432 242.833 98.4981C242.833 96.4209 242.833 93.3644 242.833 89.4428C242.833 81.604 242.807 70.3003 242.785 56.4101L242.872 56.4979L163.211 56.5243L163.325 56.4101C163.325 72.4214 163.325 87.7302 163.325 101.673L163.215 101.568L220.485 101.62L236.926 101.651H241.318H242.451H242.837H241.344H236.983L220.564 101.682L163.211 101.792H163.105V101.682C163.105 87.7389 163.105 72.4302 163.105 56.4189V56.3047H163.211L242.815 56.331H242.903V56.4189C242.903 70.3311 242.868 81.6567 242.859 89.5043C242.859 93.4215 242.859 96.4648 242.859 98.5376C242.859 99.5696 242.859 100.356 242.859 100.887C242.859 101.418 242.833 101.677 242.833 101.677Z" fill="#003B73"/>
<path d="M241.113 56.3496L240.92 56.4814L240.349 56.8458L238.153 58.2248C236.234 59.4149 233.445 61.1275 229.989 63.2179C223.081 67.4118 213.477 73.1119 202.762 79.238C192.047 85.3641 182.271 90.7481 175.161 94.6082C171.604 96.5317 168.719 98.0731 166.721 99.1227L164.415 100.33L163.814 100.642C163.747 100.678 163.678 100.71 163.607 100.739C163.671 100.696 163.737 100.656 163.805 100.62L164.394 100.291L166.677 99.0436L175.069 94.4501C182.161 90.5724 191.928 85.1621 202.635 79.036C213.341 72.9099 222.95 67.2361 229.862 63.0818L238.065 58.1457L240.296 56.8063L240.88 56.4638C241.042 56.3847 241.113 56.3496 241.113 56.3496Z" fill="#003B73"/>
<path d="M241.915 101.678C241.884 101.73 224.415 91.7265 202.905 79.3381C181.396 66.9497 163.979 56.8537 164.01 56.801C164.041 56.7483 181.505 66.7477 203.019 79.1405C224.533 91.5332 241.945 101.62 241.915 101.678Z" fill="#003B73"/>
<path d="M241.214 124.19C241.214 124.278 223.815 124.348 202.362 124.348C180.91 124.348 163.502 124.278 163.502 124.19C163.502 124.102 180.897 124.027 202.362 124.027C223.828 124.027 241.214 124.098 241.214 124.19Z" fill="#263238"/>
<path d="M241.214 128.897C241.214 128.985 223.815 129.055 202.362 129.055C180.91 129.055 163.502 128.985 163.502 128.897C163.502 128.809 180.897 128.734 202.362 128.734C223.828 128.734 241.214 128.809 241.214 128.897Z" fill="#263238"/>
<path d="M198.162 140.621C198.162 140.705 190.534 140.771 181.132 140.771C171.73 140.771 164.098 140.705 164.098 140.621C164.098 140.538 171.721 140.477 181.132 140.477C190.543 140.477 198.162 140.542 198.162 140.621Z" fill="#263238"/>
<path d="M231.362 134.944C231.362 135.023 216.304 135.089 197.732 135.089C179.16 135.089 164.098 135.023 164.098 134.944C164.098 134.865 179.152 134.795 197.732 134.795C216.312 134.795 231.362 134.861 231.362 134.944Z" fill="#263238"/>
<path d="M251.449 149.335C251.449 149.335 251.449 149.116 251.449 148.699C251.449 148.281 251.449 147.662 251.449 146.85C251.449 145.22 251.449 142.818 251.449 139.718C251.449 133.526 251.427 124.532 251.41 113.325L251.489 113.4L154.767 113.439L154.881 113.325C154.881 125.894 154.881 138.054 154.881 149.335L154.771 149.226L224.073 149.274L244.225 149.305H249.623H251.019H251.498H251.032H249.649H244.274L224.148 149.335L154.762 149.388H154.652V149.278C154.652 137.996 154.652 125.836 154.652 113.268V113.211H154.771L251.493 113.246H251.568V113.325C251.568 124.55 251.537 133.561 251.528 139.766C251.528 142.84 251.528 145.251 251.528 146.876C251.528 147.684 251.528 148.299 251.528 148.716C251.528 149.133 251.449 149.335 251.449 149.335Z" fill="#263238"/>
<path d="M60.3096 36.3011C63.0284 36.3011 65.2324 34.1954 65.2324 31.5978C65.2324 29.0003 63.0284 26.8945 60.3096 26.8945C57.5908 26.8945 55.3867 29.0003 55.3867 31.5978C55.3867 34.1954 57.5908 36.3011 60.3096 36.3011Z" fill="#003B73"/>
<path d="M145.25 142.107H52.6465V194.731H145.25V142.107Z" fill="#FAFAFA"/>
<path d="M145.254 194.729C145.254 194.729 145.254 194.405 145.254 193.785C145.254 193.166 145.254 192.24 145.254 191.036C145.254 188.621 145.254 185.073 145.232 180.497C145.232 171.384 145.205 158.241 145.188 142.089L145.275 142.177L52.6767 142.203L52.7908 142.089C52.7908 160.704 52.7908 178.503 52.7908 194.712L52.6855 194.607L119.304 194.655L138.429 194.686H143.528H144.845H145.284H144.845H143.528H138.456L119.353 194.712L52.6635 194.765H52.5449V194.659C52.5449 178.45 52.5449 160.652 52.5449 142.036V141.922H52.6679L145.267 141.948H145.355V142.036C145.333 158.21 145.319 171.376 145.306 180.497C145.306 185.051 145.306 188.59 145.284 191.001C145.284 192.2 145.284 193.113 145.284 193.733C145.284 194.352 145.254 194.729 145.254 194.729Z" fill="#263238"/>
<path d="M90.2207 150.69C90.2207 150.752 83.9277 150.805 76.168 150.805C68.4082 150.805 62.1152 150.752 62.1152 150.69C62.1152 150.629 68.4038 150.576 76.168 150.576C83.9321 150.576 90.2207 150.629 90.2207 150.69Z" fill="#EBEBEB"/>
<path d="M104.932 155.733C104.932 155.799 98.6387 155.847 90.8789 155.847C83.1192 155.847 76.8262 155.799 76.8262 155.733C76.8262 155.667 83.1148 155.619 90.8789 155.619C98.6431 155.619 104.932 155.672 104.932 155.733Z" fill="#EBEBEB"/>
<path d="M135.545 150.69C135.545 150.752 129.256 150.805 121.492 150.805C113.728 150.805 107.439 150.752 107.439 150.69C107.439 150.629 113.732 150.576 121.492 150.576C129.252 150.576 135.545 150.629 135.545 150.69Z" fill="#EBEBEB"/>
<path d="M102.169 150.688C100.907 150.801 99.6402 150.84 98.3743 150.803C97.1084 150.84 95.8415 150.801 94.5801 150.688C95.8415 150.575 97.1084 150.537 98.3743 150.574C99.6402 150.537 100.907 150.575 102.169 150.688Z" fill="#EBEBEB"/>
<path d="M70.524 155.733C69.2628 155.849 67.9957 155.887 66.7298 155.848C65.4639 155.887 64.1968 155.849 62.9355 155.733C64.1969 155.62 65.4639 155.582 66.7298 155.619C67.9957 155.582 69.2627 155.62 70.524 155.733Z" fill="#EBEBEB"/>
<path d="M115.871 155.522C114.657 155.635 113.437 155.673 112.218 155.637C111 155.674 109.781 155.635 108.568 155.522C109.781 155.409 111 155.371 112.218 155.408C113.437 155.371 114.657 155.409 115.871 155.522Z" fill="#EBEBEB"/>
<path d="M90.2207 162.241C90.2207 162.303 83.9277 162.355 76.168 162.355C68.4082 162.355 62.1152 162.303 62.1152 162.241C62.1152 162.18 68.4038 162.127 76.168 162.127C83.9321 162.127 90.2207 162.175 90.2207 162.241Z" fill="#EBEBEB"/>
<path d="M104.932 167.282C104.932 167.348 98.6387 167.396 90.8789 167.396C83.1192 167.396 76.8262 167.348 76.8262 167.282C76.8262 167.216 83.1148 167.168 90.8789 167.168C98.6431 167.168 104.932 167.225 104.932 167.282Z" fill="#EBEBEB"/>
<path d="M135.545 162.241C135.545 162.303 129.256 162.355 121.492 162.355C113.728 162.355 107.439 162.303 107.439 162.241C107.439 162.18 113.732 162.127 121.492 162.127C129.252 162.127 135.545 162.175 135.545 162.241Z" fill="#EBEBEB"/>
<path d="M102.169 162.237C100.907 162.35 99.6402 162.388 98.3743 162.351C97.1084 162.388 95.8415 162.35 94.5801 162.237C95.8415 162.124 97.1084 162.086 98.3743 162.123C99.6402 162.086 100.907 162.124 102.169 162.237Z" fill="#EBEBEB"/>
<path d="M70.524 167.282C69.2628 167.398 67.9957 167.436 66.7298 167.396C65.4639 167.436 64.1968 167.398 62.9355 167.282C64.1969 167.169 65.4639 167.131 66.7298 167.168C67.9957 167.131 69.2627 167.169 70.524 167.282Z" fill="#EBEBEB"/>
<path d="M115.871 167.073C114.657 167.186 113.437 167.224 112.218 167.187C111 167.224 109.781 167.186 108.568 167.073C109.781 166.957 111 166.919 112.218 166.959C113.437 166.919 114.657 166.957 115.871 167.073Z" fill="#EBEBEB"/>
<path d="M90.4785 182.263C90.4785 182.328 84.1899 182.377 76.4258 182.377C68.6617 182.377 62.373 182.328 62.373 182.263C62.373 182.197 68.666 182.148 76.4258 182.148C84.1855 182.148 90.4785 182.201 90.4785 182.263Z" fill="#EBEBEB"/>
<path d="M105.191 187.308C105.191 187.369 98.8984 187.422 91.1387 187.422C83.3789 187.422 77.0859 187.369 77.0859 187.308C77.0859 187.246 83.3789 187.193 91.1387 187.193C98.8984 187.193 105.191 187.246 105.191 187.308Z" fill="#EBEBEB"/>
<path d="M135.803 182.263C135.803 182.328 129.51 182.377 121.75 182.377C113.99 182.377 107.697 182.328 107.697 182.263C107.697 182.197 113.986 182.148 121.75 182.148C129.514 182.148 135.803 182.201 135.803 182.263Z" fill="#EBEBEB"/>
<path d="M102.424 182.262C101.163 182.375 99.8961 182.413 98.6302 182.376C97.3643 182.414 96.0973 182.375 94.8359 182.262C96.0971 182.146 97.3643 182.108 98.6302 182.148C99.8961 182.108 101.163 182.147 102.424 182.262Z" fill="#EBEBEB"/>
<path d="M70.7877 187.308C69.5263 187.421 68.2594 187.459 66.9935 187.422C65.7276 187.459 64.4606 187.421 63.1992 187.308C64.4606 187.194 65.7276 187.156 66.9935 187.193C68.2594 187.156 69.5263 187.194 70.7877 187.308Z" fill="#EBEBEB"/>
<path d="M116.129 187.095C114.916 187.21 113.698 187.249 112.48 187.209C111.261 187.249 110.04 187.21 108.826 187.095C110.041 186.982 111.261 186.943 112.48 186.981C113.698 186.944 114.916 186.982 116.129 187.095Z" fill="#EBEBEB"/>
<path d="M90.2207 173.101C90.2207 173.162 83.9277 173.215 76.168 173.215C68.4082 173.215 62.1152 173.162 62.1152 173.101C62.1152 173.039 68.4038 172.986 76.168 172.986C83.9321 172.986 90.2207 173.035 90.2207 173.101Z" fill="#EBEBEB"/>
<path d="M104.932 178.143C104.932 178.205 98.6387 178.258 90.8789 178.258C83.1192 178.258 76.8262 178.205 76.8262 178.143C76.8262 178.082 83.1148 178.029 90.8789 178.029C98.6431 178.029 104.932 178.082 104.932 178.143Z" fill="#EBEBEB"/>
<path d="M135.545 173.101C135.545 173.162 129.256 173.215 121.492 173.215C113.728 173.215 107.439 173.162 107.439 173.101C107.439 173.039 113.732 172.986 121.492 172.986C129.252 172.986 135.545 173.035 135.545 173.101Z" fill="#EBEBEB"/>
<path d="M102.169 173.098C100.907 173.211 99.6402 173.249 98.3743 173.212C97.1084 173.249 95.8415 173.211 94.5801 173.098C95.8413 172.982 97.1084 172.944 98.3743 172.984C99.6402 172.944 100.907 172.982 102.169 173.098Z" fill="#EBEBEB"/>
<path d="M70.524 178.144C69.2627 178.257 67.9957 178.295 66.7298 178.258C65.4639 178.295 64.1969 178.257 62.9355 178.144C64.1969 178.031 65.4639 177.992 66.7298 178.029C67.9957 177.992 69.2627 178.03 70.524 178.144Z" fill="#EBEBEB"/>
<path d="M115.871 177.932C114.657 178.045 113.437 178.083 112.218 178.046C111 178.083 109.781 178.045 108.568 177.932C109.781 177.816 111 177.778 112.218 177.818C113.437 177.778 114.657 177.816 115.871 177.932Z" fill="#EBEBEB"/>
<path d="M85.1298 162.641V172.236H83.3469V168.104H78.3845V172.218H76.6016V162.641H78.3845V166.593H83.3469V162.641H85.1298Z" fill="#263238"/>
<path d="M89.6501 164.153H86.4707V162.646H94.6169V164.153H91.4331V172.242H89.6501V164.153Z" fill="#263238"/>
<path d="M104.769 172.236V165.873L101.616 171.143H100.808L97.6546 165.961V172.24H95.9551V162.641H97.4218L101.234 168.982L104.975 162.623H106.442V172.218L104.769 172.236Z" fill="#263238"/>
<path d="M109.047 162.641H110.83V170.739H115.845V172.249H109.047V162.641Z" fill="#263238"/>
<path d="M82.478 55.4678L77.5596 52.9646C77.4567 49.7586 76.1584 46.7071 73.9199 44.4097C71.6815 42.1123 68.6647 40.7352 65.4625 40.549C62.2603 40.3629 59.1042 41.3811 56.6146 43.4036C54.125 45.4261 52.4819 48.3067 52.0081 51.4791C51.5344 54.6516 52.2644 57.8865 54.0545 60.5481C55.8447 63.2097 58.5656 65.1055 61.6825 65.8629C64.7994 66.6204 68.0869 66.1847 70.8988 64.6414C73.7108 63.0982 75.8439 60.559 76.8789 57.523L82.478 55.4678Z" fill="white"/>
<path d="M82.4769 55.4671L76.8953 57.5794C76.8888 57.583 76.8816 57.585 76.8742 57.5853C76.8668 57.5857 76.8594 57.5843 76.8526 57.5813C76.8458 57.5784 76.8398 57.5739 76.835 57.5682C76.8302 57.5625 76.8268 57.5558 76.825 57.5486C76.823 57.54 76.823 57.5309 76.825 57.5223H76.9348C76.213 59.6768 74.9325 61.6013 73.224 63.0995C72.7148 63.5516 72.165 63.9559 71.5816 64.3071C71.2786 64.4872 70.98 64.676 70.6594 64.8473L69.6713 65.3435C66.6181 66.5996 63.201 66.6451 60.1154 65.4709C58.403 64.8233 56.8489 63.8171 55.5571 62.5198C54.2008 61.1427 53.166 59.4826 52.527 57.6584C51.85 55.7601 51.6333 53.7283 51.8946 51.7299C52.1593 49.6787 52.9123 47.7209 54.0903 46.021C55.2188 44.405 56.6974 43.0645 58.4159 42.0994C60.0338 41.184 61.8325 40.6339 63.6857 40.4877C67.0196 40.2374 70.322 41.28 72.9078 43.3993C73.9904 44.3111 74.9251 45.3851 75.6789 46.5831C76.8679 48.5057 77.5269 50.7086 77.5892 52.9683L77.5584 52.92L82.4505 55.4715L77.5057 53.0166C77.4969 53.0122 77.4897 53.0052 77.485 52.9966C77.4803 52.988 77.4783 52.9781 77.4794 52.9683C77.3982 50.7348 76.7319 48.5617 75.5471 46.6665C74.7931 45.4895 73.8647 44.4337 72.7937 43.5354C70.2327 41.4589 66.9729 40.4436 63.6857 40.6985C61.8594 40.8423 60.0872 41.3866 58.495 42.2926C56.8071 43.2433 55.3544 44.5609 54.244 46.1483C53.0984 47.8128 52.3654 49.7261 52.1054 51.7299C51.8401 53.6955 52.0464 55.696 52.707 57.5662C53.3347 59.3603 54.3515 60.9935 55.6844 62.3485C56.9511 63.6263 58.4771 64.6176 60.1594 65.2557C63.1966 66.4181 66.562 66.3836 69.5747 65.1591L70.5584 64.7199C70.8702 64.5487 71.1688 64.3642 71.4718 64.1885C72.0474 63.8421 72.5912 63.4453 73.0967 63.0028C74.7955 61.5301 76.0755 59.635 76.8075 57.5091C76.8125 57.4954 76.8225 57.4841 76.8356 57.4775C76.8487 57.471 76.8638 57.4697 76.8777 57.474C76.89 57.4786 76.9005 57.4871 76.9076 57.4982C76.9147 57.5093 76.9181 57.5223 76.9173 57.5355L76.8382 57.4784L82.4769 55.4671Z" fill="#263238"/>
<path d="M67.6348 56.1917C67.6919 56.1098 67.7582 56.0347 67.8324 55.9677L68.4076 55.3881C68.8951 54.9094 69.5758 54.2463 70.3355 53.5261V53.6227C69.5714 52.9157 68.8863 52.2657 68.3945 51.7958L67.8192 51.2293C67.7452 51.1626 67.6776 51.0891 67.6172 51.0098C67.6172 51.0098 67.7094 51.0669 67.8543 51.1898L68.4604 51.7256C68.9654 52.1647 69.6636 52.8147 70.4277 53.5261L70.476 53.5744L70.4277 53.6227C69.668 54.3429 68.9785 54.9928 68.4735 55.4583L67.8719 56.0029C67.8004 56.0747 67.7208 56.1381 67.6348 56.1917Z" fill="#263238"/>
<path d="M67.6355 56.2488C67.6227 56.2531 67.6088 56.2531 67.596 56.2488C67.5565 56.2049 67.5696 56.1873 67.7936 55.9502L68.3689 55.3749C68.8651 54.883 69.5194 54.2507 70.2221 53.5788C69.5282 52.9376 68.8783 52.3228 68.3733 51.8222L67.798 51.2557C67.5784 51.0361 67.5521 51.0054 67.596 50.9571C67.6399 50.9087 67.6662 50.957 67.9078 51.1371L68.5138 51.6729C69.032 52.112 69.6951 52.7444 70.3977 53.3943L70.4724 53.4646L70.569 53.5524L70.4548 53.6578L70.4021 53.7105C69.6863 54.3912 69.0144 55.028 68.5094 55.4671L67.9166 56.0468C67.7365 56.1961 67.6706 56.2488 67.6355 56.2488ZM70.3011 53.6139L68.8212 55.0411C69.2603 54.6371 69.7741 54.1628 70.3187 53.6315L70.3011 53.6139ZM68.8344 52.0857C69.2735 52.4985 69.7741 52.964 70.3011 53.4646C69.7873 52.9727 69.2735 52.5029 68.8344 52.1032V52.0857Z" fill="#263238"/>
<path d="M61.7412 50.9941C61.6862 51.0778 61.6197 51.1532 61.5436 51.2181L60.9727 51.7934C60.4808 52.2765 59.8001 52.9352 59.0448 53.6598V53.5632C59.8089 54.2702 60.494 54.9157 60.9858 55.39L61.5611 55.9565C61.6973 56.0883 61.7675 56.1673 61.7587 56.1761C61.6762 56.1211 61.5984 56.0594 61.526 55.9916L60.8892 55.4778C60.3798 55.0387 59.686 54.3844 58.9218 53.6773L58.8691 53.629L58.9218 53.5807C59.6772 52.8561 60.371 52.2106 60.8761 51.7451L61.4777 51.1961C61.5573 51.1187 61.6457 51.0509 61.7412 50.9941Z" fill="#263238"/>
<path d="M61.7675 56.2486C61.7324 56.2486 61.6709 56.2003 61.4952 56.0509L60.8892 55.5152C60.3798 55.076 59.7123 54.4524 59.0053 53.7937L58.9306 53.7235L58.834 53.6356L58.9438 53.5302L59.0009 53.4775C59.7167 52.7969 60.3842 52.1601 60.8892 51.699L61.4952 51.1544C61.7324 50.948 61.7587 50.9261 61.8026 50.97C61.8465 51.0139 61.8026 51.0491 61.605 51.273L61.0297 51.8483C60.5379 52.3358 59.8835 52.9681 59.1809 53.64C59.8792 54.2944 60.5335 54.9092 61.0253 55.3966L61.605 55.9631C61.8246 56.1871 61.8465 56.209 61.807 56.2573C61.7932 56.259 61.7793 56.2559 61.7675 56.2486ZM59.0843 53.7147C59.6201 54.2153 60.1295 54.6808 60.5686 55.076L59.1019 53.7015L59.0843 53.7147ZM59.0799 53.5346C59.6201 53.0208 60.1339 52.529 60.5642 52.1074C60.1207 52.529 59.6025 53.0164 59.0579 53.5346H59.0799Z" fill="#263238"/>
<path d="M63.2573 57.4391C63.2222 57.4391 63.8414 55.6825 64.6362 53.5526C65.4311 51.4227 66.1118 49.7057 66.1425 49.7188C66.1732 49.732 65.5584 51.4754 64.7636 53.6009C63.9687 55.7264 63.2924 57.4391 63.2573 57.4391Z" fill="#263238"/>
<path d="M63.2613 57.4741H63.235C63.1691 57.4522 63.1603 57.4478 63.5819 56.2577C63.8454 55.5243 64.2011 54.5538 64.5876 53.5218C64.974 52.4898 65.3385 51.5237 65.6239 50.7991C66.0851 49.6266 66.0982 49.6266 66.1641 49.6529C66.23 49.6793 66.2388 49.6793 65.8172 50.8693C65.5537 51.6027 65.198 52.5776 64.8115 53.6052C64.4251 54.6328 64.0606 55.6034 63.7751 56.3323C63.3711 57.3424 63.314 57.4741 63.2613 57.4741ZM65.5229 51.3568C65.2902 51.9584 65.0091 52.7006 64.6886 53.5525C64.368 54.4045 64.0957 55.151 63.8761 55.7483C64.1089 55.151 64.3899 54.4308 64.7105 53.5525C65.0311 52.6742 65.3034 51.9628 65.5229 51.3568Z" fill="#263238"/>
<path d="M287.491 194.729C287.491 194.791 227.328 194.844 153.112 194.844C78.8958 194.844 18.7324 194.791 18.7324 194.729C18.7324 194.668 78.8958 194.615 153.112 194.615C227.328 194.615 287.491 194.668 287.491 194.729Z" fill="#263238"/>
<path d="M97.3926 42.829C97.577 41.6638 98.1403 40.5919 98.9953 39.779C99.8502 38.9661 100.949 38.4576 102.122 38.3322C102.739 38.3437 103.355 38.2743 103.953 38.1258C104.409 37.9057 104.849 37.6548 105.271 37.3748C105.998 37.0046 106.829 36.8934 107.627 37.0595C108.426 37.2255 109.144 37.659 109.662 38.2882C110.602 39.4915 110.98 37.8184 113.202 39.1358C115.042 40.2293 114.08 41.7707 114.08 41.7707C115.033 41.757 115.961 42.0743 116.706 42.6686C117.451 43.2628 117.966 44.0972 118.164 45.0292C118.384 46.2149 118.142 47.6641 119.065 48.4282C119.504 48.8059 120.136 48.9069 120.602 49.267C121.458 49.9301 121.48 51.2124 121.295 52.2795C121.111 53.3466 120.768 54.4753 121.164 55.4853C121.814 57.1453 124.176 57.7996 124.466 59.5562C124.602 60.3862 124.255 61.3831 124.831 61.9935C125.091 62.2142 125.388 62.3867 125.709 62.5029C126.326 62.8065 126.849 63.274 127.219 63.8542C127.588 64.4345 127.792 65.1053 127.806 65.7933C127.821 66.4813 127.646 67.16 127.301 67.7554C126.956 68.3507 126.454 68.8398 125.849 69.1692C125.516 69.3536 125.116 69.5205 124.971 69.8806C124.826 70.2407 125.094 70.6974 125.283 71.0795C125.637 71.7825 125.751 72.5819 125.608 73.3559C125.465 74.1298 125.072 74.8356 124.491 75.3657C123.909 75.8957 123.169 76.2208 122.386 76.2914C121.602 76.3619 120.816 76.174 120.149 75.7564C119.428 77.0318 118.239 77.9767 116.834 78.3913C116.196 78.6015 115.51 78.6199 114.862 78.444C114.359 78.2603 113.899 77.9764 113.509 77.6096C111.59 75.9364 108.898 73.3762 108.718 70.8379" fill="#263238"/>
<path d="M141.695 72.7694L130.189 83.3089C128.762 82.9796 111.244 72.5059 111.244 72.5059L108.486 85.9833C108.486 85.9833 126.417 94.2261 131.348 93.2293C132.156 93.0624 133.478 92.9614 134.308 91.9118C138.261 86.8397 146.631 74.2888 146.631 74.2888L141.695 72.7694Z" fill="#FFBE9D"/>
<path d="M147.268 61.1722C146.508 61.484 143.794 66.0599 143.794 66.0599L143.113 66.095C142.818 66.1109 142.528 66.1874 142.263 66.3197C141.998 66.4521 141.764 66.6374 141.573 66.8643C141.383 67.0912 141.242 67.3548 141.157 67.6387C141.073 67.9226 141.048 68.2208 141.084 68.5147C141.308 70.4206 141.708 72.7701 141.708 72.7701L145.502 74.5003L146.631 74.2632C147.676 74.2105 148.695 72.0674 149.34 70.5831C149.986 69.0988 148.928 68.787 148.928 68.787C148.928 67.2983 147.667 67.5925 147.667 67.5925C147.664 67.4184 147.626 67.2466 147.556 67.0872C147.485 66.9278 147.384 66.7839 147.258 66.6638C147.132 66.5438 146.983 66.4499 146.82 66.3877C146.658 66.3255 146.484 66.2962 146.31 66.3014C146.31 66.3014 147.992 63.2274 148.321 62.1339C148.651 61.0404 148.027 60.8648 147.268 61.1722Z" fill="#FFBE9D"/>
<path d="M147.592 67.5924C147.483 67.9219 147.351 68.2433 147.196 68.5541C147.128 68.7174 147.049 68.8758 146.959 69.0284C146.845 69.2015 146.706 69.3568 146.546 69.4895C146.368 69.6426 146.156 69.751 145.927 69.8057C145.799 69.8289 145.668 69.8253 145.542 69.7951C145.416 69.7648 145.297 69.7086 145.194 69.6301C145.088 69.5428 145.013 69.4245 144.979 69.2919C144.952 69.1659 144.952 69.0359 144.979 68.9099C145.024 68.6894 145.089 68.4734 145.172 68.2643C145.306 67.9099 145.465 67.5651 145.646 67.2323C145.766 67.0091 145.899 66.7935 146.046 66.5868C146.092 66.5046 146.151 66.4305 146.221 66.3672C146.243 66.3672 146.019 66.7097 145.738 67.2806C145.572 67.6156 145.425 67.9602 145.299 68.3126C145.223 68.5154 145.163 68.7239 145.119 68.9362C145.095 69.0394 145.099 69.1473 145.131 69.2484C145.162 69.3496 145.22 69.4405 145.299 69.5115C145.386 69.5766 145.486 69.6231 145.591 69.648C145.697 69.673 145.807 69.6758 145.914 69.6564C146.117 69.6085 146.307 69.5137 146.467 69.3797C146.62 69.254 146.754 69.106 146.863 68.9406C146.956 68.8007 147.038 68.6539 147.108 68.5014C147.247 68.1868 147.408 67.8829 147.592 67.5924Z" fill="#EB996E"/>
<path d="M148.883 68.5755C148.874 68.6657 148.854 68.7543 148.822 68.839C148.752 69.0738 148.669 69.304 148.571 69.5284C148.432 69.8708 148.237 70.1882 147.996 70.4682C147.854 70.6417 147.673 70.78 147.469 70.8722C147.354 70.9328 147.225 70.9584 147.096 70.946C146.967 70.9335 146.844 70.8836 146.743 70.8023C146.642 70.721 146.567 70.612 146.528 70.4886C146.488 70.3652 146.486 70.2329 146.52 70.1081C146.557 69.8919 146.616 69.68 146.696 69.4757C146.813 69.133 146.949 68.7972 147.104 68.4701C147.236 68.189 147.355 67.9651 147.443 67.8158C147.48 67.7334 147.53 67.6577 147.592 67.5918C147.614 67.5918 147.438 67.9431 147.201 68.5096C147.082 68.7951 146.951 69.1376 146.828 69.5197C146.753 69.7151 146.699 69.9184 146.67 70.1257C146.639 70.2242 146.638 70.3297 146.667 70.4287C146.697 70.5277 146.755 70.6156 146.835 70.6812C146.915 70.7468 147.012 70.7871 147.115 70.7969C147.218 70.8066 147.321 70.7855 147.412 70.7361C147.597 70.6508 147.762 70.5264 147.895 70.3716C148.133 70.1107 148.328 69.8144 148.475 69.4933C148.721 68.9312 148.861 68.5667 148.883 68.5755Z" fill="#EB996E"/>
<path d="M149.554 69.6785C149.554 69.9221 149.503 70.163 149.404 70.3855C149.316 70.635 149.199 70.8736 149.057 71.097C148.976 71.2336 148.878 71.3603 148.768 71.4746C148.701 71.5426 148.62 71.5936 148.529 71.6234C148.439 71.6532 148.343 71.6609 148.249 71.6459C148.155 71.62 148.071 71.5671 148.007 71.4937C147.943 71.4203 147.902 71.3296 147.889 71.2331C147.866 71.0704 147.875 70.9049 147.916 70.7456C147.979 70.4891 148.073 70.2413 148.197 70.0079C148.297 69.789 148.409 69.5764 148.535 69.3711C148.488 69.6086 148.407 69.8379 148.293 70.0518C148.187 70.284 148.106 70.5269 148.052 70.7764C148.026 70.9216 148.026 71.0703 148.052 71.2155C148.061 71.2834 148.088 71.3473 148.132 71.4001C148.175 71.453 148.233 71.4925 148.298 71.5141C148.368 71.5246 148.44 71.5176 148.508 71.4939C148.575 71.4702 148.636 71.4304 148.684 71.378C148.788 71.2749 148.879 71.1599 148.956 71.0355C149.1 70.8217 149.223 70.5953 149.325 70.3592C149.479 69.9464 149.532 69.6741 149.554 69.6785Z" fill="#EB996E"/>
<path d="M143.111 66.0953C144.229 66.0483 145.349 66.0586 146.466 66.1261C146.547 66.4076 146.523 66.7084 146.401 66.9742C146.278 67.24 146.065 67.4532 145.799 67.5753C145.258 67.8004 144.669 67.885 144.086 67.8212C144.31 68.0303 144.487 68.2839 144.606 68.5655C144.726 68.8472 144.786 69.1507 144.781 69.4567C144.777 69.7627 144.708 70.0644 144.58 70.3424C144.452 70.6203 144.267 70.8685 144.038 71.0709" fill="#FFBE9D"/>
<path d="M144.038 71.0539C144.271 70.8054 144.457 70.5167 144.587 70.2019C144.74 69.8009 144.77 69.3632 144.672 68.9452C144.574 68.5272 144.353 68.1481 144.038 67.8569L143.897 67.7251H144.091C144.608 67.7748 145.13 67.715 145.623 67.5495C146.216 67.3211 146.616 66.6448 146.401 66.131L146.462 66.1749C145.483 66.1003 144.644 66.1003 144.051 66.0915H143.362C143.279 66.1028 143.194 66.1028 143.111 66.0915C143.192 66.0715 143.274 66.0612 143.357 66.0608C143.52 66.0608 143.752 66.0344 144.051 66.0256C144.644 66.0256 145.483 65.9905 146.471 66.052H146.515V66.0959C146.572 66.2497 146.594 66.4145 146.579 66.578C146.564 66.7415 146.512 66.8995 146.427 67.0401C146.255 67.3412 145.988 67.5762 145.667 67.7076C145.152 67.8812 144.605 67.9426 144.064 67.8876L144.117 67.7646C144.488 68.1133 144.73 68.5779 144.802 69.0821C144.859 69.4764 144.807 69.8786 144.653 70.2458C144.547 70.4861 144.398 70.7049 144.214 70.8914C144.164 70.9543 144.105 71.0092 144.038 71.0539Z" fill="#EB996E"/>
<path d="M121.146 186.418C121.231 186.304 121.289 186.174 121.318 186.036C121.429 185.669 121.46 185.282 121.41 184.903C121.399 184.77 121.368 184.64 121.318 184.516C121.289 184.436 121.239 184.366 121.173 184.313C121.107 184.259 121.028 184.225 120.944 184.213C120.893 184.207 120.842 184.213 120.793 184.23C120.744 184.246 120.7 184.274 120.663 184.31C120.598 184.381 120.558 184.472 120.549 184.569C120.536 184.727 120.536 184.885 120.549 185.043C120.575 185.364 120.575 185.667 120.624 186.04C120.641 186.146 120.686 186.246 120.755 186.329C120.823 186.411 120.913 186.474 121.015 186.51C121.207 186.566 121.411 186.575 121.607 186.536C121.962 186.472 122.308 186.369 122.639 186.229C122.797 186.162 122.951 186.085 123.101 186C123.259 185.924 123.401 185.816 123.518 185.684C123.583 185.605 123.619 185.506 123.619 185.403C123.619 185.3 123.583 185.201 123.518 185.122C123.45 185.062 123.369 185.019 123.28 184.998C123.192 184.978 123.1 184.979 123.013 185.004C122.755 185.072 122.506 185.174 122.275 185.307C121.94 185.487 121.632 185.715 121.362 185.983C121.173 186.172 121.089 186.299 121.102 186.308C121.491 185.987 121.91 185.705 122.354 185.465C122.574 185.352 122.807 185.265 123.048 185.206C123.171 185.206 123.303 185.206 123.351 185.267C123.379 185.31 123.392 185.361 123.388 185.412C123.383 185.463 123.36 185.511 123.325 185.548C123.222 185.649 123.103 185.733 122.973 185.794C122.833 185.869 122.683 185.939 122.534 186.005C122.217 186.135 121.888 186.231 121.55 186.29C121.398 186.328 121.238 186.328 121.085 186.29C121.022 186.27 120.966 186.232 120.925 186.18C120.884 186.129 120.858 186.066 120.852 186C120.804 185.697 120.795 185.346 120.764 185.043C120.747 184.897 120.739 184.751 120.742 184.604C120.742 184.481 120.813 184.42 120.9 184.428C121.107 184.428 121.177 184.714 121.212 184.938C121.286 185.431 121.264 185.933 121.146 186.418Z" fill="#263238"/>
<path d="M139.839 168.764C139.871 168.627 139.871 168.484 139.839 168.347C139.768 167.967 139.618 167.607 139.4 167.288C139.332 167.175 139.248 167.073 139.15 166.985C139.089 166.926 139.013 166.884 138.93 166.865C138.847 166.846 138.761 166.849 138.68 166.876C138.631 166.893 138.587 166.921 138.551 166.957C138.514 166.994 138.486 167.038 138.469 167.086C138.44 167.178 138.44 167.276 138.469 167.367C138.528 167.521 138.602 167.668 138.689 167.807C138.851 168.083 138.983 168.356 139.194 168.685C139.256 168.772 139.341 168.842 139.439 168.886C139.537 168.93 139.644 168.947 139.751 168.935C139.949 168.902 140.135 168.819 140.291 168.694C140.725 168.383 141.099 167.998 141.398 167.556C141.505 167.417 141.585 167.259 141.635 167.091C141.661 166.991 141.651 166.885 141.607 166.792C141.563 166.699 141.487 166.624 141.394 166.581C141.308 166.555 141.217 166.551 141.129 166.571C141.041 166.59 140.96 166.631 140.893 166.691C140.69 166.868 140.512 167.07 140.362 167.293C140.143 167.604 139.968 167.944 139.844 168.303C139.786 168.43 139.755 168.567 139.751 168.707C139.962 168.246 140.213 167.805 140.502 167.389C140.65 167.191 140.821 167.011 141.012 166.854C141.051 166.816 141.099 166.79 141.151 166.776C141.203 166.762 141.258 166.762 141.31 166.775C141.354 166.8 141.387 166.84 141.404 166.887C141.422 166.934 141.423 166.986 141.407 167.034C141.363 167.171 141.295 167.299 141.205 167.411C141.111 167.545 141.01 167.672 140.902 167.793C140.678 168.052 140.424 168.283 140.147 168.483C140.019 168.585 139.868 168.653 139.707 168.681C139.642 168.689 139.575 168.679 139.515 168.651C139.455 168.623 139.405 168.578 139.369 168.522C139.194 168.272 139.027 167.96 138.869 167.701C138.788 167.58 138.717 167.452 138.658 167.319C138.614 167.201 138.658 167.126 138.719 167.091C138.913 167.012 139.097 167.227 139.224 167.411C139.511 167.82 139.72 168.279 139.839 168.764Z" fill="#263238"/>
<path d="M126.819 173.049L121.461 184.664L112.814 180.668L118.357 166.295L126.819 173.049Z" fill="#FFBE9D"/>
<path d="M122.475 183.889L119.344 189.861C119.344 189.861 127.358 198.148 126.603 199.997L107.764 190.963L112.941 178.992L122.475 183.889Z" fill="#455A64"/>
<path d="M113.91 186.25C113.702 186.218 113.49 186.264 113.314 186.379C113.138 186.494 113.011 186.67 112.957 186.873C112.918 187.082 112.962 187.299 113.081 187.476C113.199 187.653 113.381 187.777 113.59 187.822C113.81 187.855 114.035 187.805 114.221 187.681C114.407 187.558 114.54 187.37 114.595 187.154C114.608 186.936 114.539 186.722 114.401 186.552C114.264 186.382 114.069 186.27 113.853 186.236" fill="#E0E0E0"/>
<g opacity="0.6">
<path opacity="0.6" d="M107.764 190.963L108.55 189.461L126.318 198.683C126.318 198.683 126.981 199.452 126.603 200L107.764 190.963Z" fill="white"/>
</g>
<path d="M119.696 189.91C119.648 190.002 119.169 189.822 118.572 189.91C117.974 189.997 117.553 190.261 117.483 190.182C117.412 190.103 117.808 189.637 118.532 189.558C119.257 189.479 119.735 189.835 119.696 189.91Z" fill="#263238"/>
<path d="M121.277 191.673C121.255 191.774 120.785 191.739 120.285 191.976C119.784 192.213 119.499 192.587 119.407 192.538C119.314 192.49 119.508 191.941 120.136 191.66C120.763 191.379 121.317 191.585 121.277 191.673Z" fill="#263238"/>
<path d="M121.268 194.576C121.176 194.576 121.268 194.036 121.743 193.645C122.217 193.254 122.748 193.259 122.748 193.355C122.748 193.452 122.357 193.593 121.971 193.918C121.585 194.243 121.361 194.611 121.268 194.576Z" fill="#263238"/>
<path d="M120.614 187.607C120.535 187.673 120.175 187.343 119.64 187.133C119.104 186.922 118.616 186.887 118.608 186.786C118.599 186.685 119.143 186.54 119.771 186.786C120.399 187.032 120.672 187.559 120.614 187.607Z" fill="#263238"/>
<path d="M126.943 177.038L140.591 143.074C140.591 143.074 140.275 137.04 139.164 135.139C138.053 133.237 104.405 122.122 104.405 122.122C104.405 122.122 95.8333 120.058 90.12 122.122C84.4066 124.186 80.1206 131.345 80.8979 135.297C81.6751 139.249 85.0434 142.196 85.0434 142.196L109.785 142.934L123.276 147.852L114.203 173.863C114.203 173.863 118.858 178.944 126.943 177.038Z" fill="#263238"/>
<path d="M139.028 154.267L139.348 167.051L129.828 167.283L128.453 151.939L139.028 154.267Z" fill="#FFBE9D"/>
<path d="M139.937 165.91L139.762 172.65C139.762 172.65 150.613 176.546 150.74 178.539L129.85 178.755L129.209 165.721L139.937 165.91Z" fill="#455A64"/>
<path d="M133.271 171.807C133.073 171.875 132.906 172.012 132.799 172.192C132.693 172.372 132.655 172.585 132.691 172.791C132.748 172.993 132.88 173.165 133.059 173.273C133.239 173.38 133.453 173.415 133.657 173.371C133.869 173.303 134.049 173.159 134.161 172.967C134.274 172.775 134.312 172.548 134.268 172.33C134.187 172.126 134.03 171.96 133.831 171.869C133.631 171.777 133.404 171.766 133.196 171.838" fill="#E0E0E0"/>
<g opacity="0.6">
<path opacity="0.6" d="M129.836 178.756L129.875 177.061L149.892 177.5C149.892 177.5 150.827 177.895 150.726 178.549L129.836 178.756Z" fill="white"/>
</g>
<path d="M140.079 172.541C140.079 172.642 139.57 172.695 139.069 173.028C138.568 173.362 138.309 173.792 138.213 173.753C138.116 173.713 138.265 173.121 138.876 172.73C139.486 172.339 140.101 172.444 140.079 172.541Z" fill="#263238"/>
<path d="M142.278 173.422C142.304 173.519 141.865 173.699 141.522 174.134C141.18 174.569 141.083 175.012 140.982 175.012C140.881 175.012 140.811 174.428 141.246 173.897C141.681 173.365 142.278 173.326 142.278 173.422Z" fill="#263238"/>
<path d="M143.551 176.032C143.459 176.058 143.309 175.549 143.551 174.987C143.792 174.424 144.28 174.196 144.324 174.284C144.368 174.372 144.078 174.67 143.885 175.131C143.691 175.593 143.652 176.01 143.551 176.032Z" fill="#263238"/>
<path d="M139.871 170.076C139.827 170.173 139.357 170.037 138.781 170.076C138.206 170.116 137.758 170.309 137.706 170.221C137.653 170.133 138.079 169.782 138.76 169.72C139.44 169.659 139.936 169.997 139.871 170.076Z" fill="#263238"/>
<path d="M133.467 118.766C133.467 118.766 139.176 118.327 139.808 124.502C140.441 130.676 141.064 159.576 141.064 159.576L127.736 160.687L125.672 131.168L104.404 122.121C104.404 122.121 129.66 117.976 133.467 118.766Z" fill="#263238"/>
<path d="M109.951 110.414C109.951 110.414 113.416 120.124 112.758 121.204C112.099 122.284 103.193 126.737 103.193 126.737L80.9149 135.296C80.9149 135.296 78.627 131.656 78.627 126.074C78.627 120.493 86.3604 110.414 86.3604 110.414H109.951Z" fill="#263238"/>
<path d="M103.352 121.627C103.352 121.627 103.382 121.627 103.453 121.684L103.769 121.829L105.003 122.378L109.636 124.398L125.625 131.279L125.555 131.178C125.757 134.094 125.972 137.243 126.2 140.502C126.741 148.121 127.241 155.143 127.636 160.702V160.803H127.733L137.447 159.951L140.121 159.701L140.82 159.626C140.9 159.625 140.98 159.613 141.057 159.591H140.82L140.117 159.635L137.438 159.828L127.72 160.597L127.825 160.689C127.443 155.13 126.947 148.108 126.438 140.488C126.209 137.23 125.998 134.081 125.783 131.165V131.091L125.713 131.064L109.693 124.262L105.033 122.308L103.782 121.798L103.457 121.671C103.424 121.651 103.389 121.636 103.352 121.627Z" fill="#455A64"/>
<path d="M85.6309 122.595C85.8443 122.561 86.0535 122.504 86.2544 122.424L87.932 121.884C89.7638 121.263 91.6419 120.789 93.5487 120.466C95.453 120.155 97.3971 120.18 99.2928 120.54C100.072 120.722 100.842 120.945 101.598 121.208C101.417 121.088 101.222 120.989 101.019 120.914C100.473 120.685 99.9088 120.502 99.3323 120.369C97.4181 119.952 95.4423 119.902 93.5092 120.22C91.5885 120.542 89.7022 121.043 87.8749 121.717C87.1723 121.968 86.6102 122.183 86.2237 122.336C86.0179 122.403 85.8192 122.489 85.6309 122.595Z" fill="#455A64"/>
<path d="M88.7793 117.48C89.4272 117.44 90.0769 117.44 90.7247 117.48C91.3264 117.519 92.0422 117.612 92.837 117.704C93.6319 117.796 94.5014 117.906 95.4017 118.077C96.9485 118.325 98.4316 118.874 99.7668 119.693C100.3 120.064 100.806 120.472 101.282 120.914C101.196 120.759 101.086 120.618 100.957 120.497C100.629 120.142 100.264 119.824 99.8678 119.548C98.5343 118.668 97.028 118.083 95.45 117.831C94.5365 117.66 93.6582 117.559 92.859 117.476C92.0597 117.392 91.3439 117.322 90.7379 117.304C90.2554 117.281 89.7718 117.301 89.2931 117.366C89.1171 117.378 88.9439 117.416 88.7793 117.48Z" fill="#455A64"/>
<path d="M110.514 72.168C112.084 72.7741 113.393 73.9116 114.211 75.3825C115.603 77.8418 115.23 79.0582 114.87 80.5118C114.51 81.9654 113.864 84.8506 113.829 84.6661C113.794 84.4817 110.514 72.168 110.514 72.168Z" fill="#FFBE9D"/>
<path d="M110.347 72.163L107.427 70.4328L90.959 69.998L96.5054 88.1876L106.536 94.5069L112.482 91.5295L113.074 84.9203L110.347 72.163Z" fill="#FFBE9D"/>
<path d="M110.514 72.1689C110.514 72.1689 114.3 84.3157 114.212 87.7938C114.124 91.2718 112.684 101.153 112.851 103.098C113.017 105.044 112.337 110.414 109.961 110.414H86.3612C86.3612 110.414 81.0387 108.943 80.8059 105.742C80.5732 102.54 84.9032 75.1726 84.9032 75.1726C84.9032 75.1726 87.9245 70.6143 89.8743 70.2146C91.8242 69.815 95.4427 68.9938 96.747 73.0296C98.0513 77.0654 98.4773 79.1338 101.257 81.918C104.037 84.7022 108.002 87.8245 108.002 87.8245C108.002 87.8245 111.199 85.1501 111.34 81.5315C111.48 77.9129 110.132 72.0503 110.132 72.0503L110.514 72.1689Z" fill="#003B73"/>
<path d="M107.002 110.677C107.347 110.59 107.666 110.421 107.933 110.185C108.604 109.648 109.144 108.965 109.509 108.187C109.872 107.418 110.141 106.609 110.313 105.776C110.415 105.441 110.47 105.094 110.476 104.744C110.33 105.061 110.218 105.392 110.142 105.732C109.923 106.536 109.638 107.32 109.29 108.077C108.933 108.823 108.435 109.493 107.823 110.049C107.358 110.466 107.002 110.638 107.002 110.677Z" fill="#263238"/>
<path d="M94.5332 95.6197C94.6486 95.749 94.7816 95.8613 94.9284 95.9534C95.3102 96.2313 95.7193 96.4696 96.1493 96.6648C96.787 96.9626 97.4644 97.1668 98.1606 97.2708C99.0177 97.3947 99.8905 97.3574 100.734 97.1611C102.258 96.7715 103.644 95.9674 104.739 94.838C105.069 94.5024 105.376 94.1444 105.657 93.7664C105.768 93.633 105.861 93.4853 105.933 93.3273C105.898 93.2966 105.472 93.8982 104.616 94.7062C103.511 95.7687 102.149 96.5254 100.664 96.902C99.1722 97.2421 97.6112 97.0991 96.2064 96.4936C95.1436 96.0456 94.5596 95.5801 94.5332 95.6197Z" fill="#263238"/>
<path d="M107.303 110.24C107.351 110.284 107.676 109.91 107.786 109.331C107.895 108.751 107.742 108.285 107.68 108.307C107.614 108.629 107.569 108.955 107.544 109.282C107.439 109.809 107.241 110.205 107.303 110.24Z" fill="#263238"/>
<g opacity="0.3">
<path opacity="0.3" d="M105.54 93.8895C105.378 95.6933 104.508 97.3593 103.12 98.5226C102.423 99.0854 101.602 99.4761 100.726 99.663C99.849 99.8499 98.9407 99.8278 98.0743 99.5985C97.2107 99.3515 96.4321 98.8711 95.8239 98.2103C95.2157 97.5494 94.8015 96.7336 94.627 95.8525C95.8149 96.4626 97.0813 96.906 98.3905 97.17C99.8029 97.3589 101.24 97.1357 102.528 96.5272C103.817 95.9188 104.902 94.951 105.654 93.7402L105.461 93.9422" fill="black"/>
</g>
<g opacity="0.3">
<path opacity="0.3" d="M110.514 105.114C110.683 106.01 110.617 106.934 110.323 107.797C110.028 108.66 109.514 109.432 108.832 110.037C108.701 110.182 108.535 110.291 108.349 110.353C108.164 110.416 107.966 110.429 107.773 110.392C109.101 108.843 110.033 106.993 110.487 105.004" fill="black"/>
</g>
<path d="M78.627 88.4863L90.5059 94.0591C90.5059 94.0591 95.3365 83.3438 95.7757 81.8771C96.2148 80.4103 97.4972 78.096 96.1578 75.0395C94.8184 71.9831 91.4457 70.2836 89.206 71.0872C83.9582 72.9097 78.627 88.4863 78.627 88.4863Z" fill="#003B73"/>
<path d="M113.074 88.4512C113.627 88.4512 120 91.7843 120 91.7843L123.627 79.7692C118.208 76.1594 112.675 72.4047 109.504 71.5527L112.271 81.113L113.074 88.4512Z" fill="#003B73"/>
<path d="M89.3428 93.3036C87.0899 97.0013 85.5222 99.1267 85.5222 99.1267L105.723 111.423L103.374 116.886L77.2003 106.114C77.2003 106.114 74.6181 103.479 75.5315 100.501L79.7034 88.9824L89.3428 93.3036Z" fill="#FFBE9D"/>
<path d="M80.6128 101.008C81.3836 100.526 82.1912 100.106 83.0281 99.7517C83.8885 99.4745 84.7696 99.266 85.663 99.1281C84.7337 99.0613 83.8009 99.1945 82.9274 99.5187C82.054 99.8429 81.2602 100.351 80.5996 101.008H80.6128Z" fill="#EB996E"/>
<path d="M78.627 88.487C78.707 88.5075 78.7849 88.5354 78.8597 88.5705L79.5184 88.8515L81.9206 89.9187L89.8252 93.5109L90.787 93.95L90.6333 94.0071C92.0078 91.179 93.2067 88.6495 94.0586 86.8271C94.4714 85.9488 94.8052 85.2066 95.0511 84.6664C95.1609 84.4337 95.2487 84.2273 95.319 84.0824C95.3496 84.0142 95.3848 83.9482 95.4244 83.8848C95.4151 83.9598 95.3928 84.0326 95.3585 84.1C95.3102 84.2405 95.2355 84.4425 95.1301 84.7016C94.9238 85.2198 94.6076 85.9663 94.1992 86.8973C93.3867 88.7417 92.2098 91.2888 90.8397 94.1125L90.7914 94.2135L90.6904 94.1652L89.7286 93.7261L81.8679 90.068L79.5009 88.935L78.8597 88.6188C78.7755 88.5877 78.6969 88.5432 78.627 88.487Z" fill="#263238"/>
<path d="M112.342 77.584C112.452 77.7634 112.545 77.9531 112.618 78.1505C112.836 78.6803 113.017 79.2247 113.159 79.7797C113.606 81.6132 113.878 83.4851 113.971 85.3701C114.088 87.2514 114.07 89.1387 113.918 91.0175C113.857 91.7377 113.773 92.335 113.703 92.717C113.678 92.9263 113.63 93.1323 113.563 93.3318C113.562 93.1214 113.58 92.9113 113.615 92.7039C113.655 92.3042 113.716 91.7246 113.756 91.0044C113.866 89.1323 113.866 87.2553 113.756 85.3833C113.657 83.5169 113.404 81.6618 113.001 79.8368C112.874 79.2831 112.719 78.7363 112.535 78.1988C112.452 78.0001 112.388 77.7943 112.342 77.584Z" fill="#263238"/>
<path d="M121.357 115.162L116.324 112.773L106.505 111.996L105.683 111.416L103.334 116.879C103.334 116.879 105.907 118.113 107.256 118.223L115.516 117.972L119.833 118.412L121.357 115.162Z" fill="#FFBE9D"/>
<path d="M115.051 52.1126C115.34 52.1732 115.639 52.1732 115.929 52.1126C116.644 51.9969 117.328 51.7337 117.936 51.3397C118.544 50.9482 119.063 50.4336 119.46 49.829C119.639 49.5897 119.768 49.3162 119.838 49.0254C119.651 49.2498 119.48 49.486 119.324 49.7324C118.471 50.8396 117.26 51.6159 115.898 51.9282C115.612 51.9714 115.329 52.033 115.051 52.1126Z" fill="#455A64"/>
<path d="M113.764 46.2754C113.764 46.2754 113.939 46.5433 114.339 46.8507C115.413 47.6507 116.759 47.9933 118.085 47.8036C118.359 47.7873 118.627 47.7092 118.867 47.5753C118.867 47.4962 117.633 47.8475 116.179 47.4655C115.313 47.2062 114.497 46.804 113.764 46.2754Z" fill="#455A64"/>
<path d="M123.196 75.1725H123.275C123.328 75.1725 123.403 75.1417 123.504 75.1066C123.79 75.0035 124.059 74.8553 124.299 74.6675C124.685 74.3711 124.995 73.9873 125.203 73.5476C125.479 72.9571 125.556 72.293 125.423 71.6549C125.349 71.2853 125.207 70.9325 125.006 70.6141C124.781 70.2745 124.507 69.9697 124.193 69.7095C123.869 69.4505 123.587 69.144 123.354 68.8004C123.249 68.6196 123.19 68.4153 123.183 68.206C123.176 67.9967 123.221 67.789 123.315 67.6016C123.547 67.1981 123.824 66.8224 124.141 66.4817C124.306 66.2899 124.454 66.0826 124.58 65.8625C124.703 65.6288 124.787 65.3767 124.83 65.116C124.904 64.5715 124.805 64.0175 124.549 63.5317C124.292 63.0458 123.89 62.6524 123.398 62.4064C122.89 62.2383 122.366 62.1178 121.835 62.0463C121.599 61.9974 121.375 61.9018 121.176 61.7653C120.991 61.6259 120.855 61.4303 120.79 61.2076C120.693 60.7462 120.747 60.2658 120.944 59.8374C121.124 59.3983 121.383 58.9855 121.536 58.5419C121.726 58.1008 121.759 57.6078 121.629 57.1455C121.479 56.7215 121.203 56.3536 120.838 56.0915C120.192 55.6656 119.471 55.3675 118.713 55.2132C118.106 55.0719 117.534 54.8105 117.031 54.4447C116.673 54.1459 116.426 53.7363 116.328 53.2809C116.254 52.9873 116.284 52.6771 116.412 52.4026C116.499 52.2182 116.583 52.1435 116.57 52.1348C116.485 52.2009 116.416 52.2848 116.368 52.3807C116.223 52.6494 116.177 52.9598 116.236 53.259C116.32 53.7466 116.57 54.1902 116.943 54.5149C117.454 54.9026 118.038 55.1834 118.66 55.3406C119.394 55.5026 120.091 55.8005 120.715 56.2188C121.045 56.4592 121.293 56.7949 121.427 57.1806C121.541 57.5963 121.506 58.0388 121.33 58.4322C121.168 58.8713 120.926 59.2578 120.733 59.7189C120.512 60.1949 120.453 60.7302 120.566 61.2427C120.642 61.5147 120.806 61.7539 121.031 61.9234C121.257 62.0814 121.513 62.1919 121.782 62.2484C122.297 62.3195 122.803 62.4356 123.297 62.5953C123.745 62.8163 124.113 63.1716 124.349 63.6117C124.585 64.0518 124.678 64.5547 124.615 65.0501C124.576 65.284 124.502 65.5106 124.395 65.722C124.276 65.9282 124.14 66.1236 123.987 66.3061C123.659 66.6609 123.376 67.0547 123.144 67.4786C123.036 67.6975 122.984 67.9397 122.994 68.1835C123.003 68.4273 123.073 68.6649 123.196 68.8751C123.441 69.2342 123.737 69.5553 124.075 69.8281C124.377 70.0719 124.642 70.3589 124.861 70.68C125.051 70.9823 125.188 71.315 125.265 71.6637C125.4 72.2676 125.337 72.8991 125.085 73.4642C124.893 73.8907 124.606 74.2676 124.246 74.5665C123.929 74.8207 123.575 75.0251 123.196 75.1725Z" fill="#455A64"/>
<path d="M97.0659 46.7423L97.1011 44.9374L108.027 43.3126C111.387 43.093 114.865 46.593 114.939 49.9569C115.023 53.694 114.979 58.2612 114.425 61.0234C113.31 66.5786 108.993 67.1012 108.993 67.1012L108.756 72.6696L96.3809 72.3227L97.0659 46.7423Z" fill="#FFBE9D"/>
<path d="M113.532 54.0619C113.525 54.2483 113.446 54.4248 113.312 54.5542C113.177 54.6836 112.998 54.7559 112.812 54.7557C112.72 54.7593 112.628 54.7445 112.543 54.7122C112.457 54.68 112.378 54.6309 112.312 54.568C112.245 54.505 112.191 54.4293 112.154 54.3455C112.117 54.2616 112.097 54.1711 112.096 54.0795C112.102 53.8926 112.181 53.7157 112.315 53.5856C112.45 53.4554 112.629 53.3822 112.816 53.3812C112.908 53.3783 112.999 53.3936 113.085 53.4264C113.171 53.4591 113.25 53.5086 113.316 53.5719C113.383 53.6352 113.436 53.7112 113.473 53.7953C113.51 53.8794 113.53 53.97 113.532 54.0619Z" fill="#263238"/>
<path d="M113.663 52.2835C113.57 52.3714 113.043 51.9498 112.27 51.919C111.498 51.8883 110.918 52.2528 110.839 52.1562C110.76 52.0596 110.896 51.9454 111.151 51.7785C111.493 51.5586 111.895 51.4511 112.301 51.4711C112.703 51.4847 113.09 51.6279 113.403 51.8795C113.636 52.0684 113.711 52.244 113.663 52.2835Z" fill="#263238"/>
<path d="M106.391 53.7764C106.385 53.9636 106.307 54.1412 106.173 54.2715C106.038 54.4019 105.858 54.4747 105.671 54.4747C105.579 54.4776 105.488 54.4622 105.402 54.4295C105.316 54.3968 105.237 54.3473 105.171 54.284C105.104 54.2206 105.051 54.1447 105.014 54.0606C104.977 53.9765 104.957 53.8859 104.955 53.794C104.962 53.6076 105.041 53.4311 105.175 53.3017C105.309 53.1722 105.489 53.1 105.675 53.1001C105.767 53.0966 105.858 53.1114 105.944 53.1436C106.03 53.1759 106.109 53.2249 106.175 53.2879C106.242 53.3509 106.295 53.4265 106.332 53.5104C106.369 53.5943 106.389 53.6847 106.391 53.7764Z" fill="#263238"/>
<path d="M106.071 52.1212C105.979 52.2091 105.452 51.7831 104.679 51.7568C103.906 51.7304 103.326 52.0905 103.247 51.9895C103.168 51.8885 103.304 51.7831 103.559 51.6118C103.902 51.3956 104.304 51.2898 104.709 51.3088C105.11 51.323 105.496 51.4645 105.812 51.7128C106.044 51.9061 106.123 52.0773 106.071 52.1212Z" fill="#263238"/>
<path d="M108.639 57.9568C109.052 57.8448 109.477 57.7858 109.904 57.7811C110.101 57.7811 110.29 57.7372 110.343 57.6054C110.368 57.4017 110.331 57.1953 110.238 57.0126C110.071 56.5295 109.899 56.0201 109.715 55.4887C108.99 53.3194 108.477 51.5364 108.564 51.5101C108.652 51.4837 109.311 53.2183 110.031 55.3877C110.207 55.9235 110.374 56.4329 110.527 56.9204C110.642 57.1629 110.668 57.4378 110.602 57.6977C110.57 57.7658 110.522 57.8259 110.464 57.8737C110.405 57.9215 110.337 57.9559 110.264 57.9743C110.154 57.9985 110.042 58.0088 109.93 58.0051C109.5 58.0456 109.066 58.0294 108.639 57.9568Z" fill="#263238"/>
<path d="M108.994 67.1317C106.296 67.0639 103.668 66.2607 101.393 64.8086C101.393 64.8086 103.123 68.8048 108.933 68.5238L108.994 67.1317Z" fill="#EB996E"/>
<path d="M108.24 59.8026C108.1 59.612 107.913 59.46 107.698 59.361C107.483 59.2619 107.247 59.2189 107.011 59.2361C106.842 59.2478 106.678 59.2926 106.527 59.368C106.377 59.4433 106.242 59.5478 106.132 59.6753C106.024 59.8001 105.957 59.9549 105.94 60.119C105.923 60.2831 105.956 60.4485 106.036 60.5931C106.154 60.7368 106.312 60.842 106.491 60.8952C106.669 60.9484 106.859 60.9472 107.037 60.8917C107.406 60.7759 107.749 60.5894 108.047 60.3428C108.137 60.2836 108.215 60.2093 108.28 60.1232C108.307 60.08 108.322 60.0297 108.322 59.9783C108.322 59.9269 108.307 59.8766 108.28 59.8334" fill="#EB996E"/>
<path d="M106.347 58.3966C106.474 58.3966 106.439 59.2353 107.133 59.8589C107.827 60.4825 108.723 60.4254 108.723 60.544C108.723 60.6626 108.516 60.6977 108.139 60.6933C107.652 60.6766 107.186 60.4902 106.821 60.1663C106.466 59.8551 106.249 59.4164 106.215 58.9455C106.189 58.5942 106.29 58.3922 106.347 58.3966Z" fill="#263238"/>
<path d="M106.395 49.0967C106.308 49.3031 105.543 49.1714 104.639 49.2416C103.734 49.3119 102.988 49.5315 102.882 49.3383C102.829 49.246 102.966 49.0572 103.269 48.864C103.67 48.6287 104.122 48.4904 104.586 48.46C105.052 48.4239 105.52 48.4992 105.952 48.6795C106.268 48.8332 106.431 49.0045 106.395 49.0967Z" fill="#263238"/>
<path d="M113.47 50.0406C113.329 50.2074 112.802 50.0054 112.152 49.9703C111.502 49.9352 110.966 50.0406 110.835 49.8517C110.782 49.7595 110.874 49.5883 111.12 49.4126C111.447 49.2278 111.821 49.1437 112.195 49.1711C112.569 49.1984 112.927 49.3359 113.224 49.5663C113.465 49.7727 113.535 49.9747 113.47 50.0406Z" fill="#263238"/>
<path d="M116.381 43.1804C115.481 45.1346 113.461 48.0462 111.318 48.257C110.24 48.3509 109.157 48.1673 108.171 47.7237C107.184 47.2802 106.328 46.5914 105.684 45.7231C105.323 47.3084 103.536 48.1165 101.924 48.358C100.786 48.5615 99.6134 48.4553 98.5298 48.0506C97.9925 47.8398 97.518 47.4951 97.1514 47.0493C96.7848 46.6035 96.5382 46.0714 96.4351 45.5035C96.2858 44.3617 97.9677 41.6083 99.1051 41.4238" fill="#263238"/>
<path d="M98.9296 71.7655C98.8593 72.6704 98.5116 73.5317 97.934 74.2319C97.3564 74.9321 96.5769 75.4371 95.7019 75.6783C95.7318 76.4209 95.4958 77.1498 95.0365 77.734C94.5771 78.3182 93.9244 78.7193 93.1957 78.8654C92.467 79.0115 91.7101 78.8928 91.061 78.5308C90.412 78.1687 89.9134 77.5871 89.6548 76.8903C89.5621 76.5176 89.4141 76.1608 89.2156 75.832C88.6667 75.1381 87.5996 75.2786 86.7608 75.0064C85.2457 74.5145 84.587 72.6569 84.7583 71.076C84.8145 70.7661 84.8292 70.45 84.8022 70.1362C84.71 69.5038 84.2137 69.0164 83.8449 68.4938C82.321 66.3332 82.9666 63.1977 84.6441 61.1644C85.2062 60.4881 85.9176 59.7811 85.8649 58.9028C85.7799 58.4164 85.6183 57.9466 85.3863 57.5107C85.1089 56.76 85.0635 55.9431 85.2562 55.1663C85.4488 54.3895 85.8705 53.6885 86.4666 53.1544C86.6458 53.061 86.7874 52.9086 86.8674 52.7231C86.9474 52.5375 86.9609 52.3299 86.9057 52.1355C86.8112 50.9583 87.1665 49.7889 87.8999 48.8632C88.6333 47.9374 89.6904 47.3241 90.8581 47.1468C91.0003 47.1429 91.1405 47.1116 91.2709 47.0546C91.631 46.8701 91.6397 46.3739 91.6881 45.9699C91.811 44.9071 92.6366 42.9222 93.4446 42.2239C95.7019 40.2961 97.8888 41.8638 98.6705 42.6016C98.6705 42.6016 100.216 50.2604 99.9177 51.6876C99.6191 53.1148 98.5695 56.6719 98.9867 58.2748C99.4039 59.8777 100.08 63.2021 99.4258 64.6556C98.7715 66.1092 98.9296 71.7655 98.9296 71.7655Z" fill="#263238"/>
<path d="M90.4844 47.12C90.4844 47.12 90.581 47.2167 90.7786 47.3616C91.0597 47.5586 91.353 47.7376 91.6569 47.8973C93.7219 48.9666 96.073 49.3525 98.3715 48.9996C98.7158 48.9483 99.0562 48.8735 99.3903 48.7756C99.6274 48.7054 99.7548 48.6571 99.7504 48.6395C99.746 48.6219 99.2102 48.7317 98.3451 48.8327C97.219 48.9529 96.082 48.9234 94.9637 48.7449C93.8458 48.5595 92.7584 48.2227 91.7316 47.7436C90.963 47.3791 90.5063 47.0849 90.4844 47.12Z" fill="#455A64"/>
<path d="M89.7461 47.6588C89.7807 47.8117 89.8353 47.9593 89.9086 48.0979C89.9776 48.2737 90.0598 48.444 90.1545 48.6073C90.2655 48.8328 90.3902 49.0513 90.5278 49.2616C90.8802 49.8153 91.2862 50.3331 91.7398 50.8074C92.2981 51.3853 92.9164 51.902 93.5842 52.3489C94.2595 52.7842 94.9776 53.1492 95.7273 53.4379C96.3421 53.6654 96.9774 53.833 97.6244 53.9386C97.8714 53.9821 98.1206 54.0115 98.371 54.0264C98.5595 54.0406 98.7489 54.0406 98.9375 54.0264C99.099 54.0372 99.2612 54.0284 99.4205 54.0001C99.4205 53.9517 98.7311 53.9605 97.6639 53.7497C97.0348 53.6227 96.4178 53.442 95.8195 53.2096C95.0898 52.9153 94.3899 52.5521 93.7292 52.1249C93.0766 51.6868 92.4677 51.1868 91.9111 50.6318C91.4594 50.1744 91.0493 49.6777 90.6859 49.1475C90.0535 48.2779 89.79 47.6368 89.7461 47.6588Z" fill="#455A64"/>
<path d="M93.7518 76.1202C93.7518 76.1202 93.6552 76.1202 93.4839 76.0895C93.2331 76.0354 93.0066 75.9013 92.8384 75.7074C92.5684 75.4056 92.4198 75.0145 92.4212 74.6096C92.4374 74.0681 92.5351 73.5322 92.711 73.0199C92.9517 72.375 92.993 71.6728 92.8296 71.0042C92.5969 70.2796 92.0084 69.7175 91.5122 69.1202C91.2372 68.8295 91.0117 68.4958 90.8447 68.1321C90.7666 67.9485 90.7293 67.7502 90.7354 67.5508C90.7415 67.3514 90.7907 67.1557 90.8798 66.9772C91.0914 66.6016 91.3933 66.2847 91.7581 66.055C92.1182 65.7915 92.5134 65.5631 92.8955 65.2777C93.3028 65.012 93.6222 64.6314 93.8133 64.1842C93.8878 63.9564 93.9134 63.7154 93.8884 63.4771C93.8634 63.2387 93.7885 63.0083 93.6684 62.8009C93.2292 62.006 92.5617 61.4263 92.3992 60.6622C92.3434 60.2994 92.3655 59.929 92.4639 59.5754C92.5624 59.2218 92.7349 58.8932 92.9701 58.6114C93.3645 58.0839 93.8151 57.601 94.3139 57.171C94.7266 56.8012 95.1057 56.3956 95.4469 55.9589C95.6989 55.623 95.8933 55.2476 96.0222 54.8479C96.096 54.5913 96.1256 54.324 96.11 54.0574C96.1031 53.9653 96.087 53.8741 96.0617 53.7852C96.0776 54.1342 96.0331 54.4833 95.93 54.8172C95.5451 55.6977 94.9402 56.4644 94.1734 57.0436C93.6567 57.4732 93.1897 57.9593 92.7813 58.4928C92.5517 58.7974 92.3696 59.135 92.2411 59.4941C92.1011 59.884 92.0723 60.3052 92.1577 60.7105C92.3422 61.5888 93.036 62.1685 93.4356 62.9063C93.54 63.0851 93.6052 63.284 93.6272 63.4899C93.6491 63.6958 93.6273 63.9039 93.563 64.1008C93.3845 64.5004 93.0948 64.8403 92.7286 65.0801C92.3597 65.3523 91.9645 65.5851 91.5912 65.8573C91.1997 66.1117 90.877 66.4586 90.6514 66.8674C90.5499 67.0758 90.4938 67.3033 90.487 67.535C90.4802 67.7667 90.5228 67.9972 90.6119 68.2112C90.7919 68.5989 91.0337 68.9548 91.3277 69.2651C91.8635 69.8668 92.4256 70.4069 92.6452 71.0613C92.8009 71.6934 92.7689 72.3573 92.5529 72.9715C92.38 73.5004 92.2911 74.0531 92.2895 74.6096C92.3033 75.0429 92.4769 75.4559 92.7769 75.7689C92.9633 75.9662 93.2109 76.0946 93.4796 76.1334C93.5701 76.1504 93.6633 76.1459 93.7518 76.1202Z" fill="#455A64"/>
<path d="M149.673 95.7734L121.357 96.0018C120.439 96.0018 119.561 96.441 119.425 97.3544L116.329 117.994H101.731C101.615 117.986 101.497 118.002 101.387 118.041C101.277 118.079 101.176 118.141 101.09 118.22C101.004 118.3 100.936 118.397 100.889 118.504C100.842 118.611 100.818 118.727 100.818 118.844C100.818 118.961 100.842 119.077 100.889 119.184C100.936 119.292 101.004 119.388 101.09 119.468C101.176 119.547 101.277 119.609 101.387 119.648C101.497 119.687 101.615 119.702 101.731 119.694H148.325L151.509 97.9121C151.55 97.6474 151.534 97.3769 151.46 97.1193C151.387 96.8616 151.259 96.6229 151.084 96.4196C150.91 96.2164 150.693 96.0533 150.45 95.9418C150.206 95.8302 149.941 95.7728 149.673 95.7734Z" fill="#E0E0E0"/>
<path d="M149.674 95.7735C149.821 95.7636 149.97 95.777 150.113 95.813C150.491 95.9014 150.832 96.1054 151.089 96.3966C151.345 96.6878 151.505 97.0518 151.545 97.4379C151.555 97.8284 151.521 98.2187 151.444 98.6016L151.035 101.474C150.412 105.804 149.511 112.035 148.4 119.703V119.777H148.326L103.133 119.799H101.916C101.695 119.822 101.472 119.779 101.275 119.676C101.072 119.566 100.916 119.384 100.836 119.167C100.757 118.951 100.758 118.713 100.838 118.497C100.919 118.282 101.074 118.102 101.275 117.99C101.473 117.893 101.693 117.852 101.912 117.871H116.325L116.215 117.964C117.331 110.573 118.367 103.678 119.289 97.495C119.316 97.0806 119.503 96.693 119.812 96.4147C120.121 96.1555 120.497 95.9894 120.896 95.936C121.276 95.9012 121.657 95.888 122.038 95.8965H123.149L127.409 95.8657L134.989 95.8174L145.774 95.7647H148.659H149.402H149.656H149.402H148.659L145.774 95.8086L134.989 95.9272L127.413 96.0019L123.149 96.0414H122.038C121.666 96.0324 121.293 96.0456 120.923 96.0809C120.558 96.1308 120.216 96.2831 119.935 96.5201C119.66 96.7692 119.495 97.1162 119.474 97.4862L116.421 117.964V118.056H101.93C101.749 118.037 101.566 118.069 101.403 118.148C101.253 118.232 101.138 118.366 101.077 118.527C101.016 118.687 101.013 118.864 101.069 119.026C101.127 119.193 101.244 119.332 101.398 119.417C101.562 119.501 101.747 119.533 101.93 119.509H103.146L148.339 119.536L148.255 119.61C149.388 111.952 150.315 105.72 150.956 101.395C151.119 100.314 151.259 99.357 151.395 98.5226C151.476 98.1459 151.514 97.7615 151.509 97.3764C151.481 97.0592 151.367 96.7556 151.18 96.4981C150.928 96.1409 150.558 95.8842 150.135 95.7735C149.981 95.7604 149.827 95.7604 149.674 95.7735Z" fill="#263238"/>
<path d="M134.311 109.242C135.291 109.242 136.085 108.447 136.085 107.468C136.085 106.488 135.291 105.693 134.311 105.693C133.331 105.693 132.537 106.488 132.537 107.468C132.537 108.447 133.331 109.242 134.311 109.242Z" fill="white"/>
<path d="M117.476 119.501C117.515 119.501 118.42 114.253 119.492 107.762C120.563 101.272 121.398 96.0107 121.358 96.002C121.318 95.9932 120.418 101.25 119.347 107.74C118.275 114.231 117.436 119.492 117.476 119.501Z" fill="#263238"/>
<path d="M194.273 81.5509C194.273 81.5509 194.273 81.2874 194.273 80.7868C194.273 80.2861 194.273 79.544 194.273 78.591C194.273 76.6588 194.273 73.8307 194.251 70.2472C194.251 63.0452 194.22 52.7515 194.198 40.3851L194.295 40.4817H148.145L148.259 40.3676C148.259 55.3645 148.259 69.4743 148.259 81.5904L148.158 81.4894L181.533 81.5421L190.949 81.5685H193.443H194.084H193.452H190.979L181.569 81.5904L148.119 81.6431H148.018V81.5421C148.018 69.426 148.018 55.3162 148.018 40.3193V40.2051H148.136H194.286H194.392V40.3105C194.392 52.7252 194.357 63.0408 194.343 70.256C194.343 73.8482 194.343 76.672 194.317 78.5998C194.317 79.5572 194.317 80.2905 194.317 80.7956C194.317 81.3006 194.273 81.5509 194.273 81.5509Z" fill="#263238"/>
<path d="M190.514 42.6738H151.131V79.2066H190.514V42.6738Z" fill="#003B73"/>
<g opacity="0.3">
<path opacity="0.3" d="M174.95 50.9068C174.418 50.9292 173.904 51.1075 173.472 51.4194C173.04 51.7314 172.71 52.1633 172.521 52.6616C172.333 53.1599 172.295 53.7025 172.413 54.222C172.53 54.7416 172.797 55.2152 173.182 55.584C173.566 55.9529 174.05 56.2007 174.574 56.2966C175.098 56.3926 175.639 56.3325 176.129 56.1238C176.619 55.9152 177.037 55.5671 177.331 55.1229C177.625 54.6786 177.782 54.1578 177.782 53.6252C177.775 53.2607 177.696 52.9012 177.549 52.5673C177.403 52.2334 177.192 51.9316 176.929 51.6792C176.666 51.4268 176.356 51.2286 176.016 51.0961C175.677 50.9636 175.314 50.8993 174.95 50.9068Z" fill="black"/>
<path opacity="0.3" d="M187.456 45.5449L154.186 45.5185C154.221 45.479 153.826 45.861 153.992 45.703V47.7757C153.992 48.4652 153.992 49.1503 153.992 49.8353V53.9238C153.992 56.607 153.992 59.2375 153.992 61.7934C153.992 66.9094 153.992 71.7488 153.992 76.1974V76.3204H154.155L178.308 76.2413L185.058 76.2018H186.814H187.254C187.302 76.2094 187.35 76.2094 187.398 76.2018H187.236H186.77H184.97L178.185 76.1623L170.75 76.1359H187.394C187.394 76.1974 187.394 76.2369 187.394 76.2369C187.402 76.1934 187.402 76.1488 187.394 76.1052C187.394 75.9998 187.394 75.8681 187.394 75.6968C187.394 75.3147 187.394 74.779 187.416 74.0807C187.416 72.6403 187.438 70.5675 187.456 67.9107C187.478 62.5531 187.504 54.9207 187.539 45.7556V45.602L187.456 45.5449ZM179.402 62.9132L173.987 69.294L165.077 57.2745L154.344 75.7934C154.344 71.4502 154.344 66.7425 154.344 61.7714C154.344 59.2155 154.344 56.5851 154.344 53.9019C154.344 52.5581 154.344 51.2011 154.344 49.8309V45.8786L187.28 45.8523C187.311 54.9075 187.341 62.4521 187.359 67.757C187.359 70.4182 187.394 72.513 187.403 73.9622C187.403 74.6692 187.403 75.2181 187.403 75.6046C187.403 75.7846 187.403 75.9208 187.403 76.0437V76.0832L179.402 62.9132Z" fill="black"/>
</g>
<path d="M149.33 38.8086H146.91V41.2283H149.33V38.8086Z" fill="#263238"/>
<path d="M195.094 38.8086H192.674V41.2283H195.094V38.8086Z" fill="#263238"/>
<path d="M195.094 79.9434H192.674V82.3631H195.094V79.9434Z" fill="#263238"/>
<path d="M149.668 79.9434H147.248V82.3631H149.668V79.9434Z" fill="#263238"/>
<path d="M149.668 59.6152H147.248V62.0349H149.668V59.6152Z" fill="#263238"/>
<path d="M172.109 80.3438H169.689V82.7635H172.109V80.3438Z" fill="#263238"/>
<path d="M195.484 58.4082H193.064V60.8279H195.484V58.4082Z" fill="#263238"/>
<path d="M172.117 39.0293H169.697V41.449H172.117V39.0293Z" fill="#263238"/>
<path d="M264.808 152.493C264.764 152.55 264.4 152.331 263.991 152.006C263.583 151.681 263.289 151.369 263.332 151.316C263.376 151.264 263.745 151.483 264.149 151.808C264.553 152.133 264.852 152.441 264.808 152.493Z" fill="#263238"/>
<path d="M275.905 135.911C275.97 134.361 276.014 132.771 275.527 131.3C275.039 129.829 273.902 128.472 272.383 128.155C270.626 127.8 268.869 128.893 267.899 130.373C266.928 131.853 266.581 133.649 266.309 135.397C264.332 147.44 263.603 159.654 264.135 171.846L271.241 172.861C274.346 160.13 275.338 149.002 275.905 135.911Z" fill="#455A64"/>
<path d="M271.4 128.102C271.393 128.141 271.381 128.179 271.365 128.216L271.251 128.536C271.134 128.829 270.976 129.237 270.776 129.762C270.675 130.029 270.548 130.319 270.438 130.64L270.096 131.716L269.701 132.945C269.583 133.393 269.46 133.863 269.332 134.355C268.739 136.669 268.281 139.015 267.961 141.381C267.579 144.051 267.325 147.007 267.127 150.112C266.767 156.326 266.688 161.969 266.547 166.048C266.473 168.086 266.402 169.737 266.323 170.879C266.288 171.432 266.258 171.867 266.236 172.196C266.236 172.337 266.214 172.447 266.205 172.539C266.212 172.577 266.212 172.615 266.205 172.653C266.2 172.615 266.2 172.577 266.205 172.539C266.205 172.447 266.205 172.333 266.205 172.196C266.205 171.871 266.205 171.437 266.244 170.879C266.293 169.737 266.337 168.086 266.389 166.048C266.504 161.969 266.53 156.326 266.894 150.099C267.092 146.989 267.333 144.029 267.746 141.355C268.08 138.986 268.558 136.64 269.178 134.329C269.31 133.837 269.441 133.367 269.56 132.923C269.679 132.48 269.85 132.076 269.999 131.689L270.368 130.622C270.478 130.293 270.618 130.003 270.724 129.744L271.242 128.532L271.382 128.22C271.38 128.18 271.386 128.139 271.4 128.102Z" fill="#263238"/>
<path d="M272.055 128.105C272.427 128.542 272.724 129.038 272.933 129.572C273.474 131.038 273.694 132.603 273.578 134.161C273.39 138.083 273.038 143.484 272.573 149.448C272.107 155.412 271.585 160.804 271.163 164.7C270.957 166.65 270.772 168.213 270.64 169.311C270.575 169.838 270.518 170.255 270.478 170.567C270.478 170.694 270.443 170.799 270.43 170.892C270.417 170.984 270.43 171.001 270.43 170.997C270.424 170.961 270.424 170.924 270.43 170.887V170.558C270.456 170.251 270.496 169.829 270.544 169.302C270.649 168.187 270.799 166.614 270.983 164.682C271.356 160.782 271.861 155.39 272.3 149.426C272.74 143.462 273.148 138.061 273.381 134.157C273.513 132.618 273.323 131.069 272.823 129.607C272.611 129.085 272.354 128.583 272.055 128.105Z" fill="#263238"/>
<path d="M276.973 146.467C276.508 146.43 276.053 146.311 275.629 146.115C275.177 145.999 274.75 145.801 274.369 145.531C275.288 145.678 276.171 145.995 276.973 146.467Z" fill="#263238"/>
<path d="M277.829 139.234C277.447 139.543 277.015 139.783 276.551 139.946C276.12 140.182 275.653 140.345 275.168 140.429C275.549 140.119 275.982 139.879 276.446 139.717C276.877 139.48 277.344 139.317 277.829 139.234Z" fill="#263238"/>
<path d="M277.39 133.337C276.689 133.456 275.969 133.407 275.291 133.192C275.634 133.09 275.997 133.07 276.349 133.135C276.707 133.121 277.063 133.191 277.39 133.337Z" fill="#263238"/>
<path d="M270.066 129.556C270.009 129.591 269.697 129.205 269.372 128.678C269.047 128.151 268.832 127.716 268.893 127.677C268.955 127.637 269.262 128.028 269.587 128.555C269.82 128.848 269.983 129.191 270.066 129.556Z" fill="#263238"/>
<path d="M267.646 133.122C267.324 133.24 266.979 133.276 266.64 133.227C266.082 133.227 265.634 133.148 265.639 133.078C265.961 132.963 266.306 132.926 266.644 132.973C267.198 132.973 267.65 133.052 267.646 133.122Z" fill="#263238"/>
<path d="M265.911 140.262C265.539 140.247 265.176 140.147 264.848 139.972C264.29 139.744 263.856 139.511 263.882 139.445C264.254 139.461 264.617 139.56 264.945 139.735C265.502 139.959 265.937 140.196 265.911 140.262Z" fill="#263238"/>
<path d="M265.722 146.264C265.722 146.334 265.336 146.475 264.844 146.585C264.352 146.695 263.904 146.721 263.891 146.655C263.878 146.589 264.277 146.444 264.769 146.334C265.261 146.225 265.709 146.194 265.722 146.264Z" fill="#263238"/>
<path d="M264.906 156.083C264.906 156.154 264.467 156.29 263.949 156.386C263.431 156.483 262.961 156.505 262.948 156.435C262.934 156.364 263.365 156.233 263.905 156.136C264.23 156.039 264.573 156.021 264.906 156.083Z" fill="#263238"/>
<path d="M264.365 161.516C264.395 161.578 264.04 161.833 263.565 162.083C263.091 162.333 262.687 162.487 262.647 162.425C262.608 162.364 262.972 162.109 263.447 161.859C263.921 161.609 264.329 161.446 264.365 161.516Z" fill="#263238"/>
<path d="M268.792 167.666C268.73 167.701 268.418 167.27 268.093 166.704C267.861 166.38 267.699 166.01 267.619 165.619C267.681 165.584 267.992 166.014 268.313 166.577C268.547 166.902 268.71 167.273 268.792 167.666Z" fill="#263238"/>
<path d="M270.069 157.439C270.117 157.487 269.77 157.909 269.291 158.374C268.813 158.84 268.387 159.182 268.338 159.13C268.29 159.077 268.637 158.66 269.116 158.194C269.594 157.729 270.016 157.386 270.069 157.439Z" fill="#263238"/>
<path d="M269.784 152.071C269.736 152.119 269.411 151.852 269.064 151.478C268.717 151.105 268.48 150.767 268.533 150.719C268.585 150.67 268.906 150.934 269.253 151.307C269.6 151.68 269.837 152.023 269.784 152.071Z" fill="#263238"/>
<path d="M270.662 145.216C270.715 145.26 270.425 145.655 270.016 146.125C269.608 146.595 269.235 146.915 269.182 146.867C269.129 146.819 269.419 146.428 269.828 145.958C270.236 145.488 270.609 145.167 270.662 145.216Z" fill="#263238"/>
<path d="M271.16 140.242C271.111 140.29 270.72 139.974 270.255 139.53C269.789 139.087 269.482 138.691 269.53 138.652C269.579 138.612 269.97 138.92 270.435 139.359C270.901 139.798 271.208 140.193 271.16 140.242Z" fill="#263238"/>
<path d="M272.12 133.514C272.181 133.553 271.975 134.001 271.681 134.524C271.387 135.047 271.07 135.437 271.009 135.402C270.947 135.367 271.154 134.919 271.448 134.397C271.742 133.874 272.067 133.479 272.12 133.514Z" fill="#263238"/>
<path d="M273.955 127.264C273.901 127.626 273.764 127.972 273.556 128.274C273.27 128.796 272.993 129.192 272.932 129.152C272.87 129.112 273.051 128.669 273.332 128.142C273.613 127.615 273.876 127.264 273.955 127.264Z" fill="#263238"/>
<path d="M276.028 130.114C276.058 130.175 275.773 130.377 275.395 130.553C275.018 130.729 274.679 130.83 274.649 130.768C274.618 130.707 274.903 130.505 275.286 130.329C275.668 130.153 275.997 130.052 276.028 130.114Z" fill="#263238"/>
<path d="M276.073 152.497C275.111 152.426 274.2 152.036 273.482 151.391C273.939 151.524 274.38 151.704 274.8 151.926C275.243 152.073 275.669 152.264 276.073 152.497Z" fill="#263238"/>
<path d="M275.23 157.235C275.23 157.306 274.817 157.446 274.277 157.547C273.737 157.648 273.289 157.683 273.276 157.613C273.263 157.543 273.688 157.407 274.229 157.301C274.552 157.199 274.896 157.176 275.23 157.235Z" fill="#263238"/>
<path d="M274.188 165.364C273.751 165.149 273.378 164.822 273.108 164.416C272.772 164.061 272.539 163.623 272.432 163.146C272.754 163.492 273.048 163.864 273.31 164.258C273.634 164.601 273.928 164.971 274.188 165.364Z" fill="#263238"/>
<path d="M262.788 169.084C262.74 169.027 263.03 168.707 263.43 168.364C263.829 168.021 264.194 167.789 264.238 167.841C264.282 167.894 263.996 168.215 263.597 168.557C263.197 168.9 262.832 169.137 262.788 169.084Z" fill="#263238"/>
<path d="M259.508 151.342C259.068 149.897 258.19 148.219 256.666 148.197C256.217 148.223 255.783 148.368 255.409 148.618C255.035 148.869 254.736 149.215 254.541 149.62C254.126 150.425 253.928 151.324 253.966 152.229C254.152 158.645 255.246 165.003 257.215 171.112H262.757C262.688 164.395 261.593 157.727 259.508 151.342Z" fill="#455A64"/>
<path d="M249.49 142.265C248.717 139.169 246.416 137.495 243.724 137.342C241.278 137.781 240.329 140.179 240.035 142.651C239.741 145.124 240.513 147.574 241.269 149.941C243.696 157.553 246.126 165.155 248.559 172.746L255.431 171.995C253.271 161.811 252.019 152.369 249.49 142.265Z" fill="#455A64"/>
<path d="M256.666 148.197C256.489 148.445 256.332 148.706 256.196 148.979C255.915 149.763 255.826 150.604 255.937 151.429C256.047 152.483 256.165 153.748 256.341 155.14C256.517 156.532 256.78 158.056 257.083 159.646C257.711 162.83 258.401 165.684 258.866 167.766C259.09 168.802 259.261 169.65 259.371 170.234C259.415 170.502 259.455 170.726 259.485 170.91C259.506 170.987 259.515 171.067 259.512 171.147C259.475 171.076 259.449 170.999 259.437 170.919C259.393 170.739 259.341 170.519 259.275 170.256C259.125 169.636 258.928 168.811 258.691 167.805C258.199 165.737 257.465 162.887 256.837 159.694C256.526 158.1 256.28 156.567 256.113 155.167C256.021 154.468 255.963 153.801 255.906 153.177C255.849 152.554 255.788 151.974 255.761 151.443C255.66 150.592 255.78 149.73 256.108 148.939C256.24 148.656 256.43 148.403 256.666 148.197Z" fill="#263238"/>
<path d="M243.826 137.145C243.519 137.496 243.24 137.87 242.991 138.264C242.357 139.364 241.999 140.601 241.946 141.87C241.841 143.473 242.196 145.383 242.798 147.416C243.4 149.449 244.067 151.72 244.761 154.078C246.136 158.803 247.396 163.076 248.274 166.203C248.713 167.736 249.06 168.987 249.315 169.883C249.425 170.3 249.517 170.634 249.583 170.889C249.622 171.004 249.648 171.123 249.662 171.244C249.608 171.135 249.565 171.02 249.535 170.902L249.218 169.914C248.946 169.035 248.569 167.78 248.099 166.251L244.502 154.153L242.574 147.465C241.981 145.409 241.634 143.473 241.766 141.839C241.835 140.548 242.228 139.294 242.908 138.194C243.155 137.797 243.465 137.442 243.826 137.145Z" fill="#263238"/>
<path d="M253.948 171.257C253.885 171.153 253.834 171.043 253.794 170.928C253.702 170.704 253.557 170.383 253.399 169.957C253.074 169.11 252.652 167.863 252.217 166.299C251.783 164.736 251.339 162.847 250.931 160.74C250.522 158.632 250.092 156.317 249.613 153.884C249.135 151.452 248.599 149.164 247.98 147.117C247.444 145.3 246.773 143.525 245.973 141.808C245.428 140.653 244.807 139.535 244.115 138.462C243.878 138.075 243.676 137.794 243.531 137.583C243.46 137.483 243.396 137.379 243.338 137.271C243.425 137.358 243.505 137.452 243.575 137.553C243.716 137.741 243.944 138.014 244.194 138.391C244.924 139.448 245.571 140.56 246.131 141.716C246.962 143.432 247.656 145.212 248.204 147.038C248.871 149.27 249.424 151.535 249.859 153.823C250.298 156.256 250.738 158.57 251.137 160.682C251.537 162.795 251.954 164.674 252.367 166.238C252.78 167.801 253.17 169.057 253.473 169.909C253.614 170.348 253.741 170.669 253.82 170.893C253.876 171.009 253.919 171.131 253.948 171.257Z" fill="#263238"/>
<path d="M241.379 148.805C241.379 148.876 241.023 149.025 240.54 149.139C240.057 149.253 239.662 149.293 239.662 149.227C239.662 149.161 240.022 149.007 240.501 148.893C240.98 148.779 241.379 148.739 241.379 148.805Z" fill="#263238"/>
<path d="M240.664 144.101C239.895 144.24 239.11 144.271 238.332 144.193C239.083 143.932 239.895 143.9 240.664 144.101Z" fill="#263238"/>
<path d="M241.441 139.805C241.392 139.857 241.001 139.616 240.602 139.265C240.202 138.913 239.886 138.579 239.93 138.527C239.974 138.474 240.369 138.716 240.769 139.067C241.168 139.418 241.484 139.752 241.441 139.805Z" fill="#263238"/>
<path d="M243.54 135.831C243.61 135.831 243.593 136.182 243.58 136.586C243.566 136.99 243.58 137.324 243.496 137.337C243.413 137.35 243.316 137.012 243.329 136.577C243.343 136.143 243.474 135.813 243.54 135.831Z" fill="#263238"/>
<path d="M247.836 137.703C247.893 137.743 247.726 138.085 247.462 138.463C247.199 138.84 246.935 139.117 246.878 139.073C246.821 139.029 246.988 138.695 247.256 138.318C247.524 137.94 247.779 137.663 247.836 137.703Z" fill="#263238"/>
<path d="M250.624 142.547C250.651 142.613 250.295 142.819 249.829 143.008C249.364 143.197 248.951 143.302 248.951 143.236C248.951 143.171 249.285 142.964 249.75 142.775C250.216 142.587 250.602 142.481 250.624 142.547Z" fill="#263238"/>
<path d="M252.315 147.531C252.005 147.793 251.624 147.958 251.221 148.006C250.837 148.135 250.424 148.15 250.031 148.049C250.395 147.901 250.778 147.804 251.169 147.76C251.538 147.631 251.924 147.554 252.315 147.531Z" fill="#263238"/>
<path d="M244.55 146.112C244.484 146.112 244.55 145.747 244.66 145.343C244.769 144.939 244.941 144.632 245.011 144.649C245.081 144.667 245.011 145.018 244.901 145.422C244.791 145.826 244.616 146.147 244.55 146.112Z" fill="#263238"/>
<path d="M245.635 152.369C245.656 152.004 245.763 151.649 245.947 151.333C246.184 150.789 246.425 150.371 246.491 150.398C246.466 150.762 246.36 151.116 246.179 151.434C245.942 151.979 245.701 152.396 245.635 152.369Z" fill="#263238"/>
<path d="M242.962 154.082C242.936 154.148 242.497 154.025 241.97 153.863C241.443 153.7 241.012 153.547 241.03 153.476C241.375 153.429 241.726 153.479 242.044 153.621C242.584 153.788 242.988 154.016 242.962 154.082Z" fill="#263238"/>
<path d="M244.504 159.182C244.543 159.239 244.249 159.52 243.845 159.81C243.441 160.1 243.076 160.284 243.037 160.227C242.997 160.17 243.291 159.889 243.695 159.603C244.1 159.318 244.455 159.125 244.504 159.182Z" fill="#263238"/>
<path d="M245.74 164.265C245.74 164.331 245.389 164.481 244.923 164.595C244.458 164.709 244.045 164.744 244.045 164.678C244.045 164.612 244.392 164.463 244.857 164.349C245.323 164.235 245.722 164.195 245.74 164.265Z" fill="#263238"/>
<path d="M252.45 151.776C252.485 151.834 252.173 152.084 251.721 152.255C251.269 152.426 250.865 152.444 250.843 152.378C250.821 152.312 251.185 152.18 251.616 152.018C252.046 151.856 252.415 151.715 252.45 151.776Z" fill="#263238"/>
<path d="M253.412 159.685C253.381 159.751 253.008 159.637 252.582 159.435C252.156 159.233 251.827 159.018 251.857 158.956C251.888 158.895 252.257 159.005 252.687 159.207C253.118 159.409 253.438 159.624 253.412 159.685Z" fill="#263238"/>
<path d="M255.102 165.347C254.719 165.33 254.344 165.23 254.004 165.052C253.425 164.828 252.977 164.591 253.003 164.525C253.386 164.542 253.761 164.643 254.101 164.82C254.681 165.03 255.129 165.281 255.102 165.347Z" fill="#263238"/>
<path d="M246.008 169.782C245.973 169.721 246.447 169.418 246.947 169.005C247.448 168.592 247.874 168.227 247.927 168.276C247.979 168.324 247.65 168.776 247.106 169.202C246.8 169.493 246.42 169.694 246.008 169.782Z" fill="#263238"/>
<path d="M250.487 166.904C250.412 166.904 250.315 166.531 250.144 166.087C249.973 165.644 249.789 165.297 249.85 165.257C249.911 165.218 250.197 165.521 250.381 166C250.566 166.478 250.553 166.895 250.487 166.904Z" fill="#263238"/>
<path d="M249.285 160.094C249.246 160.151 248.956 160.015 248.64 159.786C248.323 159.558 248.104 159.347 248.143 159.273C248.183 159.198 248.473 159.356 248.789 159.58C249.105 159.804 249.342 160.037 249.285 160.094Z" fill="#263238"/>
<path d="M259.731 149.428C259.775 149.485 259.494 149.762 259.103 150.047C258.712 150.333 258.366 150.522 258.326 150.465C258.286 150.407 258.563 150.131 258.954 149.845C259.345 149.56 259.692 149.371 259.731 149.428Z" fill="#263238"/>
<path d="M261.304 153.726C261.304 153.792 260.865 153.884 260.325 153.827C259.785 153.77 259.368 153.581 259.39 153.52C259.411 153.458 259.829 153.52 260.351 153.573C260.874 153.625 261.3 153.652 261.304 153.726Z" fill="#263238"/>
<path d="M254.554 154.689C254.554 154.755 254.163 154.904 253.636 154.939C253.109 154.974 252.683 154.882 252.688 154.816C252.692 154.75 253.127 154.72 253.619 154.684C254.11 154.649 254.554 154.619 254.554 154.689Z" fill="#263238"/>
<path d="M255.126 150.626C255.126 150.692 254.709 150.705 254.248 150.495C253.786 150.284 253.532 149.968 253.58 149.919C253.628 149.871 253.94 150.077 254.353 150.266C254.766 150.455 255.135 150.538 255.126 150.626Z" fill="#263238"/>
<path d="M261.884 158.341C261.848 158.398 261.444 158.201 260.944 157.902C260.443 157.604 260.096 157.305 260.131 157.243C260.166 157.182 260.57 157.384 261.076 157.683C261.581 157.981 261.923 158.28 261.884 158.341Z" fill="#263238"/>
<path d="M278.377 170.406H242.314V176.796H278.377V170.406Z" fill="#003B73"/>
<path d="M245.012 175.525L249.394 194.628H270.886L275.686 175.525H245.012Z" fill="#003B73"/>
<path d="M278.356 176.803C278.356 176.873 270.223 176.93 260.193 176.93C250.163 176.93 242.025 176.873 242.025 176.803C242.025 176.733 250.158 176.676 260.193 176.676C270.228 176.676 278.356 176.733 278.356 176.803Z" fill="#263238"/>
<path d="M258.304 154.828C258.242 154.863 257.996 154.578 257.75 154.187C257.505 153.796 257.36 153.449 257.417 153.41C257.474 153.37 257.724 153.66 257.966 154.051C258.207 154.442 258.361 154.793 258.304 154.828Z" fill="#263238"/>
<path d="M258.318 159.972C258.252 159.95 258.318 159.533 258.507 159.002C258.695 158.47 258.867 158.088 258.946 158.123C259.025 158.158 258.946 158.562 258.761 159.094C258.577 159.625 258.384 159.994 258.318 159.972Z" fill="#263238"/>
<path d="M260.078 165.368C260.013 165.398 259.745 164.968 259.477 164.406C259.272 164.08 259.145 163.712 259.104 163.33C259.369 163.607 259.574 163.936 259.705 164.296C259.905 164.623 260.032 164.988 260.078 165.368Z" fill="#263238"/>
<path d="M256.268 169.712C256.215 169.668 256.43 169.334 256.751 168.965C257.071 168.597 257.37 168.342 257.423 168.386C257.475 168.43 257.26 168.768 256.94 169.132C256.619 169.497 256.312 169.76 256.268 169.712Z" fill="#263238"/>
<path d="M255.467 161.83C255.467 161.896 255.107 161.896 254.694 161.83C254.282 161.764 253.952 161.641 253.961 161.571C253.97 161.5 254.321 161.505 254.738 161.571C255.156 161.636 255.481 161.759 255.467 161.83Z" fill="#263238"/>
</svg>
