<?xml version="1.0" encoding="UTF-8"?>
<!DOCTYPE svg PUBLIC "-//W3C//DTD SVG 1.1//EN" "http://www.w3.org/Graphics/SVG/1.1/DTD/svg11.dtd">
<!-- Creator: CorelDRAW 2018 (64-Bit) -->
<svg xmlns="http://www.w3.org/2000/svg" xml:space="preserve" width="87px" height="100px" version="1.1" style="shape-rendering:geometricPrecision; text-rendering:geometricPrecision; image-rendering:optimizeQuality; fill-rule:evenodd; clip-rule:evenodd"
viewBox="0 0 87 100"
 xmlns:xlink="http://www.w3.org/1999/xlink">
 <defs>
  <style type="text/css">
   <![CDATA[
    .fil0 {fill:#1A659E}
   ]]>
  </style>
 </defs>
 <g id="Layer_x0020_1">
  <metadata id="CorelCorpID_0Corel-Layer"/>
  <path class="fil0" d="M58.59 0c-2.19,0 -45.38,0 -46.87,0 -6.46,0 -11.72,5.26 -11.72,11.72l0 61.98 26.3 26.3 32.29 0c6,0 10.96,-4.52 11.64,-10.34 0.97,-0.2 1.92,-0.48 2.85,-0.85l6.65 9.49c1.26,1.8 3.76,2.25 5.57,0.98l0 0c1.8,-1.26 2.24,-3.77 0.98,-5.57l-6.64 -9.49c5.2,-5.84 5.91,-14.7 1.23,-21.39 -2.61,-3.73 -6.43,-6.11 -10.56,-6.99l0 -44.12c0,-6.46 -5.26,-11.72 -11.72,-11.72zm-41.06 14.29l35.25 0c2.21,0 4.01,1.8 4.01,4l0 0c0,2.2 -1.8,4 -4.01,4l-35.25 0c-2.21,0 -4,-1.8 -4,-4l0 0c0,-2.2 1.79,-4 4,-4zm0 15.06l35.25 0c2.21,0 4.01,1.79 4.01,4l0 0c0,2.2 -1.8,4 -4.01,4l-35.25 0c-2.21,0 -4,-1.8 -4,-4l0 0c0,-2.21 1.79,-4 4,-4zm0 15.05l35.25 0c2.21,0 4.01,1.8 4.01,4l0 0c0,2.2 -1.8,4 -4.01,4l-35.25 0c-2.21,0 -4,-1.8 -4,-4l0 0c0,-2.2 1.79,-4 4,-4zm-0.01 15.05l25.74 0c2.2,0 4,1.8 4,4.01l0 0c0,2.2 -1.8,4 -4,4l-25.74 0c-2.2,0 -3.99,-1.8 -3.99,-4l0 0c0,-2.21 1.79,-4.01 3.99,-4.01zm44.8 30c-0.5,1.59 -1.98,2.74 -3.73,2.74l-32.29 0 0 -10.49c0,-4.4 -3.6,-8 -8,-8l-10.49 0 0 -61.98c0,-2.16 1.75,-3.91 3.91,-3.91l6.96 0 32.95 0 6.96 0c2.16,0 3.91,1.75 3.91,3.91l0 44.26c-1.99,0.5 -3.92,1.36 -5.7,2.61 -7.82,5.47 -9.72,16.25 -4.24,24.07 2.44,3.48 5.94,5.79 9.76,6.79zm-0.93 -24.32c4.2,-2.94 9.99,-1.91 12.93,2.29 2.94,4.2 1.92,9.99 -2.28,12.93 -4.2,2.94 -9.99,1.92 -12.93,-2.28 -2.94,-4.2 -1.92,-9.99 2.28,-12.94z"/>
 </g>
</svg>
