<?xml version="1.0" encoding="UTF-8"?>
<!DOCTYPE svg PUBLIC "-//W3C//DTD SVG 1.1//EN" "http://www.w3.org/Graphics/SVG/1.1/DTD/svg11.dtd">
<!-- Creator: CorelDRAW 2018 (64-Bit) -->
<svg xmlns="http://www.w3.org/2000/svg" xml:space="preserve" width="44px" height="55px" version="1.1" style="shape-rendering:geometricPrecision; text-rendering:geometricPrecision; image-rendering:optimizeQuality; fill-rule:evenodd; clip-rule:evenodd"
viewBox="0 0 44 55"
 xmlns:xlink="http://www.w3.org/1999/xlink">
 <defs>
  <style type="text/css">
   <![CDATA[
    .fil0 {fill:white}
   ]]>
  </style>
 </defs>
 <g id="Layer_x0020_1">
  <metadata id="CorelCorpID_0Corel-Layer"/>
  <path class="fil0" d="M5.89 0l24 0c3.3,0 6,2.7 6,6l0 24.52c-2.25,-0.14 -4.56,0.45 -6.55,1.84 -4.67,3.28 -5.81,9.72 -2.54,14.4 2.06,2.93 5.36,4.47 8.69,4.4 -0.87,2.24 -3.06,3.84 -5.6,3.84l-15.37 0 0 -6.63c0,-4.41 -3.59,-8 -8,-8l-6.63 0 0 -34.37c0,-3.3 2.7,-6 6,-6zm1.04 17.27l22.83 0c0.6,0 1.09,0.52 1.09,1.17l0 0c0,0.64 -0.49,1.17 -1.09,1.17l-22.83 0c-0.6,0 -1.08,-0.53 -1.08,-1.17l0 0c0,-0.65 0.48,-1.17 1.08,-1.17zm0 -7.56l22.83 0c0.6,0 1.09,0.53 1.09,1.17l0 0c0,0.65 -0.49,1.18 -1.09,1.18l-22.83 0c-0.6,0 -1.08,-0.53 -1.08,-1.18l0 0c0,-0.64 0.48,-1.17 1.08,-1.17zm-0.06 22.66l15.95 0c0.57,0 1.03,0.53 1.03,1.17l0 0c0,0.65 -0.46,1.18 -1.03,1.18l-15.95 0c-0.56,0 -1.02,-0.53 -1.02,-1.18l0 0c0,-0.64 0.46,-1.17 1.02,-1.17zm0.06 -7.55l22.65 0c0.6,0 1.09,0.53 1.09,1.17l0 0c0,0.65 -0.49,1.17 -1.09,1.17l-22.65 0c-0.6,0 -1.08,-0.52 -1.08,-1.17l0 0c0,-0.64 0.48,-1.17 1.08,-1.17zm29.19 11.83c-0.54,-0.06 -0.94,-0.55 -0.88,-1.1 0.06,-0.55 0.56,-0.94 1.1,-0.88 0.02,0 4.29,0.47 4.98,5.34 0.08,0.55 -0.3,1.05 -0.84,1.13 -0.55,0.08 -1.06,-0.3 -1.13,-0.85 -0.48,-3.33 -3.22,-3.64 -3.23,-3.64zm-8.8 1.27c1.58,-4.33 6.36,-6.56 10.68,-4.98 4.33,1.57 6.56,6.36 4.98,10.68 -0.48,1.34 -1.27,2.47 -2.26,3.36l3.21 4.58c0.31,0.45 0.2,1.08 -0.25,1.39l0 0c-0.45,0.32 -1.07,0.21 -1.39,-0.24l-3.21 -4.59c-2.02,1.08 -4.46,1.33 -6.78,0.48 -4.32,-1.57 -6.55,-6.36 -4.98,-10.68zm-27.43 4.45l6.63 0c3.3,0 6,2.7 6,6l0 6.63 -12.63 -12.63z"/>
 </g>
</svg>
