<?xml version="1.0" encoding="UTF-8"?>
<!DOCTYPE svg PUBLIC "-//W3C//DTD SVG 1.1//EN" "http://www.w3.org/Graphics/SVG/1.1/DTD/svg11.dtd">
<!-- Creator: CorelDRAW 2018 (64-Bit) -->
<svg xmlns="http://www.w3.org/2000/svg" xml:space="preserve" width="70px" height="100px" version="1.1" style="shape-rendering:geometricPrecision; text-rendering:geometricPrecision; image-rendering:optimizeQuality; fill-rule:evenodd; clip-rule:evenodd"
viewBox="0 0 70 100"
 xmlns:xlink="http://www.w3.org/1999/xlink">
 <defs>
  <style type="text/css">
   <![CDATA[
    .fil0 {fill:#1A659E}
   ]]>
  </style>
 </defs>
 <g id="Layer_x0020_1">
  <metadata id="CorelCorpID_0Corel-Layer"/>
  <path class="fil0" d="M35.38 9.39l-4.98 4.53c-0.84,0.76 -1.92,1.1 -2.97,1.03l-8.12 -0.58 -1.37 6.59c-0.23,1.11 -0.91,2.02 -1.8,2.57l-6.9 4.31 2.77 6.13c0.46,1.04 0.45,2.17 0.06,3.14l-3.06 7.54 5.84 3.33c0.99,0.57 1.65,1.49 1.9,2.52l1.96 7.89 6.7 -0.74c1.22,-0.13 2.37,0.31 3.19,1.1l6.02 5.06 4.98 -4.54c0.84,-0.76 1.92,-1.1 2.97,-1.03l8.12 0.58 1.37 -6.59c0.23,-1.11 0.91,-2.01 1.8,-2.57l6.9 -4.3 -2.77 -6.14c-0.46,-1.03 -0.45,-2.16 -0.06,-3.14l3.06 -7.54 -5.84 -3.33c-0.99,-0.57 -1.65,-1.49 -1.9,-2.52l-1.96 -7.89 -6.7 0.74c-1.22,0.13 -2.37,-0.31 -3.19,-1.1l-6.02 -5.05zm-0.38 13.2c7.73,0 14,6.27 14,14.01 0,7.73 -6.27,14 -14,14 -7.73,0 -14,-6.27 -14,-14 0,-7.74 6.27,-14.01 14,-14.01zm-9.35 44.08l0 20.41 6.69 -5.83c1.54,-1.34 3.81,-1.3 5.29,0.02l6.69 5.84 0 -20.74 -0.61 -0.04 -6.29 5.73c-1.46,1.31 -3.71,1.39 -5.25,0.09l-6.52 -5.48zm26.68 0.28l0 28.95c-0.01,0.93 -0.33,1.86 -0.99,2.62 -1.45,1.66 -3.97,1.84 -5.64,0.39l-10.73 -9.35 -10.59 9.23c-0.72,0.67 -1.68,1.07 -2.73,1.07 -2.21,0 -4,-1.79 -4,-4l0 -29.29c-0.52,0.05 -1.04,0.09 -1.55,0.13 -1.96,0.21 -3.82,-1.05 -4.3,-3.01l-2.39 -9.62 -7.19 -4.11c-1.85,-0.92 -2.71,-3.13 -1.92,-5.08l3.72 -9.19 -3.46 -7.69c-0.86,-1.81 -0.24,-4.02 1.5,-5.1l8.41 -5.24 1.7 -8.15c0.32,-2.03 2.14,-3.5 4.22,-3.36l9.9 0.71 6.29 -5.72c1.46,-1.32 3.71,-1.4 5.25,-0.1l7.59 6.38c2.78,-0.31 5.71,-0.72 8.48,-0.93 1.96,-0.21 3.82,1.05 4.3,3.01l2.39 9.62 7.19 4.11c1.85,0.92 2.71,3.13 1.92,5.08l-3.72 9.19 3.46 7.69c0.86,1.81 0.24,4.02 -1.5,5.1l-8.41 5.25 -1.7 8.15c-0.32,2.02 -2.14,3.49 -4.22,3.35l-1.28 -0.09z"/>
 </g>
</svg>
