<?xml version="1.0" encoding="UTF-8"?>
<!DOCTYPE svg PUBLIC "-//W3C//DTD SVG 1.1//EN" "http://www.w3.org/Graphics/SVG/1.1/DTD/svg11.dtd">
<!-- Creator: CorelDRAW 2018 (64-Bit) -->
<svg xmlns="http://www.w3.org/2000/svg" xml:space="preserve" width="35px" height="55px" version="1.1" style="shape-rendering:geometricPrecision; text-rendering:geometricPrecision; image-rendering:optimizeQuality; fill-rule:evenodd; clip-rule:evenodd"
viewBox="0 0 35 55"
 xmlns:xlink="http://www.w3.org/1999/xlink">
 <defs>
  <style type="text/css">
   <![CDATA[
    .fil0 {fill:white}
   ]]>
  </style>
 </defs>
 <g id="Layer_x0020_1">
  <metadata id="CorelCorpID_0Corel-Layer"/>
  <path class="fil0" d="M22.27 4.3l5.39 -0.93c0.67,-0.11 1.3,0.34 1.42,1.01l0.83 5.5 4.9 2.4c0.61,0.3 0.86,1.03 0.56,1.64l-2.56 4.94 2.55 4.82c0.31,0.6 0.08,1.34 -0.52,1.66l-4.98 2.48 -0.78 5.4c-0.09,0.67 -0.72,1.14 -1.4,1.04l-2.32 -0.38 0 20.05c0,0.28 -0.11,0.55 -0.31,0.76 -0.42,0.42 -1.1,0.42 -1.52,0l-6.08 -6.09 -5.92 6.01c-0.2,0.23 -0.49,0.38 -0.82,0.38 -0.59,0 -1.07,-0.48 -1.07,-1.07l0 -20.06 -2.3 0.4c-0.67,0.11 -1.3,-0.34 -1.42,-1.01l-0.83 -5.5 -4.9 -2.4c-0.61,-0.3 -0.86,-1.03 -0.56,-1.64l2.56 -4.94 -2.55 -4.82c-0.31,-0.6 -0.08,-1.34 0.52,-1.66l4.98 -2.48 0.78 -5.4c0.09,-0.67 0.72,-1.13 1.4,-1.04l5.49 0.91 3.81 -3.91c0.47,-0.48 1.25,-0.5 1.74,-0.02l3.91 3.95zm-4.77 9.63c2.7,0 4.88,2.19 4.88,4.89 0,2.69 -2.18,4.88 -4.88,4.88 -2.7,0 -4.88,-2.19 -4.88,-4.88 0,-2.7 2.18,-4.89 4.88,-4.89z"/>
 </g>
</svg>
