<?xml version="1.0" encoding="UTF-8"?>
<!DOCTYPE svg PUBLIC "-//W3C//DTD SVG 1.1//EN" "http://www.w3.org/Graphics/SVG/1.1/DTD/svg11.dtd">
<!-- Creator: CorelDRAW 2018 (64-Bit) -->
<svg xmlns="http://www.w3.org/2000/svg" xml:space="preserve" width="155px" height="30px" version="1.1" style="shape-rendering:geometricPrecision; text-rendering:geometricPrecision; image-rendering:optimizeQuality; fill-rule:evenodd; clip-rule:evenodd"
viewBox="0 0 155 30"
 xmlns:xlink="http://www.w3.org/1999/xlink">
 <defs>
  <style type="text/css">
   <![CDATA[
    .fil0 {fill:#727272}
   ]]>
  </style>
 </defs>
 <g id="Layer_x0020_1">
  <metadata id="CorelCorpID_0Corel-Layer"/>
  <g id="_2042326883936">
   <path class="fil0" d="M82.01 14.56c3.17,-0.7 4.41,1.64 4.55,4.43 0.13,2.75 -0.2,5.71 -2.75,6.24 -2.99,0.63 -4.7,-1.22 -4.69,-4.38 0.01,-3.18 -0.15,-5.62 2.89,-6.29zm-8.75 14.96l5.49 0 0.04 -2.61c0.86,1.31 1.9,2.38 3.95,2.81 1.89,0.4 4.17,0.14 5.73,-0.75 3.06,-1.73 3.98,-5.28 3.98,-9.75 -0.06,-5.03 -2.53,-9.39 -7.58,-9.39 -2.48,0 -4.43,0.69 -5.74,2.75l-0.01 -12.53c-1.31,0.22 -2.77,0.26 -4.1,0.38 -1.31,0.11 -1.66,-0.04 -1.79,0.45 0,0 -0.1,27.45 0.03,28.64z"/>
   <path class="fil0" d="M136.84 0.58l-0.03 28.94 5.86 0 0.01 -9.09c0.49,0.32 2.7,4.07 3.01,4.54 0.99,1.53 1.92,2.97 2.88,4.53l6.21 0.02c-0.09,-0.38 -1.2,-1.99 -1.49,-2.42l-3.08 -4.81c-0.43,-0.7 -1.23,-1.73 -1.59,-2.49 0.28,-0.65 3.73,-5.93 4.43,-7.08l1.5 -2.47 -6.02 -0.02c-0.32,0.09 -0.61,0.74 -0.79,1.01l-3.53 5.63c-0.24,0.36 -0.52,0.76 -0.73,1.12 -0.27,0.46 -0.39,0.77 -0.77,1.12l-0.03 -19 -5.84 0.47z"/>
   <path class="fil0" d="M23.83 14.58c3.19,-0.72 4.4,1.39 4.58,4.18 0.18,2.92 -0.09,5.78 -2.6,6.44 -1.51,0.39 -2.79,-0.1 -3.54,-0.88 -1.5,-1.57 -1.48,-5.54 -0.79,-7.51 0.46,-1.3 1.1,-1.94 2.35,-2.23zm4.84 12.35l0.02 2.56 5.6 0.03 0.02 -19.28 -5.59 0 -0.04 2.6c-0.5,-0.37 -1.11,-2.2 -3.81,-2.84 -1.76,-0.42 -4.18,-0.08 -5.57,0.69 -1.28,0.71 -2.5,2.05 -3.09,3.52 -0.74,1.81 -0.99,3.46 -0.99,5.59 0,4.13 1.13,7.67 3.99,9.2 2.6,1.38 6.97,1.5 8.99,-1.52l0.4 -0.48c0.01,-0.02 0.05,-0.05 0.07,-0.07z"/>
   <path class="fil0" d="M58.56 18.07c0.01,-2.24 1.15,-4.22 3.36,-4.22l0.58 0c2.3,0 3.09,2 3.16,4.22l-7.1 0zm11.78 10.41l-1.04 -3.9c-0.78,0.02 -10.34,3.92 -10.74,-2.63l12.21 0c0.33,-2.1 -0.02,-6.14 -0.77,-7.79 -0.95,-2.05 -2.41,-3.31 -4.76,-3.94 -2.42,-0.64 -5.35,-0.5 -7.55,0.37 -2.17,0.85 -3.46,2.19 -4.31,4.39 -0.78,2.02 -0.86,5.65 -0.48,7.9 0.94,5.56 5.13,7.26 10.3,7.11 2.14,-0.06 5.66,-0.5 7.14,-1.51z"/>
   <path class="fil0" d="M103.15 14.59c3.01,-0.67 4.58,1.55 4.57,4.4 0,2.18 0.28,5.6 -2.91,6.26 -5.76,1.2 -4.8,-7.2 -4.21,-8.62 0.5,-1.2 1.35,-1.77 2.55,-2.04zm0.63 15.33c6.72,-0.01 9.78,-3.74 9.77,-10.23 -0.01,-6.33 -3.4,-9.85 -9.66,-9.86 -12.13,-0.01 -10.52,13.88 -7.17,17.38 1.56,1.64 3.97,2.72 7.06,2.71z"/>
   <path class="fil0" d="M121.32 21.43l0 -2.9c0,-4.94 6.3,-5.52 7.36,-1.13 0.36,1.52 0.27,4.62 -0.32,5.88 -1.7,3.64 -7.04,2.31 -7.04,-1.85zm2.57 -11.55c-2.67,0.38 -4.84,0.83 -6.56,3.18 -2.73,3.73 -2.59,11.7 1.07,14.73 4.42,3.66 17.19,3.85 16.22,-9.04 -0.24,-3.11 -1.25,-5.35 -2.98,-6.87 -1.64,-1.44 -4.83,-2.4 -7.75,-2z"/>
   <path class="fil0" d="M4.11 10.23l-3.89 0 0 4.76 3.89 0 0.06 14.53 5.88 0 0.01 -14.53 4.28 -0.01 0.31 -2.31c0.08,-0.85 0.13,-1.62 0.24,-2.44l-4.76 0c-0.26,-0.97 -0.14,-4.19 0.34,-4.77 0.79,-0.96 2.97,-0.77 4.43,-0.79l0.05 -4.41c-1.37,-0.29 -3.62,-0.32 -4.97,-0.17 -7.53,0.89 -5.34,7.76 -5.87,10.14z"/>
   <path class="fil0" d="M51.96 28.62l-1.27 -4.11c-1.3,0.26 -3.51,1.57 -5.91,0.49 -1.85,-0.84 -2.51,-2.37 -2.5,-4.97 0.01,-2.53 0.43,-4.29 2.21,-5.13 1.4,-0.65 3.24,-0.57 4.79,-0.09 0.46,0.15 1,0.4 1.45,0.51l1.34 -4.24c-2.06,-0.76 -2.59,-1.21 -5.45,-1.25 -6.88,-0.09 -10.17,3.17 -10.16,9.97 0,3.75 0.86,7.32 4.39,9.01 3.05,1.46 9.21,1.52 11.11,-0.19z"/>
  </g>
 </g>
</svg>
