<?xml version="1.0" encoding="UTF-8"?>
<!DOCTYPE svg PUBLIC "-//W3C//DTD SVG 1.1//EN" "http://www.w3.org/Graphics/SVG/1.1/DTD/svg11.dtd">
<!-- Creator: CorelDRAW 2018 (64-Bit) -->
<svg xmlns="http://www.w3.org/2000/svg" xml:space="preserve" width="155px" height="39px" version="1.1" style="shape-rendering:geometricPrecision; text-rendering:geometricPrecision; image-rendering:optimizeQuality; fill-rule:evenodd; clip-rule:evenodd"
viewBox="0 0 155 39"
 xmlns:xlink="http://www.w3.org/1999/xlink">
 <defs>
  <style type="text/css">
   <![CDATA[
    .str0 {stroke:#727272;stroke-miterlimit:22.9256}
    .fil0 {fill:#727272}
   ]]>
  </style>
 </defs>
 <g id="Layer_x0020_1">
  <metadata id="CorelCorpID_0Corel-Layer"/>
  <g id="_2042329771728">
   <path class="fil0 str0" d="M16.49 15.2c0,2.38 0.51,4.08 1.35,6.11 0.43,1.02 1.09,1.97 1.72,2.85l1.38 1.51c1.11,1.11 1.33,1.2 2.52,2.06l1.75 0.96c2.98,1.4 6.6,1.83 9.92,1.12 0.83,-0.17 1.87,-0.47 2.54,-0.79 0.84,-0.41 1.46,-0.66 2.18,-1.16l1.92 -1.59c0.02,-0.02 0.04,-0.03 0.05,-0.04l0.35 -0.36c0.01,-0.01 0.03,-0.03 0.04,-0.04 0.01,-0.02 0.03,-0.04 0.04,-0.05 0.01,-0.02 0.06,-0.08 0.08,-0.1 0.95,-1.12 1.56,-1.86 2.16,-3.37 0.91,-2.3 1.4,-5.28 1,-7.94 -0.04,-0.28 0.01,-0.49 -0.3,-0.49l-13.34 0c-0.2,0 -0.26,0.06 -0.26,0.26l0 3.69c0,0.34 0.23,0.21 1.09,0.21 1.07,0 8.43,0.06 8.65,-0.03 0,1.17 -0.71,2.96 -1.18,3.74 -0.17,0.29 -0.32,0.45 -0.5,0.72 -0.21,0.31 -0.32,0.39 -0.58,0.66 -3.38,3.41 -9.44,3.79 -13.55,0.95 -0.13,-0.08 -0.24,-0.17 -0.35,-0.27l-0.32 -0.29c-0.54,-0.38 -0.89,-0.76 -1.25,-1.26 -0.32,-0.44 -0.42,-0.44 -0.97,-1.26 -0.3,-0.46 -0.59,-1.06 -0.82,-1.64 -2.08,-5.19 0.06,-11.16 4.52,-13.55 1.77,-0.94 3.36,-1.42 5.43,-1.42 1.07,0 1.57,0.09 2.44,0.3 0.02,0.01 0.12,0.03 0.21,0.05 2.57,0.63 3.13,1.54 4.64,2.55l2.83 -2.87c-0.28,-0.41 -0.54,-0.54 -0.88,-0.84l-2.01 -1.41c-0.41,-0.22 -0.69,-0.42 -1.15,-0.61 -0.86,-0.37 -1.56,-0.67 -2.53,-0.89 -5.45,-1.24 -10.6,0.29 -14.45,4.14 -0.61,0.61 -1.23,1.27 -1.7,1.99 -1.72,2.6 -2.67,5.19 -2.67,8.4z"/>
   <path class="fil0 str0" d="M102.43 26.26c-1.94,0 -2.89,-0.42 -4.15,-1.73 -1.93,-2 -1.94,-5.64 -0.08,-7.94 2.27,-2.82 7.18,-2.52 8.64,1.66 1.37,3.92 -1.04,8.01 -4.41,8.01zm-9.92 -5.71c0,1.32 0.38,2.87 0.79,3.78 0.53,1.19 0.78,1.57 1.55,2.49 0.14,0.16 0.13,0.18 0.27,0.34 2.45,2.8 7.32,4.16 10.82,1.65 0.36,-0.26 0.59,-0.63 0.96,-0.88 0,0.47 0,0.94 0,1.41 0,1.03 0.04,0.49 -0.1,1.34 -0.11,0.6 0.02,0.26 -0.24,1.04 -0.25,0.77 -0.54,1.27 -1.08,1.81 -1.78,1.78 -4.85,1.77 -6.79,0.25 -0.52,-0.4 -1.46,-1.56 -1.62,-2.25l-3.77 1.5c0.17,0.72 1.04,1.89 1.51,2.52 0.08,0.1 0.02,0.04 0.12,0.14l0.49 0.49c0.01,0.01 0.03,0.03 0.04,0.04l0.36 0.34c0.17,0.14 0.31,0.25 0.5,0.38 0.66,0.48 1.43,0.94 2.21,1.21 2,0.72 3.75,0.74 5.83,0.33 0.86,-0.18 1.63,-0.53 2.4,-0.94 2.84,-1.55 4.05,-4.82 4.21,-7.92 0.02,-0.29 0.06,-0.16 0.06,-0.46l0 -17.48c0,-0.2 -0.06,-0.26 -0.27,-0.26l-3.6 0c-0.33,0 -0.27,0.28 -0.27,0.61 0.01,0.32 0.01,0.65 0.01,0.97l-0.91 -0.75c-2.87,-2.16 -6.8,-1.6 -9.61,0.5 -2.4,1.8 -3.87,4.73 -3.87,7.8z"/>
   <path class="fil0 str0" d="M74.66 20.55c0,-1.62 0.67,-3.11 1.43,-4.01 1.24,-1.46 3.59,-2.19 5.5,-1.6 3.11,0.97 4.72,4.61 3.45,7.84 -0.23,0.61 -0.61,1.28 -1.01,1.71 -0.44,0.47 -0.9,0.9 -1.53,1.19l-0.41 0.2c-1.68,0.88 -4.67,0.27 -5.99,-1.41 -0.27,-0.34 -0.61,-0.81 -0.79,-1.22l-0.14 -0.33c-0.26,-0.56 -0.51,-1.61 -0.51,-2.37zm-4.21 -0.79c0,1.42 -0.08,2.02 0.32,3.46 0.4,1.47 1.09,2.58 2.02,3.69 0.25,0.29 0.24,0.34 0.55,0.59l0.14 0.12c1.07,0.9 0.91,0.78 2.18,1.52l0.34 0.16c0.48,0.16 1.04,0.4 1.66,0.55 2.1,0.52 4.66,0.35 6.57,-0.6 1.01,-0.5 2.36,-1.38 3.06,-2.21 0.1,-0.12 0.16,-0.22 0.26,-0.35 2.33,-2.94 2.85,-6.53 1.41,-10.08 -0.37,-0.9 -0.96,-1.79 -1.59,-2.54 -0.04,-0.04 -0.08,-0.09 -0.12,-0.14 -0.02,-0.01 -0.03,-0.03 -0.05,-0.04l-0.13 -0.13c-1.46,-1.34 -1.8,-1.52 -3.59,-2.3l-0.94 -0.28c-2.09,-0.53 -4.69,-0.34 -6.66,0.58l-1.84 1.14c-0.81,0.69 -1.17,1.01 -1.81,1.88 -0.35,0.46 -0.6,0.88 -0.85,1.43 -0.5,1.11 -0.93,2.28 -0.93,3.55z"/>
   <path class="fil0 str0" d="M57.68 14.76c1.51,0 2.53,0.18 3.65,1.18 0.45,0.4 0.21,0.03 0.63,0.6l0.45 0.52c0.19,0.29 0.31,0.53 0.45,0.86 0.67,1.49 0.74,3.61 0.06,5.07 -0.15,0.32 -0.27,0.56 -0.46,0.85 -0.13,0.19 -0.13,0.19 -0.27,0.35 -0.09,0.11 -0.08,0.09 -0.16,0.19 -0.09,0.1 -0.07,0.09 -0.16,0.19 -0.11,0.12 -0.19,0.2 -0.31,0.31l-0.23 0.2c-0.02,0.02 -0.04,0.03 -0.05,0.04 -0.01,0.02 -0.03,0.03 -0.05,0.04 -1.74,1.48 -4.61,1.47 -6.37,0.07 -0.13,-0.11 -0.2,-0.18 -0.33,-0.3 -0.11,-0.09 -0.08,-0.06 -0.18,-0.16 -0.44,-0.42 -0.94,-1.1 -1.19,-1.72 -0.62,-1.55 -0.69,-3.42 -0.06,-4.97 0.25,-0.61 0.61,-1.15 1.01,-1.63 0.74,-0.89 2.3,-1.69 3.57,-1.69zm-9.3 5.36c0,3.01 0.72,5.16 2.78,7.22 0.64,0.64 1.14,1.03 1.92,1.51 0.26,0.16 0.5,0.24 0.76,0.38 0.42,0.23 1.14,0.47 1.68,0.6 2.1,0.52 4.62,0.4 6.58,-0.55 0.28,-0.14 0.51,-0.25 0.76,-0.38l0.5 -0.29c1.32,-0.84 2.42,-2.05 3.17,-3.42l0.84 -2.14c0.58,-2.27 0.38,-4.58 -0.57,-6.7l-0.84 -1.44c-0.18,-0.23 -0.31,-0.43 -0.49,-0.65 -0.72,-0.85 -1.6,-1.54 -2.55,-2.11 -0.35,-0.21 -0.44,-0.23 -0.82,-0.41 -3.47,-1.61 -7.68,-0.97 -10.63,1.63 -0.83,0.73 -1.25,1.25 -1.83,2.21 -0.67,1.12 -1.26,3.03 -1.26,4.54z"/>
   <path class="fil0 str0" d="M124.99 19.89c0,-2.02 0.87,-3.89 2.65,-4.81l0.31 -0.15c2.59,-1.29 5.36,0.25 5.47,1.53 -0.47,0.11 -2.65,1.11 -3.4,1.36l-5.03 2.07zm5.01 10.01c2.4,0 3.42,-0.34 5.24,-1.34 1.2,-0.67 2.35,-1.86 3.09,-2.96l-3.33 -2.2c-0.47,0.7 -0.99,1.27 -1.67,1.76 -1.62,1.17 -4.38,1.2 -6.06,0 -0.68,-0.49 -1.17,-1.17 -1.57,-1.93 0.45,-0.25 1,-0.45 1.52,-0.67l9.7 -4c0.48,-0.2 1.13,-0.45 1.59,-0.69 -1.94,-5.7 -6.46,-9.45 -12.81,-6.24 -2.62,1.31 -4.32,3.89 -4.82,6.78 -0.52,3.02 0.33,6.66 2.59,8.71 0.9,0.8 1.47,1.39 2.73,1.93 1.07,0.46 2.31,0.85 3.8,0.85z"/>
   <path class="fil0 str0" d="M113.77 1.59l0 27.92 4.22 0 0 -27.92c0,-0.21 -0.07,-0.27 -0.27,-0.27l-3.68 0c-0.21,0 -0.27,0.06 -0.27,0.27z"/>
  </g>
 </g>
</svg>
