<?xml version="1.0" encoding="UTF-8"?>
<!DOCTYPE svg PUBLIC "-//W3C//DTD SVG 1.1//EN" "http://www.w3.org/Graphics/SVG/1.1/DTD/svg11.dtd">
<!-- Creator: CorelDRAW 2018 (64-Bit) -->
<svg xmlns="http://www.w3.org/2000/svg" xml:space="preserve" width="155px" height="43px" version="1.1" style="shape-rendering:geometricPrecision; text-rendering:geometricPrecision; image-rendering:optimizeQuality; fill-rule:evenodd; clip-rule:evenodd"
viewBox="0 0 155 43"
 xmlns:xlink="http://www.w3.org/1999/xlink">
 <defs>
  <style type="text/css">
   <![CDATA[
    .str0 {stroke:#727272;stroke-miterlimit:22.9256}
    .fil0 {fill:#727272}
   ]]>
  </style>
 </defs>
 <g id="Layer_x0020_1">
  <metadata id="CorelCorpID_0Corel-Layer"/>
  <g id="_2042329760528">
   <path class="fil0 str0" d="M85.58 41.23c-2.1,0 -2.22,-0.86 -2.22,-2.53 0,-2.03 2.26,-4.45 3.53,-5.98 0.42,-0.5 1.2,-1.29 1.7,-1.63 0,2.37 0.02,4.19 -0.32,6.18 -0.23,1.4 -0.79,3.96 -2.69,3.96zm67.95 -18.48l0 1.16c-0.11,1.36 -0.59,2.82 -1.33,3.8 -0.58,0.76 -1.31,1.39 -2.48,1.48 -2.44,0.21 -3.89,-1.48 -4.61,-3.46 -1.07,-2.94 -0.77,-7.79 -0.77,-11.11l-0.63 1.43c-1.46,3.67 -2.22,6.88 -2.22,11.08 -0.57,0.39 -0.66,0.68 -1.74,0.65 -0.76,-0.02 -1.31,-0.27 -1.71,-0.68 -0.83,-0.83 -1.02,-2.05 -1.23,-3.52 -0.41,-2.8 -0.46,-5.91 -0.7,-8.8 -0.72,0.52 -1.65,3.21 -1.97,4.36 -0.51,1.81 -0.71,3.39 -0.91,5.28 -0.21,2.02 0.48,4.62 -1.4,4.78 -1.02,0.08 -2.13,-0.03 -2.78,-0.39 -0.72,-0.39 -0.7,-1.45 -0.7,-2.31l-0.38 0.58c-2.19,3.84 -7.09,1.98 -7.39,-1.53 -0.12,0.15 -0.13,0.16 -0.28,0.35 -0.09,0.13 -0.13,0.19 -0.19,0.28 -2.07,2.89 -6.06,4.52 -8.67,1.39l-0.83 -1.23c-0.18,0.66 -0.96,1.6 -1.49,2 -0.66,0.5 -1.45,0.94 -2.62,0.85 -1.9,-0.14 -3.26,-1.52 -3.97,-2.85 -2.18,-4.16 -0.16,-9.86 -0.16,-11.88l-3.01 0.16c-0.07,0.8 -0.94,2.67 -1.27,3.32 -1,2.01 -2.04,4.02 -3.29,5.9 -1.06,1.59 -2.58,2.8 -2.58,4.23 -0.01,2.12 0.17,4.77 -0.1,6.72 -0.4,2.92 -0.79,4.89 -2.46,6.56 -3.95,3.96 -11.41,0.76 -9.04,-4.76 0.45,-1.07 1.09,-1.99 1.83,-2.76 0.43,-0.46 0.57,-0.74 1.03,-1.19l2.37 -2.22c2.1,-2.12 2.58,-1.32 2.58,-4.08 -1.11,1.28 -2.42,2.8 -4.75,2.86 -1.91,0.06 -4.11,-1.04 -4.6,-2.86l-0.31 0c-0.41,1.73 -2.43,3.01 -4.27,2.85 -2.47,-0.2 -3,-2.12 -3.65,-3.48 -0.43,0.31 -0.62,0.84 -1.07,1.31 -4.02,4.14 -8.47,2.02 -9.55,-2.58l-0.47 0.95c-3.61,7.14 -9.21,3.3 -9.35,-3.01l-0.58 1c-1.98,4.05 -5.07,6.34 -9.86,5.8 -2.75,-0.3 -5.19,-1.63 -2.78,-4.02 1.37,-1.35 2.33,0.74 3.76,1 1.09,0.19 1.67,-0.14 2.02,-0.77 0.3,-0.53 0.49,-1.72 0.25,-2.63 -0.38,-1.41 -1.53,-2.38 -2.51,-3.35l-1.54 -1.3c-0.21,0.88 -3.16,5.48 -3.68,6.3 -0.38,0.62 -0.56,0.93 -1.01,1.53 -2.06,2.72 -5.72,5.32 -7,1.16 -1.16,-3.73 -0.19,-9.96 -0.19,-13.91 -1.81,1.22 -3.5,5.08 -4.22,7.19 -0.76,2.23 -1.44,4.36 -1.83,6.73 -0.18,1.12 0.02,1.14 -0.61,2.08 -2.58,0 -3.27,0.04 -3.6,-2.25 -0.27,-1.83 -0.04,-9.27 -0.04,-11.69 0,-2.25 -0.31,-4.21 0.48,-5.38 1.44,0 2.46,0.37 3.32,0.95l0 8.71 0.42 -0.85c4.8,-14.43 10.1,-6.92 10.19,-6.27 0.19,1.45 -0.16,3.15 -0.16,4.42l0 6.82c0.04,0.75 0.06,1.34 0.64,1.58 1.22,0.51 4.85,-6.83 5.54,-8.08l0.32 -0.47c-0.91,-1.36 -1.57,-2.18 -0.77,-4.26 0.48,-1.25 1.5,-2.39 2.95,-2.75 4.46,-1.12 3.07,3.2 1.56,5.2 -0.26,0.34 -0.35,0.38 -0.57,0.7 0.77,0.51 1.44,1.04 2.19,1.61 0.68,0.5 1.46,1.01 2.05,1.59 1.63,1.62 2.1,2.05 2.1,5.2 1.55,-1.04 3,-4.03 3.01,-6.02 0.03,-2.95 0,-5.92 0,-8.87 -1.5,0 -3.36,0.13 -4.6,-0.16 -0.31,-1.34 0.03,-2.11 0.63,-3.01l4.28 0.16 0.16 -4.28c0.08,-1.99 0.43,-2.08 2.28,-1.65 1.88,0.44 2.24,0.45 2.16,1.96 -0.06,1.21 -0.16,2.94 -0.16,4.12 1.42,0 5,0.07 5.86,0.48 0,0.79 0.03,1.42 -0.28,1.94 -0.32,0.55 -0.65,0.59 -1.46,0.6 -1.36,0.02 -2.76,0 -4.12,0 0,0.91 -0.17,1.2 -0.16,2.21 0.01,3.41 -0.48,8.33 -0.14,11.55 0.66,6.25 4.27,1.74 4.96,-1.5 0.37,-1.74 -0.07,-3.63 1.13,-7.1 0.62,-1.77 2.13,-3.88 3.73,-4.52 3.41,-1.36 4.54,0.96 5.68,1.73 0,-1.14 0.04,-0.77 0.48,-1.43 1.77,0 2.41,0.24 3.48,0.96 0,3.6 -0.44,9.01 -0.04,12.08 0.13,1 0.16,1.95 0.52,2.65 0.93,1.82 2.52,0.62 3.24,-1.36 0.62,-1.75 -1.28,-7.34 2.23,-12.49 1.42,-2.08 4.01,-3.23 6.36,-1.95 0.77,0.42 0.97,0.94 1.63,1.38 0.18,-2.16 3,-1.07 4.12,-0.31 0,4.49 -0.16,8.47 -0.16,12.98 0.56,-0.4 1.08,-1.47 1.42,-2.06 0.72,-1.24 3.34,-6.35 3.02,-7.44 -0.57,-0.84 -1.19,-0.9 -1.12,-2.53 0.03,-0.9 0.64,-2.08 1.18,-2.48 0.68,-0.5 1.95,-0.77 2.83,-0.26 0.93,0.55 0.75,1.38 0.75,2.74 1.78,-0.04 4.65,-1.44 5.99,-0.29 1.28,1.1 0.09,4.26 -0.2,5.76 -1.56,8.31 1.9,11.19 3.45,7.88 0.51,-1.09 0.41,-1.65 0.22,-3.01 -0.57,-4.08 0.62,-11.61 5.23,-12.76 2.5,-0.63 3.86,0.69 4.95,1.94 0,-2.69 3.94,-1.18 4.11,0.01 0.13,0.83 -0.57,10.11 0.1,13.36 0.49,2.36 2.11,2.37 3.35,-0.11 1.04,-2.11 1,-2.98 1,-5.97 0,-2.27 0.01,-4.55 -0.01,-6.81 0,-1.26 -0.11,-2.32 1.23,-2.19 0.64,0.06 2.25,0.26 2.59,0.9 0.36,0.68 0.15,5.41 0.15,6.67 0.11,-0.17 0.02,0.02 0.16,-0.3l0.73 -2.13c1.17,-3.53 1.48,-5.78 4.27,-4.95 1.96,0.57 2.3,1.77 2.28,4.21 0,1 -0.05,4.44 0.22,5.49l0.26 0.53c0,-2.36 1.67,-6.75 2.39,-8.69 0.7,-1.88 1.3,-2.07 3.37,-1.35 1.93,0.67 2.22,1.15 2.16,3.06 -0.03,0.95 0.03,1.93 0,2.87 -0.03,0.88 -0.16,1.43 -0.16,2.53 0,1.46 0.09,3.94 0.33,5.21 0.11,0.59 0.47,1.7 0.76,2.09 0.44,0.57 1.32,0.69 1.86,0.09 0.73,-0.82 0.89,-2.95 1.48,-4.06 0.81,0 1.04,0.02 1.11,0.68zm-86.96 3.91c-2.61,0 -2.53,-5.28 -2.53,-6.97 0,-8.95 6.02,-8.69 6.02,-2.69 0,2.92 0.12,6.37 -1.79,8.67 -0.35,0.41 -1.03,0.99 -1.7,0.99zm17.9 0c-3.48,0 -3.28,-13.94 1.11,-13.94 1,0 1.6,0.5 1.95,1.21 1.2,2.46 0.93,12.73 -3.06,12.73zm31.84 0c-2.44,0 -2.83,-4.77 -2.56,-7.15 0.09,-0.83 0.07,-1.48 0.17,-2.21 0.85,-6.12 5.87,-6.47 5.87,0.65 0,2.77 -0.24,5.48 -1.73,7.61 -0.27,0.38 -1.18,1.1 -1.75,1.1zm-28.2 -15.21l0 0z"/>
   <path class="fil0 str0" d="M1.47 11.14c0,1.78 0.28,3.14 1.46,4.39 0.66,0.71 1.89,1.94 3.13,1.94 1.36,0 -0.05,-1.84 -0.27,-2.27 -2.66,-5.25 3.04,-14.23 3.43,-12.16 0.29,1.53 -0.15,6.63 -0.15,8.41 -0.01,3.36 0.32,16.17 -0.57,19.07 -0.27,0.87 -0.55,1.34 -0.38,2.16 1.12,0 1.15,-0.07 1.84,-0.54 3.15,-2.14 3.34,-5.63 3.38,-9.13 0.01,-0.93 0.17,-1.3 0.17,-2.37l0 -18.37c0,-1.64 -1.85,-2.38 -3.33,-2.38 -1.92,0 -4.67,2.76 -5.81,4.16 -1.15,1.42 -2.9,4.62 -2.9,7.09z"/>
  </g>
 </g>
</svg>
