<?xml version="1.0" encoding="UTF-8"?>
<!DOCTYPE svg PUBLIC "-//W3C//DTD SVG 1.1//EN" "http://www.w3.org/Graphics/SVG/1.1/DTD/svg11.dtd">
<!-- Creator: CorelDRAW 2018 (64-Bit) -->
<svg xmlns="http://www.w3.org/2000/svg" xml:space="preserve" width="155px" height="30px" version="1.1" style="shape-rendering:geometricPrecision; text-rendering:geometricPrecision; image-rendering:optimizeQuality; fill-rule:evenodd; clip-rule:evenodd"
viewBox="0 0 155 30"
 xmlns:xlink="http://www.w3.org/1999/xlink">
 <defs>
  <style type="text/css">
   <![CDATA[
    .str0 {stroke:#727272;stroke-miterlimit:22.9256}
    .fil0 {fill:#727272}
   ]]>
  </style>
 </defs>
 <g id="Layer_x0020_1">
  <metadata id="CorelCorpID_0Corel-Layer"/>
  <g id="_2042319733936">
   <path class="fil0 str0" d="M4.64 7.84c0,-0.41 0.26,-0.03 0.1,0 0,0 -0.1,0.45 -0.1,0zm10.39 14.7c-0.39,-1.68 -5.91,-15.53 -7.03,-18.06l-0.6 -1.63c-0.02,-0.04 -0.04,-0.08 -0.05,-0.11 -0.3,-0.63 -0.21,-0.65 -0.63,-0.65l-6.07 0c-0.37,0 -0.48,0.11 -0.48,0.48l0 26.53c0,0.36 0.11,0.48 0.48,0.48l4.15 0 0 -21.26c0.02,0.03 0.05,0.05 0.05,0.11 0.01,0.08 0.09,0.18 0.1,0.22 0.02,0.04 0.13,0.35 0.13,0.35l1.05 2.7c0.15,0.51 -0.08,-0.02 0.2,0.52l6.17 14.94c0.16,0.45 0.35,0.79 0.56,1.35 0.5,1.3 0.21,1.07 2.93,1.07 0.76,0 0.82,-0.27 1.02,-0.9l1.65 -4.1c1.5,-3.45 2.95,-7.54 4.41,-10.93 0.5,-1.17 2.03,-4.56 2.03,-5.65l0.15 0c0,2.16 -0.15,3.74 -0.15,5.91l0 15.51 4.79 0 0 -27.49 -6.07 0c-0.6,0 -0.98,1.47 -1.33,2.35l-5.34 13.04c-0.37,0.93 -0.71,1.69 -1.02,2.65 -0.14,0.41 -0.3,0.88 -0.46,1.3 -0.21,0.53 -0.23,0.97 -0.64,1.27z"/>
   <path class="fil0 str0" d="M133.42 9.76l-2.87 0 0 3.83 3.35 0 0 15.83 4.63 0 0 -15.83 6.87 0c0,2.4 -0.26,11.06 0.34,12.77 0.08,0.22 0.27,0.75 0.4,1.04l1.16 1.4c0.03,0.02 0.06,0.05 0.09,0.07l1.05 0.55c1.4,0.61 3.26,0.56 4.78,0.3 0.7,-0.12 1.04,-0.33 1.61,-0.46l0 -3.84c-1.11,0.26 -4.19,1.96 -4.71,-1.85 -0.05,-0.39 -0.04,-0.23 -0.05,-0.66 0,-0.55 0.03,0.08 0.01,-0.35l-0.04 -8.97 4.79 0 0 -3.83 -4.63 0 0 -5.75c-1.38,0 -3.47,0.96 -4.8,1.27l0 4.48 -6.87 0c0,-1.92 -0.41,-5.75 2.56,-5.75 2.11,0 1.4,0.17 2.72,0.47l0 -4.15c-1.8,-0.15 -4.26,-0.92 -6.75,0.6 -5.09,3.12 -2.11,8.83 -3.64,8.83z"/>
   <path class="fil0 str0" d="M125.27 18.39c0,2.16 0.12,4.04 -1.11,5.76 -2.1,2.93 -9.27,2.79 -9.27,-4 0,-1.94 0.13,-3.38 1.14,-4.93 1.86,-2.86 6.59,-2.3 7.97,-0.35 0.52,0.73 1.27,2.6 1.27,3.52zm4.95 1.12c0,-1.46 -0.29,-3.44 -0.75,-4.53 -0.43,-1.02 -1.09,-2.25 -1.89,-3.05 -0.03,-0.02 -0.06,-0.06 -0.09,-0.08 -3.7,-3.54 -11.38,-3.81 -15.4,1.02 -1,1.21 -1.53,2.71 -1.86,4.22 -0.12,0.56 -0.22,1.85 -0.28,2.45 -0.24,2.46 0.88,5.61 2.58,7.6 1.68,1.96 4.84,2.84 7.45,2.8 2.68,-0.03 5.8,-0.85 7.46,-2.83 0.45,-0.52 0.74,-0.85 1.13,-1.43 1.08,-1.62 1.65,-4.01 1.65,-6.17z"/>
   <path class="fil0 str0" d="M77.5 20.15c0,-1.82 0.13,-3.43 1.21,-5.03 1.75,-2.57 6.42,-2.42 7.97,-0.16 2.28,3.35 1.64,10.94 -3.27,10.94 -1.76,0 -3.43,0.04 -4.73,-1.82 -0.65,-0.95 -1.18,-2.43 -1.18,-3.93zm-4.95 0l0.08 0.94c0.66,6.73 5.96,9.74 12.25,8.67 2.37,-0.4 4.11,-1.47 5.45,-3.01 4.46,-5.11 3.42,-17.47 -7.08,-17.47 -6.88,0 -10.7,3.92 -10.7,10.87z"/>
   <path class="fil0 str0" d="M103.38 23.98c0,3.42 -5.49,1.89 -7.12,0.89 -0.47,-0.29 -0.6,-0.43 -1.19,-0.57l0 4.48c3.59,1.72 10.31,1.86 12.58,-2.29 0.94,-1.71 1,-4.36 -0.32,-5.98 -2.1,-2.6 -7.62,-2.95 -7.62,-5.32 0,-3.16 5,-2.21 7.35,-0.64l0 -4.47c-2.85,-0.67 -1.69,-0.8 -5.27,-0.8 -1.17,0 -2.14,0.33 -3.02,0.66 -2.88,1.08 -4.48,4.23 -3.56,7.2 1.41,4.56 8.17,4.18 8.17,6.84z"/>
   <path class="fil0 str0" d="M42.03 20.15c0,7.03 5.86,11.07 12.88,9.52 1.13,-0.25 1.72,-0.68 2.62,-0.89l0 -4.48c-2.18,1.46 -4.35,2.24 -6.94,1.35 -1.93,-0.67 -3.45,-2.82 -3.45,-5.18 0,-1.32 -0.08,-2.7 0.49,-3.83 0.11,-0.23 0.08,-0.14 0.23,-0.41 0.34,-0.64 0.35,-0.76 0.91,-1.32 2,-2 5.53,-2.12 7.76,-0.64l1 0.6 0 -4.63c-3.23,-1.55 -8.15,-1.28 -11.25,0.89 -0.4,0.27 -1.21,0.9 -1.49,1.23 -1.83,2.15 -2.76,4.74 -2.76,7.79z"/>
   <path class="fil0 str0" d="M65.68 12.64l0 -2.88 -4.8 0 0 19.66c5.59,0 4.81,0.45 4.8,-1.92l0 -7.51c0,-2.07 -0.04,-2.8 0.74,-4.21 1.26,-2.27 3.48,-2.51 5.57,-1.44 0.19,0.1 0.4,0.57 0.4,-0.27 0,-5.09 0.61,-4.63 -2.56,-4.63 -2.13,0 -3.19,1.71 -3.95,2.92 -0.19,0.29 -0.06,0.11 -0.2,0.28z"/>
   <path class="fil0 str0" d="M34.36 10.24c0,0.08 -0.05,0.32 -0.05,0.34l0.05 18.84 4.63 0 0 -19.66 -4.63 0 0 0.48z"/>
   <path class="fil0 str0" d="M33.88 3.84c0,4.38 5.59,3.5 5.59,0.64 0,-4.54 -5.59,-3.33 -5.59,-0.64z"/>
  </g>
 </g>
</svg>
