<?xml version="1.0" encoding="UTF-8"?>
<!DOCTYPE svg PUBLIC "-//W3C//DTD SVG 1.1//EN" "http://www.w3.org/Graphics/SVG/1.1/DTD/svg11.dtd">
<!-- Creator: CorelDRAW 2018 (64-Bit) -->
<svg xmlns="http://www.w3.org/2000/svg" xml:space="preserve" width="70px" height="100px" version="1.1" style="shape-rendering:geometricPrecision; text-rendering:geometricPrecision; image-rendering:optimizeQuality; fill-rule:evenodd; clip-rule:evenodd"
viewBox="0 0 70 100"
 xmlns:xlink="http://www.w3.org/1999/xlink">
 <defs>
  <style type="text/css">
   <![CDATA[
    .fil0 {fill:url(#id0)}
   ]]>
  </style>
  <linearGradient id="id0" gradientUnits="userSpaceOnUse" x1="0.24" y1="0.81" x2="69.77" y2="99.51">
   <stop offset="0" style="stop-opacity:1; stop-color:#003B73"/>
   <stop offset="1" style="stop-opacity:1; stop-color:#0074B7"/>
  </linearGradient>
 </defs>
 <g id="Layer_x0020_1">
  <metadata id="CorelCorpID_0Corel-Layer"/>
  <path class="fil0" d="M58.44 0c-2.2,0 -45.38,0 -46.88,0 -6.46,0 -11.72,5.26 -11.72,11.72l0 76.56c0,6.46 5.26,11.72 11.72,11.72l46.88 0c6.46,0 11.72,-5.26 11.72,-11.72l0 -76.56c0,-6.46 -5.26,-11.72 -11.72,-11.72zm-39.57 16.71l32.26 0c2.2,0 4,1.8 4,4l0 14.95c0,2.2 -1.8,4 -4,4l-32.26 0c-2.2,0 -4,-1.8 -4,-4l0 -14.95c0,-2.2 1.8,-4 4,-4zm0 27.31l25.9 0c2.2,0 4,1.8 4,4l0 0c0,2.2 -1.8,4 -4,4l-25.9 0c-2.2,0 -4,-1.8 -4,-4l0 0c0,-2.2 1.8,-4 4,-4zm0 12.36l12.15 0c2.2,0 4,1.8 4,4l0 0c0,2.2 -1.8,4 -4,4l-12.15 0c-2.2,0 -4,-1.8 -4,-4l0 0c0,-2.2 1.8,-4 4,-4zm0 12.36l12.13 0c2.2,0 4,1.8 4,4l0 9.86c0,2.2 -1.8,4 -4,4l-12.13 0c-2.2,0 -4,-1.8 -4,-4l0 -9.86c0,-2.2 1.8,-4 4,-4zm23.58 0l8.68 0c2.2,0 4,1.8 4,4l0 0c0,2.2 -1.8,4 -4,4l-8.68 0c-2.2,0 -4,-1.8 -4,-4l0 0c0,-2.2 1.8,-4 4,-4zm0 9.86l8.68 0c2.2,0 4,1.8 4,4l0 0c0,2.2 -1.8,4 -4,4l-8.68 0c-2.2,0 -4,-1.8 -4,-4l0 0c0,-2.2 1.8,-4 4,-4zm19.89 9.68c0,2.16 -1.75,3.91 -3.9,3.91l-46.88 0c-2.15,0 -3.9,-1.75 -3.9,-3.91l0 -76.56c0,-2.16 1.75,-3.91 3.9,-3.91l6.96 0 0.81 2.42c0.54,1.59 2.03,2.66 3.71,2.66l23.92 0c1.68,0 3.17,-1.07 3.71,-2.66l0.81 -2.42 6.96 0c2.15,0 3.9,1.75 3.9,3.91l0 76.56z"/>
 </g>
</svg>
