<?xml version="1.0"?>
<svg xmlns="http://www.w3.org/2000/svg" xmlns:xlink="http://www.w3.org/1999/xlink" xmlns:svgjs="http://svgjs.com/svgjs" version="1.1" width="512" height="512" x="0" y="0" viewBox="0 0 512 512" style="enable-background:new 0 0 512 512" xml:space="preserve" class=""><g>
<linearGradient xmlns="http://www.w3.org/2000/svg" id="SVGID_1_" gradientUnits="userSpaceOnUse" x1="76" y1="258" x2="436" y2="258" gradientTransform="matrix(1 0 0 -1 0 514)"><stop stop-opacity="1" stop-color="#003b73" offset="0"/><stop stop-opacity="1" stop-color="#0074b7" offset="1"/></linearGradient>
<path xmlns="http://www.w3.org/2000/svg" style="fill:url(#SVGID_1_);" d="M376,0H136c-33.084,0-60,26.916-60,60v392c0,33.084,26.916,60,60,60h240  c33.084,0,60-26.916,60-60V60C436,26.916,409.084,0,376,0z M116,60c0-11.028,8.972-20,20-20h240c11.028,0,20,8.972,20,20v358  c0,11.028-8.972,20-20,20H136c-11.028,0-20-8.972-20-20V60z M231,86c0-13.807,11.193-25,25-25s25,11.193,25,25s-11.193,25-25,25  S231,99.807,231,86z" fill=""/>
<g xmlns="http://www.w3.org/2000/svg">
</g>
<g xmlns="http://www.w3.org/2000/svg">
</g>
<g xmlns="http://www.w3.org/2000/svg">
</g>
<g xmlns="http://www.w3.org/2000/svg">
</g>
<g xmlns="http://www.w3.org/2000/svg">
</g>
<g xmlns="http://www.w3.org/2000/svg">
</g>
<g xmlns="http://www.w3.org/2000/svg">
</g>
<g xmlns="http://www.w3.org/2000/svg">
</g>
<g xmlns="http://www.w3.org/2000/svg">
</g>
<g xmlns="http://www.w3.org/2000/svg">
</g>
<g xmlns="http://www.w3.org/2000/svg">
</g>
<g xmlns="http://www.w3.org/2000/svg">
</g>
<g xmlns="http://www.w3.org/2000/svg">
</g>
<g xmlns="http://www.w3.org/2000/svg">
</g>
<g xmlns="http://www.w3.org/2000/svg">
</g>
</g></svg>
