<svg width="209" height="200" viewBox="0 0 209 200" fill="none" xmlns="http://www.w3.org/2000/svg">
<path d="M27.9941 176.095V179.725H55.1685V176.095H27.9941Z" fill="#E0E0E0"/>
<path d="M31.7011 176.238C31.7928 176.238 31.87 177.001 31.87 177.942C31.87 178.883 31.7928 179.641 31.7011 179.641C31.6094 179.641 31.5273 178.878 31.5273 177.942C31.5273 177.006 31.6046 176.238 31.7011 176.238Z" fill="#FAFAFA"/>
<path d="M31.1084 176.166C31.2049 176.166 31.2773 176.929 31.2773 177.865C31.2773 178.801 31.2049 179.569 31.1084 179.569C31.0119 179.569 30.9395 178.806 30.9395 177.865C30.9395 176.924 31.0119 176.166 31.1084 176.166Z" fill="#FAFAFA"/>
<path d="M53.0693 176.238C53.1659 176.238 53.2431 177.001 53.2431 177.942C53.2431 178.883 53.1659 179.641 53.0693 179.641C52.9728 179.641 52.9004 178.878 52.9004 177.942C52.9004 177.006 52.9776 176.238 53.0693 176.238Z" fill="#FAFAFA"/>
<path d="M52.4804 176.166C52.5721 176.166 52.6493 176.929 52.6493 177.865C52.6493 178.801 52.5721 179.569 52.4804 179.569C52.3887 179.569 52.3066 178.806 52.3066 177.865C52.3066 176.924 52.3839 176.166 52.4804 176.166Z" fill="#FAFAFA"/>
<path d="M48.9283 178.015C48.9283 178.111 45.8151 178.184 41.9778 178.184C38.1406 178.184 35.0273 178.111 35.0273 178.015C35.0273 177.918 38.1406 177.846 41.9778 177.846C45.8151 177.846 48.9283 177.918 48.9283 178.015Z" fill="#FAFAFA"/>
<path d="M27.8789 192.438V199.697H55.0533V192.438H27.8789Z" fill="#E0E0E0"/>
<path d="M55.4006 197.654C55.4006 197.654 55.3572 197.688 55.2558 197.736C55.1544 197.784 55.0048 197.857 54.8021 197.944C54.2114 198.194 53.5922 198.371 52.9583 198.47C51.9426 198.654 50.8946 198.505 49.9705 198.045C49.3989 197.741 48.9115 197.3 48.5515 196.761C48.1383 196.148 47.9664 195.404 48.0688 194.671C48.1282 194.274 48.2951 193.9 48.5515 193.59C48.6888 193.42 48.8636 193.285 49.0621 193.195C49.2606 193.104 49.4774 193.061 49.6954 193.069C49.9198 193.087 50.138 193.151 50.3365 193.258C50.5349 193.364 50.7094 193.51 50.849 193.687C51.1462 194.037 51.3297 194.47 51.3751 194.927C51.4121 195.398 51.3477 195.871 51.1862 196.315C51.0246 196.759 50.7697 197.163 50.4387 197.5C49.751 198.227 48.8236 198.681 47.8275 198.779C46.8017 198.877 45.7668 198.749 44.7963 198.402C43.7591 198.078 42.8385 197.459 42.1464 196.621C41.7895 196.171 41.5744 195.625 41.5286 195.052C41.4997 194.755 41.5367 194.454 41.6367 194.172C41.7368 193.89 41.8976 193.634 42.1078 193.421C42.3378 193.2 42.639 193.068 42.9573 193.049C43.272 193.041 43.5818 193.128 43.8454 193.3C44.3548 193.634 44.7134 194.154 44.8446 194.748C44.9582 195.329 44.9192 195.929 44.7314 196.49C44.5436 197.051 44.2133 197.553 43.773 197.949C42.9103 198.677 41.839 199.113 40.7129 199.194C39.6456 199.316 38.5643 199.21 37.5417 198.88C36.538 198.564 35.6813 197.898 35.1284 197.002C34.8534 196.578 34.6829 196.094 34.6309 195.59C34.5789 195.087 34.6468 194.579 34.8291 194.106C34.9194 193.87 35.0681 193.66 35.2614 193.496C35.4546 193.332 35.6862 193.22 35.9344 193.17C36.1732 193.127 36.4183 193.134 36.6542 193.191C36.8901 193.247 37.1118 193.352 37.3052 193.498C37.644 193.796 37.8865 194.187 38.0017 194.623C38.1169 195.059 38.0996 195.519 37.952 195.945C37.6878 196.706 37.2123 197.376 36.5812 197.876C35.5359 198.762 34.224 199.271 32.855 199.324C32.0217 199.354 31.1916 199.208 30.4183 198.896C29.645 198.584 28.9458 198.113 28.3662 197.514C28.2501 197.395 28.1405 197.269 28.0379 197.138C28.0017 197.094 27.9694 197.047 27.9414 196.998C28.5152 197.631 29.2008 198.153 29.9638 198.537C30.8629 198.979 31.8594 199.185 32.8598 199.136C34.1806 199.061 35.4395 198.552 36.4413 197.688C37.0292 197.212 37.4709 196.579 37.7155 195.863C37.8434 195.49 37.858 195.088 37.7575 194.706C37.657 194.325 37.4459 193.982 37.1508 193.72C36.9886 193.6 36.8035 193.513 36.6068 193.467C36.41 193.42 36.2059 193.415 36.0069 193.45C35.805 193.492 35.6173 193.585 35.4618 193.72C35.3063 193.855 35.1881 194.028 35.1187 194.222C34.96 194.649 34.904 195.106 34.9552 195.558C35.0063 196.01 35.1632 196.444 35.4132 196.824C35.9314 197.651 36.7297 198.264 37.6624 198.552C38.6409 198.862 39.6741 198.961 40.6936 198.841C41.7474 198.763 42.7501 198.356 43.5607 197.678C43.9582 197.32 44.2562 196.865 44.4254 196.358C44.5946 195.85 44.6292 195.307 44.526 194.782C44.4172 194.272 44.1143 193.823 43.6813 193.532C43.486 193.388 43.2462 193.316 43.0037 193.33C42.7611 193.344 42.5312 193.443 42.354 193.609C42.1785 193.787 42.0442 194.001 41.9608 194.236C41.8774 194.471 41.8468 194.722 41.8713 194.97C41.912 195.477 42.1017 195.961 42.4167 196.361C43.0673 197.146 43.9302 197.727 44.9025 198.035C45.8292 198.369 46.8176 198.496 47.7985 198.407C48.7167 198.318 49.5728 197.904 50.2119 197.239C50.5165 196.934 50.7522 196.567 50.9029 196.163C51.0536 195.76 51.1159 195.328 51.0855 194.898C51.0692 194.507 50.921 194.134 50.665 193.838C50.409 193.543 50.0604 193.343 49.6761 193.271C49.4972 193.266 49.3194 193.301 49.1562 193.375C48.9931 193.448 48.849 193.558 48.7349 193.696C48.4995 193.971 48.3442 194.305 48.286 194.662C48.1873 195.337 48.3439 196.026 48.7252 196.592C49.0599 197.108 49.5156 197.534 50.0526 197.833C50.9444 198.29 51.9591 198.451 52.9486 198.291C53.5749 198.206 54.1899 198.052 54.7828 197.833C55.1882 197.731 55.3958 197.64 55.4006 197.654Z" fill="#FAFAFA"/>
<path d="M30.3066 179.824V192.422H55.0532V179.824H30.3066Z" fill="#EBEBEB"/>
<path d="M34.4179 180.26C34.5096 180.26 34.5868 182.987 34.5868 186.356C34.5868 189.725 34.5096 192.452 34.4179 192.452C34.3262 192.452 34.2441 189.725 34.2441 186.356C34.2441 182.987 34.3214 180.26 34.4179 180.26Z" fill="#E0E0E0"/>
<path d="M36.2968 180.1C36.3885 180.1 36.4657 182.798 36.4657 186.119C36.4657 189.439 36.3885 192.137 36.2968 192.137C36.2051 192.137 36.123 189.444 36.123 186.119C36.123 182.793 36.2003 180.1 36.2968 180.1Z" fill="#E0E0E0"/>
<path d="M52.2577 179.713C52.3495 179.713 52.4267 182.551 52.4267 186.055C52.4267 189.559 52.3495 192.393 52.2577 192.393C52.166 192.393 52.084 189.555 52.084 186.055C52.084 182.556 52.1612 179.713 52.2577 179.713Z" fill="#E0E0E0"/>
<path d="M50.0527 179.869C50.1444 179.869 50.2216 182.63 50.2216 186.042C50.2216 189.455 50.1444 192.216 50.0527 192.216C49.961 192.216 49.8789 189.455 49.8789 186.042C49.8789 182.63 49.9561 179.869 50.0527 179.869Z" fill="#E0E0E0"/>
<path d="M183.266 152.327C185.834 151 188.851 150.831 191.703 151.299C193.233 151.555 194.826 152.009 195.869 153.162C196.911 154.316 197.104 156.333 195.912 157.318C195.198 157.907 194.208 157.999 193.282 157.984C191.052 157.96 188.58 157.569 186.799 158.911C185.781 159.674 185.105 160.948 183.903 161.324C182.701 161.701 181.374 160.991 180.747 159.92C180.167 158.802 180.039 157.504 180.389 156.295C180.532 155.457 180.865 154.663 181.364 153.975C181.863 153.287 182.514 152.723 183.266 152.327Z" fill="#EBEBEB"/>
<path d="M177.386 140.979C178.955 143.219 182.005 142.476 183.419 141.11C184.834 139.744 185.432 137.76 185.973 135.868C187.218 131.553 188.468 127.021 187.546 122.623C187.325 121.29 186.739 120.043 185.852 119.023C185.404 118.52 184.831 118.143 184.192 117.929C183.553 117.716 182.869 117.673 182.208 117.806C180.673 118.217 179.717 119.737 179.027 121.151C176.993 125.381 175.927 130.011 175.904 134.705C175.904 136.886 176.155 139.174 177.386 140.979Z" fill="#EBEBEB"/>
<path d="M173.094 144.194C174.798 142.172 175.121 139.223 174.363 136.694C173.605 134.164 171.892 132.002 169.918 130.245C167.595 128.177 164.892 126.582 161.958 125.549C160.824 125.092 159.604 124.884 158.382 124.941C157.771 124.976 157.178 125.16 156.655 125.477C156.131 125.795 155.694 126.235 155.38 126.76C154.54 128.358 155.346 130.293 156.215 131.877C157.746 134.66 159.492 137.32 161.437 139.831C163.006 141.853 164.816 143.847 167.186 144.759C169.556 145.671 172.056 145.56 173.321 143.905" fill="#EBEBEB"/>
<path d="M177.281 174.776C177.364 174.443 177.412 174.101 177.426 173.758C177.498 173.019 177.585 172.088 177.696 170.983C177.834 169.613 178.042 168.252 178.319 166.904C178.682 165.258 179.177 163.644 179.8 162.077C180.412 160.521 181.239 159.059 182.257 157.733C183.087 156.653 184.147 155.77 185.361 155.151C186.186 154.746 187.068 154.471 187.977 154.335C188.319 154.325 188.659 154.276 188.99 154.19C188.647 154.153 188.301 154.153 187.958 154.19C187.013 154.262 186.09 154.503 185.23 154.9C183.954 155.504 182.834 156.394 181.958 157.502C180.893 158.847 180.034 160.344 179.409 161.942C178.786 163.527 178.301 165.163 177.961 166.832C177.699 168.195 177.516 169.573 177.416 170.958C177.329 172.136 177.295 173.092 177.281 173.753C177.245 174.093 177.245 174.436 177.281 174.776Z" fill="#E0E0E0"/>
<path d="M177.474 172.638C177.503 172.479 177.513 172.317 177.503 172.155C177.503 171.803 177.503 171.354 177.503 170.804C177.503 169.636 177.503 167.937 177.561 165.842C177.667 161.652 178.044 157.154 178.725 150.782C179.386 144.807 180.269 137.847 181.205 133.324C181.403 132.296 181.606 131.369 181.799 130.559C181.992 129.748 182.132 129.048 182.282 128.483C182.431 127.918 182.513 127.518 182.596 127.17C182.639 127.012 182.668 126.851 182.682 126.688C182.609 126.828 182.554 126.977 182.518 127.132C182.412 127.469 182.282 127.899 182.123 128.425C181.963 128.951 181.77 129.68 181.567 130.491C181.365 131.302 181.133 132.224 180.916 133.252C179.756 138.601 178.885 144.008 178.305 149.45C177.61 155.822 177.296 161.623 177.267 165.823C177.243 167.922 177.267 169.621 177.339 170.794C177.373 171.344 177.402 171.793 177.421 172.146C177.419 172.311 177.436 172.477 177.474 172.638Z" fill="#E0E0E0"/>
<path d="M177.501 161.451C177.538 160.981 177.538 160.51 177.501 160.041C177.448 159.134 177.322 157.821 177.066 156.218C176.759 154.34 176.345 152.48 175.826 150.648C175.217 148.395 174.438 146.19 173.495 144.055C171.88 140.119 169.562 136.509 166.655 133.402C166.148 132.872 165.61 132.372 165.043 131.906C164.797 131.699 164.56 131.491 164.358 131.327L163.735 130.897C163.359 130.611 162.961 130.356 162.543 130.135C162.475 130.226 164.227 131.255 166.438 133.61C169.25 136.744 171.506 140.335 173.109 144.229C174.031 146.349 174.81 148.53 175.44 150.754C176.053 152.801 176.458 154.683 176.767 156.267C177.076 157.85 177.226 159.163 177.327 160.056C177.347 160.524 177.406 160.991 177.501 161.451Z" fill="#E0E0E0"/>
<path d="M165.936 179.486L167.06 194.845H186.787L187.912 179.486H165.936Z" fill="#EBEBEB"/>
<path d="M190.262 173.434H164.029V179.486H190.262V173.434Z" fill="#EBEBEB"/>
<path d="M164.029 194.256V195.936H165.265H189.833V194.256H164.029Z" fill="#E0E0E0"/>
<path d="M166.472 198.701L165.266 195.752H188.892L187.483 198.701H166.472Z" fill="#E0E0E0"/>
<path d="M187.545 184.507C187.521 184.558 187.49 184.605 187.453 184.647C187.371 184.754 187.275 184.879 187.159 185.038L186.005 186.511L185.957 186.578L185.909 186.506C185.185 185.507 184.219 184.174 183.085 182.601H183.23L180.45 186.54L180.363 186.66L180.266 186.544L176.984 182.611H177.172L176.994 182.837L174.059 186.544L173.958 186.67L173.871 186.54C172.867 185.125 171.94 183.798 171.086 182.606H171.25L167.823 186.511L167.765 186.578L167.717 186.501L166.645 184.701C166.529 184.503 166.442 184.343 166.37 184.218C166.334 184.165 166.305 184.109 166.283 184.049C166.328 184.094 166.367 184.144 166.399 184.199L166.703 184.681L167.828 186.453H167.722L171.1 182.5L171.182 182.403L171.26 182.509L174.069 186.429H173.876L176.82 182.726L176.999 182.495L177.095 182.379L177.192 182.495L180.479 186.424H180.295L183.104 182.504L183.186 182.389L183.264 182.504L186.029 186.453H185.928C186.435 185.844 186.831 185.367 187.125 185.005L187.444 184.633C187.501 184.541 187.54 184.503 187.545 184.507Z" fill="#F5F5F5"/>
<path d="M188.187 179.386C188.187 179.454 183.239 179.507 177.143 179.507C171.047 179.507 166.1 179.454 166.1 179.386C166.1 179.319 171.042 179.266 177.143 179.266C183.244 179.266 188.187 179.319 188.187 179.386Z" fill="#F5F5F5"/>
<path d="M75.6981 19.3903C75.6981 19.3903 75.6546 19.3903 75.5822 19.3565L75.2637 19.231L74.0473 18.7242L69.5826 16.7935L54.9094 10.4029L54.3978 10.1761H54.504L40.1252 16.3494L35.7811 18.1739L34.5938 18.6566C34.4584 18.7187 34.3179 18.7688 34.1738 18.8062C34.302 18.7298 34.4359 18.6637 34.5744 18.6083L35.7425 18.0774L40.0866 16.1709L54.4316 9.94922H54.4846H54.5377L55.0494 10.1712L69.6936 16.639L74.1197 18.6228L75.3168 19.1779L75.6257 19.3275C75.6522 19.3455 75.6765 19.3666 75.6981 19.3903Z" fill="#E0E0E0"/>
<path d="M98.5852 17.2852H4.32422V87.8662H98.5852V17.2852Z" fill="#E0E0E0"/>
<path d="M95.6459 20.5684H7.62109V84.9664H95.6459V20.5684Z" fill="#FAFAFA"/>
<path d="M27.0625 48.7031C27.0625 48.7031 27.1542 59.5101 27.7045 62.8116L41.2627 62.1697C41.2627 62.1697 40.0753 51.5509 40.5339 48.7031H27.0625Z" fill="#E0E0E0"/>
<path d="M33.7434 50.2273H33.9413C34.13 50.2203 34.319 50.23 34.506 50.2562C34.8031 50.3003 35.0924 50.3865 35.3652 50.512C35.7263 50.6909 36.0454 50.9442 36.3015 51.2554C36.6164 51.6337 36.8394 52.0797 36.9532 52.5586C37.0592 53.1192 37.0108 53.6982 36.8132 54.2334C36.7122 54.5245 36.5845 54.8057 36.4319 55.0733C36.2699 55.3457 36.1248 55.6278 35.9975 55.918C35.7271 56.5335 35.542 57.1831 35.4472 57.8486V57.8921H35.4038H34.0668H32.6622H32.6091V57.8438C32.5489 57.1815 32.325 56.5446 31.9575 55.9904C31.7934 55.7104 31.6148 55.4546 31.4748 55.1891C31.2996 54.9393 31.1385 54.6798 30.9922 54.412C30.7446 53.8993 30.6701 53.32 30.7798 52.7613C30.8586 52.2789 31.0378 51.8185 31.3059 51.4098C31.5348 51.0814 31.8351 50.8091 32.1844 50.6134C32.6155 50.3847 33.0882 50.2452 33.5744 50.2031H33.7675C33.7675 50.2031 33.7675 50.2031 33.7192 50.2031H33.5744C33.3902 50.2249 33.2079 50.2604 33.029 50.3093C32.7436 50.3838 32.4693 50.4958 32.2133 50.6424C31.8718 50.8354 31.5794 51.1046 31.359 51.4291C31.1097 51.8342 30.9454 52.2858 30.8763 52.7565C30.771 53.2979 30.8456 53.859 31.0887 54.3541C31.2365 54.6179 31.3976 54.8741 31.5714 55.1215C31.7403 55.3774 31.9189 55.6428 32.083 55.9228C32.464 56.4897 32.6948 57.144 32.7539 57.8245L32.7008 57.7714H34.1054H35.4472L35.3941 57.8197C35.4906 57.1456 35.679 56.4879 35.954 55.8649C36.0865 55.5723 36.2347 55.2871 36.3981 55.0105C36.548 54.7489 36.674 54.4743 36.7746 54.19C36.97 53.6712 37.0216 53.1092 36.9242 52.5634C36.8142 52.0961 36.6015 51.6592 36.3015 51.2843C36.0525 50.977 35.7417 50.7254 35.3893 50.5458C35.1222 50.4167 34.8376 50.3272 34.5446 50.2804C34.3608 50.2522 34.1754 50.2361 33.9895 50.2321H33.8399C33.7627 50.2321 33.7434 50.2321 33.7434 50.2273Z" fill="white"/>
<path d="M34.4383 57.7622C34.4374 57.7478 34.4374 57.7333 34.4383 57.7188V57.5933C34.4383 57.4823 34.3949 57.3182 34.3659 57.1106C34.3032 56.6859 34.2115 56.0777 34.1536 55.3199C34.1536 55.1317 34.1246 54.9338 34.1198 54.7262C34.1076 54.5092 34.1076 54.2917 34.1198 54.0746C34.125 53.8418 34.1758 53.6122 34.2694 53.3989C34.3737 53.1685 34.5593 52.9846 34.7907 52.8824C34.9139 52.8307 35.0497 52.8163 35.181 52.8412C35.3123 52.8661 35.4334 52.9291 35.5292 53.0224C35.5802 53.0696 35.6203 53.1272 35.647 53.1914C35.6737 53.2555 35.6861 53.3247 35.6836 53.3941C35.6809 53.5339 35.6335 53.6692 35.5485 53.7802C35.4612 53.893 35.3488 53.9839 35.2203 54.0457C35.0927 54.1057 34.9581 54.1494 34.8197 54.176C34.2542 54.2916 33.6733 54.3112 33.1013 54.2339C32.9599 54.2146 32.8218 54.1756 32.6911 54.1181C32.5636 54.0608 32.4488 53.9787 32.3532 53.8767C32.2553 53.7746 32.1869 53.6478 32.1553 53.5099C32.1249 53.3748 32.142 53.2333 32.2036 53.1093C32.2595 52.9843 32.3615 52.8857 32.4884 52.8342C32.5486 52.8083 32.6134 52.7949 32.679 52.7949C32.7446 52.7949 32.8094 52.8083 32.8697 52.8342C32.9862 52.887 33.0863 52.9704 33.1593 53.0755C33.2273 53.1786 33.2763 53.293 33.3041 53.4134C33.345 53.6429 33.3676 53.8753 33.3716 54.1084L33.4392 55.3489C33.473 56.1067 33.5068 56.7197 33.5261 57.1493C33.5261 57.3568 33.5261 57.5209 33.5261 57.6319V57.8009C33.5271 57.7864 33.5271 57.7719 33.5261 57.7574C33.5261 57.7285 33.5261 57.685 33.5261 57.6319C33.5261 57.5788 33.5261 57.352 33.4971 57.1493C33.4971 56.7197 33.4344 56.1067 33.3909 55.3489C33.3909 54.9724 33.3475 54.5573 33.3234 54.1084C33.3203 53.8782 33.296 53.6488 33.251 53.423C33.2274 53.3075 33.1815 53.1976 33.1158 53.0996C33.0442 53.0013 32.9498 52.9218 32.8407 52.868C32.785 52.8442 32.7251 52.8319 32.6645 52.8319C32.604 52.8319 32.544 52.8442 32.4884 52.868C32.3709 52.9169 32.2761 53.0082 32.2229 53.1238C32.1673 53.2411 32.152 53.3734 32.1794 53.5003C32.212 53.6287 32.2768 53.7466 32.3677 53.843C32.5636 54.0362 32.8184 54.1585 33.0917 54.1905C33.3749 54.2276 33.6607 54.2406 33.946 54.2291C34.2315 54.2216 34.5157 54.1893 34.7955 54.1326C34.9311 54.1067 35.0625 54.0628 35.1865 54.0022C35.3088 53.9435 35.4161 53.8577 35.5002 53.7513C35.5799 53.6469 35.6254 53.5205 35.6305 53.3892C35.6303 53.3254 35.6173 53.2622 35.5925 53.2034C35.5676 53.1446 35.5313 53.0913 35.4857 53.0466C35.3949 52.9599 35.2812 52.9012 35.158 52.8772C35.0348 52.8533 34.9073 52.8651 34.7907 52.9114C34.5764 53.0081 34.4048 53.1798 34.308 53.3941C34.2162 53.6046 34.1655 53.8306 34.1584 54.0602C34.1584 54.2822 34.1584 54.4946 34.1584 54.7021C34.1584 54.9097 34.1584 55.1076 34.1922 55.3006C34.2501 56.0584 34.337 56.6666 34.3901 57.0865C34.419 57.2989 34.4432 57.4582 34.4577 57.5692V57.6947C34.4539 57.7179 34.4474 57.7406 34.4383 57.7622Z" fill="white"/>
<path d="M32.6387 57.8347C32.6607 57.9834 32.6736 58.1333 32.6773 58.2836C32.6773 58.6054 32.6966 58.9963 32.7352 59.4565V59.4275L33.6523 60.4942H33.604L34.6611 60.4363H34.6176L35.1389 59.7992L35.4044 59.4758V59.5192C35.4044 58.8966 35.3754 58.3125 35.3658 57.7816L35.4237 57.8347H33.4496H32.6387C32.7011 57.8258 32.7645 57.8258 32.8269 57.8347L33.382 57.8057L35.3899 57.7285H35.4478V57.7864C35.4478 58.3222 35.4816 58.9062 35.5009 59.5241V59.5289C35.414 59.6351 35.3272 59.7461 35.2354 59.8523L34.7093 60.4942H34.6804L33.6233 60.5473H33.604L32.7062 59.4806C32.7062 58.9979 32.7062 58.6118 32.7062 58.2739C32.6751 58.129 32.6525 57.9823 32.6387 57.8347Z" fill="white"/>
<path d="M35.3782 59.3591C35.3782 59.3591 35.3395 59.3591 35.2768 59.3156C35.187 59.2755 35.0952 59.24 35.0017 59.2094C34.6918 59.1013 34.3643 59.0521 34.0363 59.0646C33.7048 59.0719 33.3774 59.1406 33.071 59.2674L32.8055 59.3929L32.709 59.4411C32.7339 59.4151 32.7633 59.3938 32.7959 59.3784C32.8814 59.3264 32.9701 59.2796 33.0613 59.2384C33.3657 59.1033 33.6937 59.0295 34.0267 59.0212C34.3559 59.009 34.6842 59.0632 34.992 59.1805C35.0851 59.2137 35.1754 59.2541 35.2623 59.3012L35.3782 59.3591Z" fill="white"/>
<path d="M35.3733 58.9391L35.2768 58.8956L35.0017 58.7846C34.6911 58.6793 34.3642 58.6303 34.0363 58.6398C33.7053 58.6517 33.3788 58.7203 33.071 58.8425C32.9551 58.8908 32.8683 58.9342 32.8055 58.968L32.709 59.0163L32.7959 58.9535C32.8806 58.9016 32.9694 58.8564 33.0613 58.8184C33.3653 58.6815 33.6934 58.606 34.0267 58.5964C34.3556 58.589 34.6829 58.643 34.992 58.7556C35.1079 58.8039 35.1996 58.8474 35.2623 58.8811C35.3251 58.9149 35.3782 58.9342 35.3733 58.9391Z" fill="white"/>
<path d="M35.3499 58.5357L35.2534 58.4971C35.1858 58.4682 35.0941 58.4247 34.9782 58.3861C34.6676 58.281 34.3407 58.2319 34.0129 58.2413C33.6813 58.2479 33.3538 58.3166 33.0476 58.444C32.9317 58.4923 32.8448 58.5357 32.7821 58.5695L32.6855 58.6178L32.7724 58.555C32.8574 58.502 32.9461 58.4552 33.0379 58.4151C33.3431 58.2824 33.6706 58.2087 34.0032 58.1979C34.3321 58.1909 34.6594 58.2449 34.9686 58.3571C35.0615 58.3927 35.1518 58.4346 35.2389 58.4826C35.279 58.4928 35.3168 58.5109 35.3499 58.5357Z" fill="white"/>
<path d="M11.9648 31.0508C11.9648 31.0508 12.0566 41.8626 12.6068 45.1593L26.165 44.5173C26.165 44.5173 24.9728 33.8985 25.4314 31.0508H11.9648Z" fill="#EBEBEB"/>
<path d="M23.3903 35.5689C21.8854 35.7917 20.3689 35.9271 18.8484 35.9744C17.3322 36.1142 15.809 36.1609 14.2871 36.1143C15.7923 35.8944 17.3087 35.7591 18.829 35.7089C20.3455 35.5749 21.8685 35.5282 23.3903 35.5689Z" fill="white"/>
<path d="M23.3894 37.8556C21.8849 38.0822 20.3682 38.2192 18.8474 38.2659C17.3326 38.3998 15.8112 38.4466 14.291 38.4058C15.7959 38.1827 17.3124 38.0474 18.833 38.0004C20.3477 37.8635 21.869 37.8152 23.3894 37.8556Z" fill="white"/>
<path d="M21.0882 40.107C20.2378 40.2904 19.371 40.3874 18.5011 40.3966C17.6377 40.4844 16.7677 40.4844 15.9043 40.3966C16.7531 40.2133 17.6183 40.1163 18.4866 40.107C19.3516 40.019 20.2232 40.019 21.0882 40.107Z" fill="white"/>
<path d="M11.3223 62.8359C11.3223 62.8359 11.414 73.643 11.9642 76.9444L25.5225 76.3025C25.5225 76.3025 24.3303 65.6837 24.7888 62.8359H11.3223Z" fill="#EBEBEB"/>
<path d="M22.7487 67.3712C21.2442 67.5972 19.7275 67.7342 18.2068 67.7815C16.6919 67.9155 15.1706 67.9622 13.6504 67.9215C15.1536 67.6982 16.6685 67.5628 18.1875 67.516C19.7038 67.3792 21.2268 67.3308 22.7487 67.3712Z" fill="white"/>
<path d="M22.7487 69.6646C21.2439 69.888 19.7274 70.0234 18.2068 70.0701C16.6919 70.204 15.1706 70.2508 13.6504 70.21C15.1552 69.9869 16.6718 69.8516 18.1923 69.8046C19.7072 69.6706 21.2285 69.6239 22.7487 69.6646Z" fill="white"/>
<path d="M20.4456 71.9133C19.5968 72.0962 18.7316 72.1916 17.8633 72.1981C16.9992 72.294 16.1275 72.3021 15.2617 72.2222C16.1105 72.039 16.9757 71.942 17.844 71.9326C18.7082 71.8367 19.5801 71.8302 20.4456 71.9133Z" fill="white"/>
<path d="M48.377 33.8945L49.7188 65.0751L88.6414 65.5433L86.8941 34.3048L48.377 33.8945Z" fill="#EBEBEB"/>
<path d="M86.5906 33.6719H47.9238V62.8687H86.5906V33.6719Z" fill="#F5F5F5"/>
<path d="M86.59 62.8683C86.59 62.8683 86.59 62.68 86.59 62.3228C86.59 61.9657 86.59 61.4444 86.59 60.7686C86.59 59.3978 86.59 57.3899 86.561 54.8607C86.561 49.7685 86.5272 42.485 86.5031 33.6714L86.6141 33.7776H47.9521L48.0873 33.6473C48.0873 44.1454 48.0873 54.0885 48.0873 62.8441L47.9666 62.7234L75.8554 62.7814L83.7905 62.8152H85.8998H86.4452H86.6334H85.9239L83.8002 62.9069L75.8988 62.9407L47.9039 62.9986H47.7832V62.8827C47.7832 54.1271 47.7832 44.184 47.7832 33.6859V33.5508H47.9184H86.5803H86.6962V33.6618C86.6962 42.4995 86.6527 49.812 86.6383 54.8993C86.6383 57.4334 86.6383 59.4172 86.6093 60.7831C86.6093 61.4492 86.6093 61.9608 86.6093 62.318C86.5997 62.6945 86.59 62.8683 86.59 62.8683Z" fill="#E0E0E0"/>
<path d="M68.2641 39.8555H52.5918V59.5823H68.2641V39.8555Z" fill="#F5F5F5"/>
<path d="M68.2626 59.5816C68.2572 59.5481 68.2572 59.5139 68.2626 59.4803V59.2003C68.2626 58.9397 68.2626 58.5825 68.2626 58.124C68.2626 57.1586 68.2626 55.8023 68.2336 54.0744C68.2336 50.604 68.195 45.6904 68.1708 39.8549L68.2915 39.9755H52.6192C52.5854 39.9755 52.8702 39.7245 52.7495 39.8452V45.2077C52.7495 46.9598 52.7495 48.6684 52.7495 50.324C52.7495 53.64 52.7495 56.7435 52.7495 59.5623L52.6433 59.4513L63.9909 59.5093L67.1717 59.5382H68.0164H68.3156C68.2241 59.5449 68.1321 59.5449 68.0405 59.5382H67.22L64.0585 59.5672L52.6433 59.6251H52.5323V59.5141C52.5323 56.6953 52.5323 53.5917 52.5323 50.2757C52.5323 48.6202 52.5323 46.897 52.5323 45.1594V39.8645C52.4116 39.9804 52.6916 39.6956 52.6674 39.7294H68.3398H68.4604V39.85C68.4363 45.7145 68.4122 50.6571 68.3977 54.1468L68.3687 58.1674C68.3687 58.6179 68.3687 58.9703 68.3687 59.2245C68.3687 59.3307 68.3687 59.4175 68.3687 59.4899C68.3371 59.5246 68.3014 59.5554 68.2626 59.5816Z" fill="#E0E0E0"/>
<path d="M83.2261 35.3418H53.1895V38.1847H83.2261V35.3418Z" fill="#F5F5F5"/>
<path d="M83.2268 38.1851C83.2268 38.1851 83.2268 38.1127 83.2268 37.9921C83.2268 37.8714 83.2268 37.6687 83.2268 37.437C83.2268 36.9543 83.2268 36.2448 83.193 35.3422L83.2461 35.3953C78.1829 35.4436 66.6374 35.4773 53.2095 35.4773C53.4749 35.2071 53.2819 35.4001 53.3446 35.3422V38.1755L53.2143 38.0403L74.5049 38.0983L80.8955 38.1369H82.6331H83.0917C83.1447 38.1329 83.1979 38.1329 83.251 38.1369H83.111H82.6718H80.9631L74.6015 38.1803L53.2143 38.2334H53.084V38.1031C53.084 37.6494 53.084 37.1812 53.084 36.7082V35.2601L53.2191 35.125C66.6471 35.125 78.1926 35.1588 83.2558 35.2071H83.3137V35.2601C83.3137 36.1724 83.3137 36.8867 83.2847 37.3887C83.2847 37.6156 83.2847 37.7893 83.2847 37.9245C83.2808 38.0141 83.2612 38.1023 83.2268 38.1851Z" fill="#E0E0E0"/>
<path d="M83.2263 39.8555H70.1797V51.7437H83.2263V39.8555Z" fill="#F5F5F5"/>
<path d="M83.2266 51.7425C83.2266 51.7425 83.2266 51.6605 83.2266 51.5156V50.8689C83.2266 50.2897 83.2266 49.474 83.1976 48.4555C83.1976 46.3607 83.1638 43.4116 83.1397 39.864L83.2507 39.9798H70.2186L70.3489 39.8495V43.0399C70.3489 44.0825 70.3489 45.1058 70.3489 46.1049C70.3489 48.0983 70.3489 49.9663 70.3489 51.7329L70.2282 51.617L79.6403 51.6749L82.3095 51.7087H83.0238C83.1073 51.7017 83.1913 51.7017 83.2748 51.7087C83.1994 51.7157 83.1234 51.7157 83.048 51.7087H82.3577L79.7175 51.7377L70.2282 51.7956H70.1124V51.6749C70.1124 49.9325 70.1124 48.0404 70.1124 46.047C70.1124 45.0479 70.1124 44.0246 70.1124 42.982V39.7916C69.9917 39.9074 70.2716 39.6275 70.2475 39.6564H83.2796H83.3955V39.7674C83.3714 43.344 83.352 46.3221 83.3376 48.4555C83.3376 49.4691 83.3134 50.2752 83.3086 50.8689C83.3086 51.1231 83.3086 51.3306 83.3086 51.4915C83.2929 51.5785 83.2653 51.663 83.2266 51.7425Z" fill="#E0E0E0"/>
<path d="M83.2263 53.6074H70.1797V59.5829H83.2263V53.6074Z" fill="#F5F5F5"/>
<path d="M83.2264 59.5828C83.2264 59.5828 83.2264 59.4283 83.2264 59.1484L83.2022 57.9513C83.2022 56.8943 83.1733 55.4222 83.1491 53.6073L83.2457 53.7038L70.2136 53.7425C70.0929 53.8631 70.3728 53.5783 70.3439 53.6121V56.6868C70.3439 57.6859 70.3439 58.6561 70.3439 59.5828L70.2136 59.4573L79.5436 59.5152L82.2659 59.5538H82.9995H83.2602C83.1831 59.5609 83.1055 59.5609 83.0285 59.5538H82.3189L79.6305 59.5924L70.2136 59.6504H70.0881V59.5249C70.0881 58.5981 70.0881 57.628 70.0881 56.6288V53.5542C70.0591 53.5542 70.339 53.2984 70.2232 53.4191L83.2553 53.4529H83.3181V53.5494C83.3181 55.3884 83.2795 56.8846 83.2698 57.9513C83.2698 58.434 83.2698 58.8346 83.2698 59.1291C83.27 59.2814 83.2555 59.4333 83.2264 59.5828Z" fill="#E0E0E0"/>
<path d="M67.8721 39.8887C63.0165 46.593 57.4368 52.8774 52.5859 59.5817L67.8721 39.8887Z" fill="white"/>
<path d="M52.5918 59.5819C52.5918 59.5819 52.6256 59.4999 52.7173 59.3599L53.1276 58.7614C53.4847 58.2401 54.0205 57.5016 54.6962 56.599C56.0429 54.7842 57.9688 52.3322 60.1311 49.6534C62.2935 46.9745 64.2387 44.5419 65.6191 42.7608L67.2554 40.6515L67.7042 40.0772C67.8104 39.9517 67.8684 39.8841 67.878 39.8889C67.843 39.9676 67.7993 40.042 67.7477 40.1109L67.3374 40.7095C66.9802 41.2307 66.4445 41.9692 65.7687 42.8767C64.4221 44.6867 62.4962 47.1386 60.3339 49.8175C58.1715 52.4963 56.2311 54.929 54.8459 56.71L53.2096 58.8241L52.7607 59.3937C52.7119 59.4628 52.6552 59.526 52.5918 59.5819Z" fill="#E0E0E0"/>
<path d="M68.2633 59.5827C68.2054 59.6261 64.6481 55.2386 60.3233 49.8037C55.9986 44.3688 52.533 39.9041 52.6006 39.8559C52.6682 39.8076 56.211 44.1999 60.5405 49.6396C64.8701 55.0793 68.3212 59.5296 68.2633 59.5827Z" fill="#E0E0E0"/>
<path d="M49.7184 39.8992C49.7184 40.3842 49.5746 40.8583 49.3052 41.2615C49.0357 41.6647 48.6528 41.979 48.2048 42.1646C47.7567 42.3502 47.2637 42.3987 46.7881 42.3041C46.3124 42.2095 45.8755 41.976 45.5326 41.633C45.1897 41.2901 44.9562 40.8532 44.8616 40.3776C44.767 39.902 44.8155 39.4089 45.0011 38.9609C45.1867 38.5129 45.501 38.1299 45.9042 37.8605C46.3074 37.5911 46.7815 37.4473 47.2664 37.4473C47.9163 37.4485 48.5393 37.7073 48.9988 38.1668C49.4584 38.6264 49.7171 39.2493 49.7184 39.8992Z" fill="#E0E0E0"/>
<path d="M89.8239 33.9461C89.8239 34.4311 89.6801 34.9051 89.4106 35.3084C89.1412 35.7116 88.7583 36.0259 88.3102 36.2114C87.8622 36.397 87.3692 36.4456 86.8935 36.351C86.4179 36.2564 85.981 36.0228 85.6381 35.6799C85.2952 35.337 85.0616 34.9001 84.967 34.4245C84.8724 33.9488 84.921 33.4558 85.1066 33.0078C85.2922 32.5597 85.6064 32.1768 86.0096 31.9074C86.4129 31.6379 86.8869 31.4941 87.3719 31.4941C88.0218 31.4954 88.6447 31.7542 89.1043 32.2137C89.5638 32.6733 89.8226 33.2962 89.8239 33.9461Z" fill="#E0E0E0"/>
<path d="M185.742 51.0234H157.486V91.9829H185.742V51.0234Z" fill="#E0E0E0"/>
<path d="M184.328 51.0234H156.072V91.9829H184.328V51.0234Z" fill="#F5F5F5"/>
<path d="M180.818 55.459H159.58V87.547H180.818V55.459Z" fill="white"/>
<path d="M180.817 87.5483C180.817 87.5483 180.817 87.4904 180.817 87.389C180.817 87.2877 180.817 87.1332 180.817 86.9353C180.817 86.5299 180.817 85.941 180.817 85.1736C180.817 83.6387 180.817 81.3942 180.817 78.5658C180.817 72.9089 180.817 64.8965 180.783 55.4603L180.856 55.5327H159.579L159.657 55.4555C159.657 67.5609 159.657 78.7202 159.657 87.5435L159.594 87.4807L175.039 87.5145H179.311H180.431H180.822H180.445H179.335H175.078L159.584 87.5435H159.521V87.4855C159.521 78.6623 159.521 67.5029 159.521 55.3975V55.3203H159.579H180.817H180.885V55.3879C180.885 64.8434 180.86 72.8703 180.851 78.5561C180.851 81.3797 180.851 83.6145 180.851 85.1494C180.851 85.9072 180.851 86.4912 180.851 86.8919C180.851 87.0898 180.851 87.2346 180.851 87.3407L180.817 87.5483Z" fill="#E0E0E0"/>
<path d="M184.406 51.0234C184.27 51.2834 184.108 51.5291 183.923 51.7571C183.595 52.1963 183.127 52.79 182.596 53.4368C182.065 54.0836 181.568 54.6531 181.201 55.0634C181.013 55.2931 180.805 55.5048 180.578 55.6957C180.739 55.4467 180.92 55.211 181.119 54.991L182.48 53.3403L183.836 51.6895C184.009 51.4539 184.2 51.2313 184.406 51.0234Z" fill="#E0E0E0"/>
<path d="M180.926 87.4434C181.98 89.1233 183.222 90.6779 184.628 92.077L180.926 87.4434Z" fill="white"/>
<path d="M184.628 92.077C184.393 91.905 184.178 91.7075 183.986 91.4881C183.492 90.9883 183.025 90.463 182.586 89.9146C182.147 89.3662 181.737 88.7959 181.355 88.206C181.185 87.9678 181.041 87.7121 180.926 87.4434C181.116 87.6643 181.29 87.8981 181.447 88.1432C181.756 88.5825 182.195 89.1761 182.707 89.8181C183.218 90.4601 183.706 91.0151 184.063 91.4157C184.268 91.6211 184.457 91.8422 184.628 92.077Z" fill="#E0E0E0"/>
<path d="M156.066 91.9508L159.769 87.3848L156.066 91.9508Z" fill="white"/>
<path d="M159.768 87.3848C159.797 87.3848 158.996 88.4563 157.978 89.7161C157.374 90.4946 156.729 91.2405 156.047 91.9508C157.2 90.365 158.436 88.8409 159.749 87.3848H159.768Z" fill="#E0E0E0"/>
<path d="M156.072 51.0234C156.706 51.7088 157.306 52.4257 157.868 53.1713C158.467 53.888 159.026 54.6373 159.543 55.4157C158.906 54.7271 158.307 54.0053 157.747 53.2534C157.146 52.5429 156.587 51.7983 156.072 51.0234Z" fill="#E0E0E0"/>
<path d="M174.2 61.9766H167.09V82.1667H174.2V61.9766Z" fill="#E0E0E0"/>
<path d="M179.228 7.50155L175.184 7.52344L175.292 27.6505L179.337 27.6287L179.228 7.50155Z" fill="#E0E0E0"/>
<path d="M150.616 7.55661L140.143 7.61328L140.203 18.7242L150.677 18.6675L150.616 7.55661Z" fill="#EBEBEB"/>
<path d="M161.038 7.50388L150.564 7.56055L150.625 18.6715L161.098 18.6148L161.038 7.50388Z" fill="#F5F5F5"/>
<path d="M140.157 10.6918C147.117 10.7498 154.097 10.6918 161.057 10.5953C161.086 10.5953 161.114 10.5836 161.135 10.5628C161.156 10.542 161.168 10.5137 161.168 10.4843C161.168 10.4548 161.156 10.4266 161.135 10.4058C161.114 10.385 161.086 10.3733 161.057 10.3733C154.09 10.3347 147.124 10.3765 140.157 10.4988C140.131 10.4988 140.107 10.5089 140.089 10.527C140.071 10.5451 140.061 10.5697 140.061 10.5953C140.061 10.6209 140.071 10.6455 140.089 10.6636C140.107 10.6817 140.131 10.6918 140.157 10.6918Z" fill="#E0E0E0"/>
<path d="M152.641 18.4869L133.609 18.5898L133.658 27.6446L152.69 27.5417L152.641 18.4869Z" fill="#EBEBEB"/>
<path d="M171.584 18.3853L152.553 18.4883L152.602 27.5431L171.633 27.4401L171.584 18.3853Z" fill="#F5F5F5"/>
<path d="M133.622 21.1132C146.268 21.258 158.953 21.1132 171.594 20.925C171.623 20.925 171.651 20.9133 171.672 20.8925C171.693 20.8717 171.705 20.8434 171.705 20.814C171.705 20.7845 171.693 20.7563 171.672 20.7355C171.651 20.7147 171.623 20.703 171.594 20.703C158.948 20.6354 146.263 20.645 133.622 20.9202C133.596 20.9202 133.572 20.9303 133.554 20.9484C133.536 20.9665 133.525 20.9911 133.525 21.0167C133.525 21.0423 133.536 21.0668 133.554 21.085C133.572 21.1031 133.596 21.1132 133.622 21.1132Z" fill="#E0E0E0"/>
<path d="M200.241 27.6484H126.508V30.892H200.241V27.6484Z" fill="#E0E0E0"/>
<path d="M141.573 29.207H138.58V40.2747H141.573V29.207Z" fill="#E0E0E0"/>
<path d="M186.254 29.207H183.262V40.2747H186.254V29.207Z" fill="#E0E0E0"/>
<path d="M183.176 -0.00039994L179.131 0.0214844L179.281 27.7023L183.325 27.6804L183.176 -0.00039994Z" fill="#EBEBEB"/>
<path d="M189.497 5.1535L183.213 5.1875L183.334 27.6217L189.619 27.5877L189.497 5.1535Z" fill="#F5F5F5"/>
<path d="M189.454 9.48086C187.365 9.62842 185.269 9.62842 183.18 9.48086C185.269 9.33971 187.365 9.33971 189.454 9.48086Z" fill="#E0E0E0"/>
<path d="M189.454 8.53945C187.365 8.68701 185.269 8.68701 183.18 8.53945C185.269 8.39831 187.365 8.39831 189.454 8.53945Z" fill="#E0E0E0"/>
<path d="M189.454 24.2172C187.365 24.3647 185.269 24.3647 183.18 24.2172C185.269 24.076 187.365 24.076 189.454 24.2172Z" fill="#E0E0E0"/>
<path d="M189.454 23.2758C187.365 23.4233 185.269 23.4233 183.18 23.2758C185.269 23.1346 187.365 23.1346 189.454 23.2758Z" fill="#E0E0E0"/>
<path d="M186.412 21.2185C186.349 21.2185 186.301 18.9547 186.301 16.1649C186.301 13.3751 186.349 11.1113 186.412 11.1113C186.475 11.1113 186.518 13.3751 186.518 16.1649C186.518 18.9547 186.47 21.2185 186.412 21.2185Z" fill="#E0E0E0"/>
<path d="M196.359 10.668H189.52V27.6001H196.359V10.668Z" fill="#EBEBEB"/>
<path d="M193.136 23.2121C192.932 23.224 192.728 23.1927 192.538 23.1203C192.347 23.048 192.174 22.9361 192.029 22.7921C191.885 22.6481 191.772 22.4752 191.699 22.2847C191.626 22.0943 191.594 21.8906 191.606 21.6869C191.595 21.4649 191.64 21.2438 191.737 21.0439C191.834 20.8439 191.98 20.6717 192.161 20.543L192.315 20.7602C192.17 20.866 192.053 21.0059 191.975 21.1675C191.897 21.3291 191.86 21.5075 191.866 21.6869C191.866 22.0236 192 22.3465 192.238 22.5845C192.476 22.8226 192.799 22.9563 193.136 22.9563C193.472 22.9563 193.795 22.8226 194.033 22.5845C194.271 22.3465 194.405 22.0236 194.405 21.6869C194.412 21.5069 194.375 21.328 194.295 21.1662C194.216 21.0044 194.098 20.8649 193.951 20.7602L194.111 20.543C194.29 20.6734 194.434 20.8461 194.53 21.0458C194.626 21.2454 194.671 21.4656 194.661 21.6869C194.672 21.8901 194.64 22.0934 194.568 22.2835C194.495 22.4736 194.383 22.6463 194.239 22.7902C194.095 22.9341 193.923 23.0461 193.732 23.1188C193.542 23.1915 193.339 23.2233 193.136 23.2121Z" fill="#FAFAFA"/>
<path d="M194.275 20.1226L194.048 19.9922C194.285 19.6801 194.413 19.2983 194.41 18.9062C194.41 18.2739 194.183 18.0181 193.845 18.0181C192.967 18.0181 193.614 20.0164 192.431 20.0164C191.977 20.0164 191.606 19.6351 191.606 18.8724C191.6 18.5066 191.702 18.1472 191.9 17.8395L192.132 17.9747C191.95 18.24 191.855 18.5556 191.862 18.8773C191.862 19.4661 192.103 19.7268 192.426 19.7268C193.329 19.7268 192.692 17.7285 193.84 17.7285C194.323 17.7285 194.661 18.1533 194.661 18.9207C194.676 19.354 194.539 19.7789 194.275 20.1226Z" fill="#FAFAFA"/>
<path d="M194.275 17.3687L194.048 17.2383C194.285 16.9262 194.413 16.5444 194.41 16.1523C194.41 15.52 194.183 15.2642 193.845 15.2642C192.967 15.2642 193.614 17.2576 192.431 17.2576C191.977 17.2576 191.606 16.8812 191.606 16.1185C191.6 15.7527 191.702 15.3933 191.9 15.0856L192.132 15.2159C191.95 15.4834 191.856 15.8003 191.862 16.1234C191.862 16.7122 192.103 16.9729 192.426 16.9729C193.329 16.9729 192.692 14.9746 193.84 14.9746C194.323 14.9746 194.661 15.3945 194.661 16.162C194.676 16.5969 194.54 17.0235 194.275 17.3687Z" fill="#FAFAFA"/>
<path d="M181.093 5.89874C181.735 5.89874 182.256 5.37794 182.256 4.7355C182.256 4.09307 181.735 3.57227 181.093 3.57227C180.45 3.57227 179.93 4.09307 179.93 4.7355C179.93 5.37794 180.45 5.89874 181.093 5.89874Z" fill="#E0E0E0"/>
<path d="M181.45 7.93164H180.73V24.4004H181.45V7.93164Z" fill="#E0E0E0"/>
<path d="M208.722 199.502C208.722 199.57 162.101 199.628 104.605 199.628C47.1094 199.628 0.478516 199.58 0.478516 199.502C0.478516 199.425 47.0901 199.377 104.605 199.377C162.12 199.377 208.722 199.445 208.722 199.502Z" fill="#263238"/>
<path d="M56.8584 33.581C49.1115 45.7636 49.6184 62.6571 58.0844 74.3523C63.7268 82.1522 72.1881 87.3844 78.9069 94.2673C85.6257 101.15 90.7323 111.31 87.1847 120.259C83.5743 129.367 72.999 133.069 65.0832 138.842C56.3494 145.203 50.4203 154.701 48.5411 165.341C46.6619 175.981 48.9787 186.935 55.005 195.903H137.262C137.262 195.903 151.713 168.367 133.135 147.376C114.557 126.384 104.58 126.046 105.266 112.281C105.951 98.5148 115.585 94.0501 121.092 88.8855C126.6 83.7209 153.431 71.6879 137.605 33.5762L56.8584 33.581Z" fill="#FAFAFA"/>
<path d="M56.8594 33.5805H58.2736H62.4439H78.4976L137.606 33.5371H137.668V33.595C138.88 36.4807 139.912 39.4388 140.757 42.4521C141.646 45.607 142.231 48.8394 142.505 52.1055C142.789 55.5195 142.614 58.9563 141.983 62.3236C141.291 65.8142 140.035 69.169 138.267 72.257C137.35 73.832 136.314 75.3343 135.168 76.7507C133.998 78.1861 132.732 79.5406 131.379 80.8051C130.009 82.0927 128.573 83.309 127.078 84.4493C125.582 85.6077 124.018 86.6986 122.493 87.857C121.73 88.4313 121.045 89.0781 120.302 89.7249C119.558 90.3717 118.82 90.975 118.057 91.5832C116.537 92.7995 115.002 93.9965 113.554 95.3432C110.532 97.9627 108.209 101.294 106.797 105.035C106.118 106.954 105.689 108.953 105.522 110.982C105.479 111.464 105.411 111.995 105.392 112.507C105.373 113.019 105.353 113.53 105.392 114.042C105.403 115.069 105.506 116.093 105.701 117.102C106.084 119.146 106.918 121.079 108.143 122.759C109.404 124.439 110.832 125.986 112.405 127.378C115.528 130.231 118.844 132.958 122.015 135.902C125.186 138.846 128.29 141.916 131.283 145.165C132.809 146.772 134.238 148.471 135.559 150.252C136.888 152.055 138.044 153.98 139.01 156.001C140.964 160.097 142.164 164.511 142.553 169.033C142.947 173.617 142.677 178.234 141.752 182.741C141.302 185.018 140.712 187.265 139.985 189.469C139.271 191.692 138.4 193.861 137.379 195.961L137.345 196.028H54.9384L54.9046 195.975C51.0472 190.167 48.6814 183.498 48.0169 176.558C47.3482 169.891 48.3261 163.162 50.8646 156.961C53.2773 151.034 56.9922 145.726 61.7344 141.429C64.0356 139.397 66.5208 137.584 69.1579 136.013C71.7257 134.42 74.3176 132.943 76.7648 131.331C79.2143 129.8 81.4646 127.971 83.4643 125.887C85.3739 123.839 86.7904 121.383 87.6056 118.705C88.32 116.091 88.4322 113.35 87.9338 110.687C87.4576 108.118 86.6003 105.633 85.3901 103.317C84.2327 101.086 82.8446 98.9834 81.2488 97.0422C79.7084 95.18 78.0339 93.4329 76.2387 91.8149C72.7586 88.6099 69.1917 85.8056 65.9867 82.9241C64.3794 81.476 62.859 80.028 61.4544 78.5462C60.0931 77.0955 58.8381 75.5486 57.6993 73.9174C55.6404 70.9259 54.0532 67.636 52.9932 64.1626C52.0647 61.1631 51.5261 58.0565 51.3907 54.9195C51.3232 54.2051 51.3521 53.5004 51.3521 52.8102C51.3521 52.12 51.3521 51.4491 51.4149 50.7974C51.4776 50.1458 51.5114 49.5087 51.5597 48.8668C51.6079 48.2248 51.7383 47.6504 51.8203 47.0664C52.3536 43.511 53.4416 40.0614 55.0446 36.8434C55.2617 36.3456 55.5099 35.862 55.7879 35.3954L56.3816 34.3866C56.6953 33.8508 56.8642 33.5805 56.8642 33.5805L56.3816 34.4011L55.8072 35.3954C55.5359 35.864 55.2909 36.3475 55.0735 36.8434C53.485 40.0692 52.4102 43.5233 51.8879 47.0809C51.8058 47.6601 51.7093 48.2586 51.6369 48.8716C51.5645 49.4846 51.5404 50.1265 51.4921 50.7781C51.4438 51.4297 51.4438 52.1007 51.439 52.786C51.4342 53.4714 51.4149 54.1761 51.4824 54.8905C51.6221 58.0172 52.1656 61.1126 53.0994 64.0999C54.1582 67.5608 55.7438 70.838 57.8006 73.8161C58.9366 75.4405 60.1901 76.9795 61.551 78.4207C62.9507 79.9074 64.4711 81.3554 66.0784 82.7648C69.2834 85.6608 72.8358 88.4362 76.34 91.6459C78.1492 93.2757 79.8366 95.0357 81.3888 96.9119C82.9935 98.8671 84.3895 100.985 85.5542 103.23C86.7759 105.561 87.6414 108.061 88.122 110.649C88.6276 113.34 88.5154 116.111 87.7938 118.753C86.975 121.462 85.5449 123.948 83.6139 126.017C81.6044 128.114 79.3446 129.955 76.8854 131.5C74.4286 133.117 71.8367 134.594 69.2737 136.187C66.6478 137.754 64.1724 139.56 61.8792 141.583C57.1662 145.858 53.473 151.136 51.0722 157.029C48.549 163.198 47.5794 169.892 48.2485 176.524C48.9132 183.425 51.2671 190.055 55.1025 195.831L55.0059 195.777H137.263L137.152 195.845C138.171 193.751 139.039 191.586 139.749 189.368C140.472 187.173 141.059 184.935 141.506 182.668C142.426 178.183 142.695 173.589 142.302 169.028C141.92 164.531 140.728 160.14 138.783 156.068C137.824 154.062 136.678 152.15 135.361 150.358C134.043 148.587 132.621 146.894 131.104 145.29C128.127 142.05 125.043 138.967 121.851 136.042C118.685 133.103 115.379 130.38 112.246 127.513C110.66 126.11 109.22 124.551 107.945 122.86C106.696 121.16 105.841 119.203 105.44 117.131C105.247 116.107 105.142 115.069 105.127 114.027C105.102 113.511 105.127 112.995 105.127 112.478C105.127 111.962 105.213 111.45 105.252 110.938C105.429 108.897 105.867 106.888 106.555 104.958C107.98 101.183 110.324 97.824 113.375 95.1839C114.823 93.8421 116.373 92.6258 117.893 91.4143C118.656 90.8061 119.404 90.1931 120.133 89.5656C120.862 88.9381 121.581 88.2624 122.334 87.6832C123.869 86.5248 125.428 85.434 126.919 84.2804C128.41 83.1452 129.842 81.9353 131.21 80.6555C132.554 79.3967 133.814 78.0503 134.98 76.6252C136.117 75.2137 137.148 73.7198 138.064 72.1557C139.823 69.089 141.071 65.757 141.761 62.2899C142.389 58.9499 142.566 55.5408 142.287 52.1538C142.018 48.8882 141.437 45.6558 140.555 42.5003C139.721 39.4787 138.702 36.5111 137.504 33.6143L137.586 33.6674L78.512 33.624H62.4487H58.2688L56.8594 33.5805Z" fill="#263238"/>
<path d="M134.323 55.9237C146.438 57.9171 127.339 79.3767 116.522 87.8427C110.248 92.7418 103.538 98.0609 100.565 105.436C97.1865 113.806 99.6915 123.208 98.0601 131.626C98.0076 131.916 97.8471 132.176 97.611 132.353C97.3749 132.529 97.0807 132.61 96.7873 132.579C96.494 132.548 96.2233 132.407 96.0296 132.185C95.836 131.962 95.7337 131.675 95.7433 131.38C95.8205 125.853 95.6757 120.331 94.778 114.892C93.4796 107.169 90.516 99.5475 85.1245 93.8954C80.7081 89.2763 74.9208 86.2113 70.2148 81.8962C63.3416 75.5974 56.2801 67.474 55.5898 58.1777C55.5898 58.1777 68.7861 47.559 76.113 48.8863C84.6756 50.455 93.1031 63.6657 106.367 62.155C115.596 61.0979 120.273 53.6165 134.323 55.9237Z" fill="#003B73"/>
<path d="M135.4 170.776C135.096 167.745 134.285 164.318 131.596 162.889C129.97 162.021 127.986 162.117 126.2 162.585C124.414 163.053 122.739 163.869 120.973 164.395C117.461 165.428 113.71 165.308 110.272 164.053C106.985 162.846 104.166 160.674 101.101 158.946C98.036 157.218 94.4787 155.953 91.0807 156.798C85.2211 158.246 82.1706 165.312 76.3785 167.016C73.8011 167.769 71.0353 167.344 68.4193 166.756C65.8032 166.167 63.1726 165.399 60.4938 165.501C58.3894 165.578 56.2028 166.307 54.7307 167.745L54.6921 167.788C54.447 168.029 54.2241 168.29 54.026 168.57C52.2305 170.984 51.9409 174.184 52.4959 177.109C53.1137 180.386 54.6438 183.413 56.2849 186.313C58.2156 189.731 60.4166 193.129 63.6119 195.407C67.5601 198.221 72.5171 196.281 77.3487 196.662C88.6094 197.55 100.724 198.153 111.99 197.285C117.941 196.802 123.516 197.468 128.237 193.814C131.558 191.246 133.72 187.375 134.762 183.311C135.805 179.247 135.82 174.951 135.4 170.776Z" fill="#003B73"/>
<g opacity="0.24">
<path opacity="0.24" d="M114.143 164.975C113.511 165.94 113.236 167.253 113.849 168.237C114.462 169.222 115.297 170.125 115.558 171.259C115.978 173.035 114.906 174.773 114.11 176.419C112.636 179.362 112.079 182.679 112.512 185.942C112.969 189.215 114.659 192.19 117.237 194.258C118.381 195.142 119.868 195.827 121.248 195.393C122.547 194.987 123.382 193.669 123.662 192.332C123.942 190.995 123.705 189.62 123.536 188.273C122.75 181.997 122.913 175.638 124.019 169.41C124.202 168.373 124.376 167.185 123.72 166.36C123.246 165.879 122.645 165.544 121.987 165.395C119.477 164.56 116.769 165.486 114.168 164.994" fill="black"/>
</g>
<path d="M48.9684 199.641C48.9684 199.641 48.7416 195.866 53.6648 193.762H140.184C140.184 193.762 144.697 196.05 145.252 199.554L48.9684 199.641Z" fill="#263238"/>
<path d="M138.343 34.0399L138.203 34.1026L56.8487 33.5813C56.8487 33.5813 56.5591 33.3979 56.1295 33.0552C55.6224 32.6579 55.2523 32.1118 55.0714 31.4935C54.8905 30.8751 54.9077 30.2157 55.1207 29.6077C55.3336 28.9996 55.7317 28.4736 56.2589 28.1033C56.7861 27.733 57.416 27.5371 58.0602 27.5431L137.025 28.1802C140.274 28.2092 141.297 32.6498 138.343 34.0399Z" fill="#263238"/>
<g opacity="0.24">
<path opacity="0.24" d="M125.312 65.0749C125.476 65.3886 124.863 66.0402 123.7 67.1021C122.536 68.164 120.804 69.5589 118.651 71.311C116.066 73.4465 113.323 75.3827 110.446 77.103C108.658 78.1382 106.777 79.0027 104.827 79.6853C103.771 80.0505 102.692 80.3488 101.598 80.5783C100.449 80.8223 99.2819 80.9741 98.1085 81.032C95.7305 81.1614 93.3498 80.8337 91.0952 80.0666C89.102 79.3417 87.2079 78.3687 85.4576 77.1706C83.8359 76.0991 82.4409 75.0372 81.1136 74.0188C79.7862 73.0003 78.6037 72.0205 77.5322 71.0938C73.2605 67.3917 71.0113 64.6694 71.4457 64.1433C71.8801 63.6172 74.9209 65.3307 79.6511 68.2267L83.5125 70.5918C84.8977 71.4317 86.3795 72.3632 87.8951 73.2224C89.3991 74.1052 90.9928 74.8253 92.6494 75.3703C94.3445 75.8778 96.1149 76.0869 97.8816 75.9881C101.589 75.795 105.184 74.4918 108.298 72.9859C111.411 71.4799 114.23 69.723 116.672 68.3522C118.605 67.2116 120.626 66.227 122.715 65.4079C124.245 64.8721 125.172 64.7708 125.312 65.0749Z" fill="black"/>
</g>
<path d="M95.8023 141.71C96.1442 141.574 96.526 141.579 96.865 141.722C97.204 141.865 97.4728 142.136 97.6134 142.477C97.7539 142.817 97.7548 143.199 97.6159 143.539C97.4769 143.88 97.2094 144.153 96.8711 144.298C96.5328 144.443 96.151 144.449 95.8084 144.314C95.4657 144.18 95.1899 143.916 95.0404 143.579C94.891 143.243 94.8801 142.861 95.0101 142.517C95.14 142.173 95.4003 141.893 95.7347 141.739" fill="#003B73"/>
<path d="M66.7048 78.5384C66.599 78.4516 66.502 78.3546 66.4152 78.2488L65.6285 77.3897C65.2954 77.0083 64.8562 76.5643 64.4073 75.9996L62.8724 74.0689C62.3463 73.3256 61.7526 72.5243 61.1541 71.6555L60.2708 70.2509C60.1212 70.0096 59.9619 69.7683 59.8171 69.5125L59.3924 68.7305C58.1078 66.454 57.1014 64.0313 56.395 61.5146C55.685 59 55.3022 56.4043 55.2559 53.7918C55.2559 53.1885 55.2896 52.6045 55.2993 52.0301C55.2993 51.7453 55.2993 51.4654 55.3379 51.1902C55.3765 50.9151 55.3958 50.6448 55.4248 50.3794C55.4875 49.8484 55.5262 49.332 55.5986 48.8396C55.671 48.3473 55.7723 47.8743 55.8544 47.4351C55.9895 46.5325 56.2309 45.7457 56.3998 45.0217C56.4915 44.6742 56.5639 44.346 56.6556 44.0564L56.9211 43.2503L57.2927 42.145C57.3282 42.0134 57.3768 41.8857 57.4375 41.7637C57.4177 41.8983 57.3854 42.0308 57.341 42.1595C57.2589 42.4394 57.1528 42.8111 57.0128 43.2793L56.7714 44.0853C56.6894 44.3798 56.6218 44.708 56.5349 45.0507C56.3805 45.7505 56.1536 46.5421 56.0523 47.464C55.975 47.9081 55.8978 48.3763 55.8158 48.8638C55.7337 49.3513 55.7144 49.8629 55.6565 50.3938C55.6565 50.6593 55.6034 50.9248 55.5744 51.1999C55.5455 51.475 55.5744 51.755 55.5455 52.0349C55.5455 52.6045 55.5068 53.1837 55.5117 53.7822C55.5588 56.3793 55.9367 58.9599 56.6363 61.4615C57.339 63.9597 58.332 66.3669 59.5951 68.634C59.7351 68.8946 59.875 69.1553 60.0102 69.4159C60.1453 69.6766 60.3143 69.8986 60.4591 70.1496L61.3279 71.5542C61.9167 72.4423 62.5008 73.2435 63.0124 73.9675L64.5183 75.8982C64.9527 76.4726 65.3823 76.9215 65.7009 77.3173L66.4538 78.2102C66.5443 78.3142 66.6281 78.4238 66.7048 78.5384Z" fill="#263238"/>
<path d="M62.125 150.242C62.1489 150.186 62.178 150.133 62.2119 150.083L62.5015 149.629C62.6318 149.426 62.7911 149.185 62.9842 148.895L63.2882 148.413C63.4089 148.254 63.5489 148.094 63.6889 147.93L64.6542 146.772C65.0259 146.371 65.4506 145.956 65.8995 145.502C66.9403 144.5 68.0464 143.568 69.2106 142.712C71.7736 140.782 75.0799 138.851 78.6613 136.587C80.5445 135.427 82.3547 134.152 84.0817 132.769C85.9344 131.294 87.5706 129.565 88.9422 127.634C91.4528 123.776 92.8169 119.286 92.876 114.684C92.9372 110.933 92.3089 107.203 91.0226 103.679C90.1705 101.301 89.1008 99.0064 87.8273 96.8249C87.3784 96.0478 87.0115 95.4589 86.7606 95.0583L86.4758 94.6046C86.413 94.5032 86.3841 94.4453 86.3841 94.4453C86.4271 94.4886 86.4644 94.5373 86.4951 94.5901L86.804 95.0342C87.0695 95.4203 87.4508 95.9995 87.9093 96.7766C89.2223 98.9464 90.3216 101.239 91.1915 103.621C92.5124 107.159 93.167 110.912 93.1222 114.689C93.1017 115.777 93.0131 116.864 92.8567 117.942C92.7003 119.069 92.4632 120.184 92.1472 121.277C91.4879 123.592 90.463 125.787 89.1112 127.779C87.7255 129.731 86.0713 131.477 84.1976 132.967C82.4603 134.351 80.6405 135.628 78.7482 136.79C75.1523 139.035 71.8412 140.946 69.2782 142.862C68.1143 143.706 67.0051 144.624 65.9574 145.608C65.5085 146.057 65.0789 146.463 64.7025 146.859L63.7371 147.993C63.5923 148.167 63.4523 148.326 63.3317 148.476L63.0179 148.934L62.5353 149.653L62.2264 150.093C62.1966 150.145 62.1627 150.195 62.125 150.242Z" fill="#263238"/>
<path d="M57.6366 158.772C57.6075 158.85 57.572 158.926 57.5304 158.999L57.1829 159.612C57.0284 159.872 56.845 160.2 56.6568 160.577C56.4685 160.953 56.2272 161.397 56.0245 161.904C55.9183 162.155 55.8024 162.416 55.6866 162.686C55.5708 162.956 55.4742 163.256 55.3584 163.555C55.1267 164.154 54.9433 164.81 54.7309 165.486C53.8914 168.512 53.602 171.663 53.8766 174.792C53.9586 175.506 54.0166 176.191 54.142 176.819C54.1951 177.133 54.2386 177.441 54.3013 177.731C54.3641 178.021 54.4316 178.301 54.4944 178.566C54.6006 179.102 54.7599 179.57 54.8757 179.985C54.9916 180.4 55.1074 180.757 55.2136 181.047L55.4404 181.713C55.473 181.788 55.4941 181.868 55.5032 181.95C55.4567 181.882 55.4193 181.809 55.3922 181.732C55.3198 181.554 55.2329 181.341 55.1219 181.081C54.976 180.737 54.8487 180.386 54.7406 180.029C54.6102 179.613 54.4413 179.145 54.3206 178.61C54.2531 178.344 54.1855 178.064 54.1131 177.775C54.0407 177.485 53.9972 177.171 53.9345 176.857C53.7993 176.22 53.7318 175.535 53.6449 174.816C53.3428 171.668 53.6342 168.492 54.5041 165.452C54.7213 164.757 54.9143 164.096 55.1605 163.497C55.2812 163.198 55.3777 162.903 55.5032 162.628L55.8604 161.842C56.0727 161.359 56.343 160.91 56.5313 160.524C56.7014 160.192 56.8899 159.869 57.096 159.558L57.4821 158.965C57.5787 158.834 57.6269 158.767 57.6366 158.772Z" fill="#263238"/>
<path d="M117.308 170.374L117.212 170.441L116.913 170.63L115.74 171.334L114.89 171.817C114.572 171.996 114.219 172.16 113.843 172.348C113.08 172.715 112.24 173.183 111.246 173.56L109.701 174.192C109.166 174.404 108.582 174.573 107.993 174.776C106.82 175.205 105.517 175.514 104.16 175.867C98.2052 177.261 92.028 177.426 86.0071 176.349C84.6266 176.069 83.3138 175.828 82.1167 175.461C81.5182 175.288 80.9294 175.152 80.3791 174.979L78.8056 174.404C77.7968 174.081 76.928 173.661 76.1509 173.333C75.7648 173.164 75.4028 173.014 75.0794 172.85L74.2009 172.391L72.9943 171.75L72.6853 171.576L72.584 171.513C72.584 171.513 72.6274 171.513 72.6998 171.556L73.0184 171.706L74.2444 172.305L75.1277 172.739C75.4559 172.893 75.8227 173.033 76.2089 173.198C76.986 173.506 77.8548 173.917 78.8684 174.226L80.4226 174.79C80.9728 174.974 81.5617 175.104 82.1602 175.273C83.3524 175.63 84.6604 175.857 86.0216 176.132C92.0146 177.17 98.1541 177.006 104.083 175.65C105.435 175.302 106.733 175.008 107.906 174.588C108.495 174.39 109.074 174.23 109.61 174.018L111.154 173.405C112.149 173.038 112.993 172.585 113.756 172.232C114.132 172.049 114.49 171.89 114.808 171.75L115.667 171.267L116.859 170.601L117.173 170.437C117.27 170.384 117.308 170.369 117.308 170.374Z" fill="#263238"/>
<path d="M122.344 68.2168C122.315 68.2518 122.281 68.2826 122.243 68.3085L121.924 68.5691C121.63 68.8057 121.22 69.1387 120.693 69.5345C119.622 70.384 118.068 71.6148 116.103 73.0821C113.817 74.8321 111.42 76.4316 108.926 77.8702C107.443 78.7002 105.897 79.4119 104.302 79.9988C102.582 80.6247 100.787 81.0239 98.9636 81.1862C95.4184 81.3851 91.8831 80.6495 88.7116 79.0528C87.3401 78.3561 86.0163 77.5693 84.7489 76.6973C83.5712 75.8671 82.4948 75.0611 81.544 74.284C79.6133 72.7491 78.1363 71.4507 77.0937 70.5626L75.9015 69.5297L75.5975 69.2594L75.4961 69.158C75.4961 69.158 75.5395 69.158 75.6119 69.2352L75.9353 69.491L77.1565 70.4854C78.2184 71.3542 79.734 72.6284 81.655 74.144C82.6203 74.9018 83.687 75.6982 84.8696 76.5187C86.1325 77.3756 87.4497 78.1495 88.813 78.8356C91.9529 80.4006 95.4462 81.1209 98.9491 80.9255C100.751 80.7658 102.524 80.3732 104.225 79.7575C105.809 79.1784 107.345 78.4764 108.82 77.6579C111.31 76.2453 113.71 74.6801 116.007 72.9711C117.976 71.5231 119.545 70.3164 120.64 69.491L121.9 68.5257L122.233 68.2844C122.267 68.2564 122.304 68.2336 122.344 68.2168Z" fill="#263238"/>
<g opacity="0.24">
<path opacity="0.24" d="M78.8105 174.429C81.0984 172.663 84.313 173.088 87.1415 173.686C89.9699 174.285 92.8177 175.245 95.6799 174.844C97.8375 174.54 99.8164 173.483 101.955 173.02C104.093 172.557 106.666 172.899 107.848 174.729C98.3965 177.774 88.2118 177.669 78.825 174.429" fill="black"/>
</g>
<path d="M158.619 161.329L148.241 149.692L148.135 163.839L151.263 172.913L120.169 178.305L118.851 153.77L116.612 134.946C116.479 133.824 116.721 132.689 117.301 131.719C117.881 130.749 118.765 129.998 119.817 129.584L128.374 126.205L140.441 128.416L145.292 130.26C147.326 131.034 149.139 132.295 150.573 133.933L165.169 150.623" fill="#003B73"/>
<path d="M147.518 146.891C148.104 146.883 148.689 146.841 149.27 146.766C150.67 146.552 151.974 145.925 153.015 144.966C154.057 144.006 154.788 142.757 155.115 141.379C155.235 140.804 155.324 140.222 155.38 139.637C155.419 139.794 155.434 139.957 155.424 140.119C155.427 140.557 155.382 140.995 155.289 141.423C154.996 142.856 154.261 144.161 153.186 145.153C152.111 146.145 150.751 146.773 149.299 146.949C148.865 147.005 148.426 147.015 147.991 146.978C147.829 146.975 147.67 146.945 147.518 146.891Z" fill="white"/>
<path d="M148.419 163.235C148.491 163.235 148.51 158.331 148.462 152.288C148.414 146.245 148.312 141.346 148.24 141.346C148.168 141.346 148.148 146.245 148.196 152.293C148.245 158.341 148.346 163.235 148.419 163.235Z" fill="#263238"/>
<path d="M147.28 166.832L128.495 159.268C127.752 158.969 127.108 158.469 126.634 157.823C126.161 157.177 125.878 156.412 125.816 155.614L124.44 137.601C124.44 137.601 124.604 129.936 119.816 129.564L117.108 130.636C113.59 132.504 112.721 137.63 113.199 141.583C113.879 147.201 114.164 155.156 114.922 160.031C115.549 164.022 117.818 167.531 121.737 168.559L144.877 173.57L147.28 166.832Z" fill="#003B73"/>
<path d="M124.711 140.346C124.743 140.48 124.762 140.618 124.769 140.756C124.798 141.05 124.842 141.446 124.89 141.943C124.986 143 125.122 144.487 125.286 146.312C125.45 148.136 125.633 150.361 125.846 152.794C125.894 153.407 125.947 154.029 126 154.667C126.037 155.315 126.118 155.96 126.241 156.597C126.372 157.242 126.699 157.83 127.178 158.282C127.692 158.734 128.278 159.1 128.911 159.363C134.09 161.603 138.863 163.456 142.329 164.754L146.446 166.27L147.566 166.68C147.697 166.724 147.824 166.777 147.947 166.84C147.811 166.815 147.677 166.777 147.547 166.729L146.412 166.362C145.447 166.033 143.999 165.546 142.271 164.914C138.781 163.659 134.003 161.834 128.804 159.604C128.147 159.328 127.539 158.947 127.004 158.475C126.491 157.988 126.14 157.354 126 156.66C125.876 156.013 125.796 155.358 125.764 154.7C125.71 154.058 125.662 153.436 125.614 152.823C125.426 150.409 125.252 148.189 125.131 146.336C125.011 144.482 124.89 143.02 124.813 141.963C124.779 141.48 124.755 141.065 124.74 140.77C124.718 140.63 124.709 140.488 124.711 140.346Z" fill="#263238"/>
<path d="M113.946 150.141C113.966 150.22 113.977 150.301 113.98 150.382L114.043 151.077C114.101 151.719 114.173 152.583 114.265 153.635C114.356 154.687 114.501 155.995 114.689 157.414C114.874 158.951 115.156 160.475 115.534 161.976C115.712 162.749 116.022 163.485 116.451 164.153C116.87 164.765 117.34 165.342 117.856 165.876C118.734 166.779 119.749 167.54 120.863 168.13C121.901 168.658 123.015 169.022 124.164 169.211C124.083 169.221 124 169.221 123.918 169.211C123.685 169.195 123.453 169.165 123.223 169.119C122.374 168.961 121.552 168.683 120.781 168.294C119.635 167.717 118.592 166.958 117.692 166.045C117.158 165.505 116.673 164.918 116.244 164.293C115.793 163.607 115.466 162.847 115.278 162.048C114.895 160.536 114.616 158.999 114.443 157.448C114.27 156 114.154 154.736 114.076 153.654C113.999 152.573 113.956 151.695 113.932 151.087C113.932 150.807 113.932 150.575 113.932 150.387C113.923 150.304 113.928 150.221 113.946 150.141Z" fill="#263238"/>
<path d="M121.979 162.743C122.028 162.391 122.144 162.052 122.321 161.744C122.708 160.975 123.245 160.291 123.9 159.731C124.554 159.172 125.314 158.748 126.134 158.486C126.467 158.359 126.821 158.298 127.177 158.308C126.861 158.439 126.539 158.555 126.212 158.655C125.436 158.955 124.716 159.384 124.083 159.924C123.452 160.466 122.915 161.108 122.495 161.826C122.157 162.381 122.017 162.758 121.979 162.743Z" fill="#263238"/>
<path d="M125.676 149.044C125.717 149.056 125.756 149.074 125.792 149.097L126.129 149.276C126.565 149.491 127.013 149.679 127.471 149.841C129.16 150.433 130.972 150.589 132.737 150.294C135.36 149.827 137.702 148.37 139.282 146.226C140.227 144.987 140.819 143.516 140.996 141.968C141.083 141.155 140.998 140.333 140.745 139.555C140.478 138.761 140.013 138.048 139.393 137.484C138.783 136.913 138.014 136.539 137.188 136.413C136.796 136.343 136.394 136.362 136.011 136.47C135.628 136.578 135.274 136.771 134.977 137.035C134.708 137.299 134.552 137.658 134.542 138.035C134.551 138.409 134.679 138.772 134.909 139.068C135.149 139.354 135.443 139.589 135.774 139.761C136.106 139.932 136.468 140.036 136.84 140.067C138.147 140.23 139.474 140.062 140.699 139.579C141.925 139.095 143.009 138.312 143.853 137.301C144.493 136.514 144.975 135.611 145.272 134.641C145.494 133.907 145.614 133.145 145.629 132.378C145.635 131.893 145.599 131.409 145.523 130.93C145.494 130.78 145.47 130.655 145.456 130.558C145.451 130.515 145.451 130.471 145.456 130.428C145.655 131.052 145.753 131.703 145.745 132.358C145.75 133.137 145.643 133.913 145.427 134.661C144.889 136.464 143.729 138.018 142.153 139.046C140.577 140.074 138.688 140.509 136.821 140.274C136.422 140.239 136.034 140.125 135.68 139.94C135.325 139.754 135.011 139.501 134.755 139.193C134.493 138.856 134.347 138.442 134.34 138.015C134.34 137.576 134.514 137.155 134.822 136.842C135.147 136.553 135.532 136.34 135.95 136.22C136.368 136.099 136.807 136.075 137.236 136.147C138.114 136.277 138.931 136.673 139.577 137.282C140.23 137.872 140.719 138.622 140.996 139.459C141.259 140.267 141.347 141.123 141.256 141.968C141.068 143.55 140.456 145.05 139.485 146.312C138.145 148.141 136.243 149.48 134.07 150.125C131.897 150.77 129.572 150.685 127.452 149.884C126.826 149.684 126.228 149.401 125.676 149.044Z" fill="white"/>
<path d="M113.367 144.241C113.449 144.097 113.553 143.966 113.676 143.855C113.985 143.528 114.324 143.233 114.69 142.972C115.922 142.125 117.355 141.617 118.846 141.5C119.663 141.408 120.49 141.442 121.297 141.601C121.954 141.737 122.588 141.961 123.185 142.267C123.585 142.469 123.969 142.701 124.333 142.962C124.474 143.048 124.601 143.156 124.71 143.281C124.681 143.319 124.121 142.895 123.107 142.426C121.786 141.814 120.321 141.58 118.874 141.751C117.422 141.865 116.02 142.334 114.791 143.117C113.86 143.739 113.401 144.275 113.367 144.241Z" fill="white"/>
<path d="M116.375 131.36C116.833 131.791 117.344 132.163 117.895 132.465C118.498 132.774 119.153 132.967 119.826 133.035C120.646 133.117 121.474 133.001 122.239 132.697C122.99 132.377 123.653 131.88 124.17 131.249C124.597 130.722 124.925 130.122 125.135 129.477C125.309 128.872 125.408 128.248 125.43 127.619C125.477 127.785 125.498 127.958 125.493 128.131C125.501 128.604 125.437 129.076 125.304 129.531C125.108 130.209 124.78 130.842 124.339 131.394C123.81 132.086 123.107 132.626 122.302 132.958C121.496 133.29 120.617 133.403 119.754 133.286C119.054 133.206 118.376 132.99 117.76 132.649C117.345 132.421 116.968 132.131 116.64 131.789C116.526 131.664 116.436 131.518 116.375 131.36Z" fill="white"/>
<path d="M132.746 160.981C132.747 160.861 132.76 160.742 132.785 160.624C132.852 160.289 132.964 159.964 133.118 159.659C133.731 158.535 134.728 157.668 135.927 157.217C137.691 156.515 139.644 156.445 141.453 157.019C142.448 157.313 143.587 157.68 144.35 158.65C144.541 158.898 144.662 159.193 144.7 159.504C144.737 159.815 144.69 160.13 144.562 160.417C144.271 160.975 143.8 161.419 143.225 161.676C142.67 161.951 142.063 162.102 141.444 162.12C140.83 162.15 140.224 161.962 139.735 161.59C139.509 161.397 139.325 161.16 139.194 160.893C139.063 160.627 138.988 160.337 138.973 160.04C138.941 159.486 139.028 158.931 139.228 158.414C139.956 156.654 141.341 155.248 143.09 154.494C144.25 153.977 145.521 153.758 146.787 153.857C147.248 153.892 147.702 153.988 148.138 154.142C148.138 154.176 147.656 154.016 146.777 153.954C145.728 153.897 144.679 154.054 143.693 154.417C142.707 154.78 141.805 155.34 141.043 156.063C140.336 156.741 139.784 157.564 139.426 158.476C139.239 158.964 139.158 159.485 139.19 160.006C139.204 160.27 139.272 160.529 139.39 160.765C139.508 161.002 139.673 161.212 139.875 161.382C140.316 161.721 140.864 161.892 141.42 161.865C142 161.849 142.57 161.708 143.09 161.45C143.614 161.216 144.046 160.813 144.316 160.306C144.424 160.059 144.465 159.788 144.432 159.52C144.4 159.253 144.297 158.999 144.132 158.785C143.796 158.36 143.364 158.02 142.873 157.791C142.396 157.563 141.9 157.377 141.391 157.236C139.629 156.666 137.725 156.715 135.994 157.376C134.822 157.8 133.835 158.621 133.205 159.697C132.996 160.103 132.841 160.535 132.746 160.981Z" fill="white"/>
<path d="M120.236 167.762C120.236 167.714 120.951 167.656 122.037 167.279C123.454 166.78 124.725 165.934 125.731 164.817C126.738 163.701 127.449 162.35 127.8 160.889C128.075 159.769 128.065 159.04 128.114 159.045C128.147 159.212 128.155 159.383 128.138 159.552C128.127 160.014 128.072 160.475 127.974 160.927C127.661 162.436 126.951 163.834 125.918 164.977C124.884 166.12 123.564 166.966 122.095 167.429C121.655 167.572 121.202 167.674 120.743 167.733C120.576 167.767 120.406 167.777 120.236 167.762Z" fill="white"/>
<path d="M114.145 153.76C114.216 153.72 114.292 153.689 114.371 153.668C114.526 153.62 114.748 153.552 115.042 153.475C115.878 153.255 116.743 153.167 117.605 153.214C118.204 153.26 118.792 153.405 119.343 153.644C119.985 153.921 120.544 154.36 120.965 154.918C121.427 155.552 121.651 156.328 121.597 157.11C121.566 157.526 121.439 157.929 121.225 158.287C121.009 158.665 120.668 158.956 120.26 159.108C120.045 159.181 119.814 159.197 119.592 159.153C119.369 159.108 119.161 159.007 118.991 158.857C118.701 158.538 118.544 158.12 118.551 157.689C118.526 156.92 118.678 156.155 118.995 155.454C119.436 154.455 120.198 153.632 121.16 153.115C122.121 152.598 123.228 152.417 124.305 152.601C124.536 152.637 124.764 152.694 124.985 152.77C125.135 152.828 125.212 152.862 125.207 152.872C125.203 152.881 124.884 152.77 124.29 152.698C123.451 152.596 122.6 152.706 121.814 153.017C120.65 153.484 119.718 154.393 119.222 155.546C118.927 156.216 118.787 156.943 118.812 157.674C118.802 158.044 118.933 158.403 119.179 158.678C119.317 158.796 119.484 158.876 119.662 158.91C119.841 158.944 120.025 158.93 120.197 158.871C120.555 158.739 120.855 158.487 121.047 158.157C121.239 157.832 121.354 157.467 121.385 157.09C121.435 156.365 121.232 155.645 120.81 155.053C120.418 154.522 119.894 154.103 119.29 153.837C118.762 153.597 118.197 153.447 117.62 153.393C116.776 153.33 115.927 153.39 115.1 153.572C114.478 153.692 114.154 153.779 114.145 153.76Z" fill="white"/>
<g opacity="0.3">
<path opacity="0.3" d="M141.878 164.684C139.87 163.549 137.906 162.676 135.806 161.725C133.706 160.774 131.645 159.543 130.27 157.69C127.678 154.195 127.972 149.151 125.322 145.705C125.496 148.022 125.668 150.34 125.839 152.66C125.998 154.784 125.675 156.889 127.041 158.332C128.194 159.548 130.443 160.48 132.036 161.006C135.236 162.063 138.683 163.631 141.878 164.684Z" fill="black"/>
</g>
<path d="M174.548 191.158C174.548 191.158 190.268 195.502 190.9 195.734C191.866 196.067 191.687 199.537 190.215 199.479C189.515 199.455 178.148 199.904 176.7 199.817C175.252 199.73 170.908 198.017 170.908 198.017L174.548 191.158Z" fill="#003B73"/>
<path d="M181.077 197.157C181.271 196.579 181.504 196.015 181.772 195.468C182.111 194.961 182.481 194.478 182.882 194.02C182.323 194.326 181.859 194.78 181.54 195.333C181.222 195.885 181.062 196.515 181.077 197.152V197.157Z" fill="#263238"/>
<path d="M179.436 196.413C179.513 196.413 179.672 195.685 180.092 194.864C180.512 194.043 181.004 193.469 180.951 193.416C180.492 193.773 180.118 194.228 179.856 194.747C179.594 195.266 179.451 195.837 179.436 196.418V196.413Z" fill="#263238"/>
<path d="M177.925 196.004C178.002 195.441 178.124 194.886 178.292 194.343C178.538 193.831 178.824 193.339 179.146 192.871C178.647 193.207 178.263 193.686 178.045 194.246C177.827 194.806 177.785 195.419 177.925 196.004Z" fill="#263238"/>
<path d="M178.18 193.971C178.319 193.598 178.376 193.2 178.349 192.803C178.344 192.37 178.291 191.939 178.19 191.519C178.129 191.27 178.05 191.027 177.953 190.79C177.908 190.64 177.821 190.506 177.702 190.404C177.623 190.345 177.526 190.316 177.427 190.321C177.328 190.326 177.234 190.366 177.162 190.433C177.04 190.55 176.966 190.708 176.954 190.877C176.942 191.015 176.942 191.154 176.954 191.292C176.956 191.551 176.988 191.808 177.051 192.059C177.155 192.48 177.318 192.885 177.533 193.261C177.706 193.624 177.945 193.951 178.238 194.226C178.277 194.226 178.011 193.836 177.698 193.194C177.514 192.822 177.376 192.43 177.287 192.026C177.236 191.789 177.211 191.548 177.21 191.306C177.21 191.065 177.21 190.766 177.355 190.65C177.383 190.624 177.42 190.61 177.459 190.61C177.497 190.61 177.534 190.624 177.562 190.65C177.641 190.727 177.7 190.821 177.736 190.925C177.829 191.152 177.908 191.384 177.973 191.62C178.083 192.021 178.153 192.431 178.18 192.846C178.209 193.522 178.137 193.966 178.18 193.971Z" fill="#263238"/>
<path d="M178.161 193.813C177.841 193.679 177.494 193.623 177.148 193.649C176.772 193.649 176.397 193.694 176.033 193.784C175.808 193.835 175.59 193.914 175.386 194.02C175.257 194.086 175.153 194.191 175.089 194.321C175.026 194.451 175.006 194.598 175.033 194.74C175.069 194.875 175.141 194.999 175.24 195.098C175.339 195.197 175.463 195.268 175.598 195.304C175.829 195.362 176.072 195.362 176.303 195.304C176.675 195.219 177.024 195.055 177.326 194.822C177.612 194.63 177.859 194.386 178.055 194.102C177.765 194.272 177.486 194.461 177.22 194.667C176.928 194.868 176.6 195.01 176.255 195.087C176.063 195.135 175.862 195.135 175.671 195.087C175.58 195.064 175.497 195.018 175.43 194.952C175.363 194.887 175.314 194.805 175.289 194.715C175.275 194.627 175.289 194.536 175.331 194.457C175.373 194.377 175.44 194.314 175.521 194.276C175.7 194.177 175.892 194.103 176.09 194.054C176.437 193.955 176.793 193.894 177.152 193.871C177.765 193.793 178.151 193.856 178.161 193.813Z" fill="#263238"/>
<path d="M183.492 197.326C183.559 196.845 183.664 196.371 183.805 195.907C184.026 195.475 184.283 195.064 184.573 194.676C184.115 194.925 183.757 195.325 183.56 195.808C183.363 196.291 183.339 196.827 183.492 197.326Z" fill="#263238"/>
<path d="M172.525 198.056C172.716 198.176 172.92 198.273 173.134 198.345C173.704 198.562 174.288 198.742 174.881 198.886C176.852 199.316 178.868 199.507 180.885 199.455C183.241 199.427 185.364 199.32 186.904 199.258L188.724 199.161C188.947 199.157 189.17 199.135 189.39 199.093C189.168 199.059 188.943 199.047 188.719 199.06H186.899L180.885 199.176C178.887 199.227 176.888 199.065 174.924 198.693C173.418 198.389 172.545 198.003 172.525 198.056Z" fill="#263238"/>
<path d="M172.061 198.413C172.061 198.446 172.509 198.195 173.238 197.877C174.164 197.44 175.195 197.272 176.212 197.394C177.211 197.611 178.114 198.146 178.784 198.919C179.063 199.249 179.365 199.559 179.687 199.846C179.48 199.462 179.221 199.108 178.919 198.794C178.609 198.434 178.26 198.11 177.877 197.829C177.397 197.474 176.839 197.239 176.25 197.143C175.183 197.014 174.103 197.218 173.156 197.727C172.756 197.895 172.386 198.127 172.061 198.413Z" fill="#263238"/>
<path d="M157.842 186.818C157.842 186.818 142.966 196.559 142.435 196.954C141.634 197.558 142.551 200.439 143.941 199.942C144.597 199.706 157.079 196.23 158.421 195.709C159.763 195.188 163.378 192.263 163.378 192.263L157.842 186.818Z" fill="#003B73"/>
<path d="M153.424 194.521C153.245 193.909 152.9 193.358 152.429 192.928C151.957 192.498 151.376 192.206 150.75 192.084C151.273 192.398 151.775 192.746 152.251 193.127C152.671 193.567 153.062 194.033 153.424 194.521Z" fill="#263238"/>
<path d="M154.757 193.314C154.567 192.763 154.258 192.261 153.852 191.843C153.445 191.426 152.952 191.104 152.406 190.9C152.367 190.968 153.019 191.383 153.661 192.02C154.303 192.657 154.689 193.352 154.757 193.314Z" fill="#263238"/>
<path d="M156.099 192.455C156.097 191.848 155.866 191.263 155.452 190.819C155.106 190.328 154.59 189.984 154.004 189.854C154.452 190.203 154.873 190.585 155.264 190.997C155.58 191.46 155.859 191.948 156.099 192.455Z" fill="#263238"/>
<path d="M155.239 190.607C155.277 190.607 155.075 190.187 154.906 189.492C154.804 189.089 154.744 188.676 154.727 188.261C154.71 188.017 154.71 187.772 154.727 187.527C154.725 187.417 154.754 187.309 154.809 187.214C154.83 187.181 154.863 187.157 154.901 187.148C154.938 187.139 154.978 187.145 155.012 187.165C155.181 187.233 155.268 187.523 155.35 187.754C155.421 187.984 155.469 188.22 155.494 188.459C155.532 188.872 155.519 189.289 155.456 189.699C155.354 190.404 155.215 190.834 155.253 190.848C155.452 190.503 155.583 190.123 155.639 189.728C155.732 189.305 155.764 188.872 155.736 188.44C155.716 188.181 155.669 187.925 155.596 187.677C155.556 187.544 155.508 187.413 155.451 187.286C155.387 187.128 155.266 186.999 155.113 186.924C155.024 186.882 154.922 186.874 154.827 186.899C154.732 186.925 154.648 186.983 154.592 187.064C154.512 187.198 154.47 187.352 154.471 187.508C154.418 188.196 154.497 188.887 154.703 189.545C154.804 189.933 154.987 190.295 155.239 190.607Z" fill="#263238"/>
<path d="M155.186 190.448C155.186 190.486 155.552 190.312 156.151 190.163C156.501 190.079 156.858 190.03 157.218 190.018C157.423 190.004 157.629 190.017 157.831 190.057C157.919 190.069 158.002 190.109 158.066 190.172C158.131 190.234 158.173 190.316 158.188 190.404C158.192 190.5 158.17 190.595 158.125 190.68C158.08 190.765 158.014 190.836 157.932 190.887C157.766 190.991 157.577 191.054 157.382 191.07C157.029 191.105 156.673 191.069 156.334 190.964C156.02 190.846 155.697 190.751 155.369 190.679C155.641 190.897 155.953 191.061 156.286 191.162C156.644 191.299 157.028 191.357 157.411 191.331C157.649 191.318 157.88 191.245 158.082 191.118C158.201 191.045 158.298 190.941 158.364 190.817C158.429 190.693 158.46 190.554 158.453 190.414C158.436 190.27 158.373 190.136 158.273 190.031C158.173 189.927 158.041 189.858 157.898 189.835C157.672 189.794 157.441 189.785 157.213 189.806C156.837 189.831 156.466 189.9 156.107 190.013C155.771 190.085 155.455 190.234 155.186 190.448Z" fill="#263238"/>
<path d="M145.833 199.406C145.833 199.43 146.084 199.256 146.2 198.831C146.316 198.276 146.216 197.698 145.92 197.214C145.777 196.955 145.616 196.707 145.437 196.471C145.292 196.27 145.122 196.088 144.931 195.93C144.794 195.817 144.625 195.748 144.448 195.732C144.323 195.732 144.26 195.757 144.26 195.771C144.26 195.786 144.525 195.795 144.8 196.075C144.963 196.239 145.107 196.421 145.23 196.616C145.403 196.849 145.564 197.09 145.713 197.34C145.979 197.773 146.095 198.282 146.041 198.788C145.984 198.998 145.915 199.204 145.833 199.406Z" fill="#263238"/>
<path d="M151.176 195.416C151.196 195.155 151.159 194.892 151.068 194.647C150.978 194.401 150.835 194.178 150.65 193.992C150.501 193.776 150.307 193.596 150.081 193.463C149.855 193.33 149.603 193.249 149.342 193.225C149.736 193.505 150.106 193.818 150.447 194.161C150.725 194.558 150.969 194.978 151.176 195.416Z" fill="#263238"/>
<path d="M161.847 192.779C161.616 192.908 161.396 193.057 161.191 193.223C160.601 193.633 159.989 194.008 159.356 194.348C158.421 194.844 157.453 195.278 156.46 195.646C155.331 196.066 154.047 196.462 152.734 196.848C150.055 197.62 147.632 198.325 145.885 198.851L143.805 199.503C143.548 199.571 143.298 199.661 143.057 199.773C143.32 199.737 143.58 199.681 143.834 199.604L145.924 199.02C147.685 198.538 150.113 197.862 152.792 197.09C154.129 196.699 155.399 196.293 156.528 195.859C157.533 195.477 158.509 195.022 159.448 194.498C160.079 194.14 160.682 193.737 161.253 193.291C161.465 193.137 161.664 192.966 161.847 192.779Z" fill="#263238"/>
<path d="M162.396 192.978C161.996 192.802 161.571 192.688 161.137 192.64C160.079 192.444 158.987 192.579 158.009 193.026C157.48 193.303 157.026 193.704 156.686 194.194C156.406 194.581 156.172 194.999 155.986 195.44C155.793 195.83 155.655 196.246 155.576 196.675C155.795 196.302 155.988 195.915 156.155 195.517C156.558 194.574 157.256 193.788 158.144 193.277C159.078 192.857 160.112 192.708 161.127 192.848C161.899 192.91 162.387 193.017 162.396 192.978Z" fill="#263238"/>
<path d="M188.757 163.065C188.757 163.065 193.222 164.658 193.236 169.663C193.275 179.245 173.872 189.81 173.872 189.81L148.049 172.704L146.432 172.048C146.432 172.048 181.305 158.958 188.757 163.065Z" fill="#263238"/>
<path d="M161.127 181.346C161.365 181.214 161.591 181.062 161.803 180.892C162.223 180.583 162.826 180.129 163.564 179.555C165.046 178.416 167.054 176.794 169.221 174.936C171.389 173.078 173.29 171.335 174.642 170.046C175.317 169.404 175.858 168.874 176.23 168.502C176.43 168.321 176.615 168.122 176.78 167.908C176.558 168.064 176.35 168.238 176.157 168.429L174.516 169.911C173.131 171.161 171.21 172.885 169.048 174.738C166.885 176.591 164.897 178.233 163.453 179.41L161.74 180.81C161.522 180.972 161.317 181.151 161.127 181.346Z" fill="#455A64"/>
<path d="M181.467 166.647C179.778 166.468 178.088 166.966 176.766 168.032C176.809 168.105 177.731 167.501 179.053 167.125C180.376 166.748 181.467 166.729 181.467 166.647Z" fill="#455A64"/>
<path d="M179.242 165.137C178.645 165.39 178.119 165.787 177.712 166.292C177.304 166.797 177.028 167.395 176.906 168.033C176.983 168.033 177.263 167.256 177.915 166.459C178.567 165.663 179.286 165.204 179.242 165.137Z" fill="#455A64"/>
<path d="M190.175 195.487C190.175 195.458 189.866 195.395 189.508 195.69C189.088 196.082 188.823 196.614 188.765 197.186C188.68 197.749 188.761 198.324 188.997 198.842C189.18 199.233 189.383 199.416 189.407 199.397C189.343 199.182 189.264 198.973 189.171 198.769C189.002 198.273 188.952 197.744 189.026 197.225C189.083 196.708 189.295 196.22 189.634 195.825C189.909 195.54 190.179 195.531 190.175 195.487Z" fill="#263238"/>
<path d="M182.813 147.404L173.618 170.717L134.025 171.364L133.291 169.221L147.168 168.719L153.838 148.037L182.813 147.404Z" fill="#455A64"/>
<path d="M164.323 157.51C164.627 157.357 164.969 157.296 165.307 157.333C165.645 157.369 165.966 157.503 166.23 157.718C166.454 157.928 166.609 158.202 166.676 158.503C166.742 158.803 166.716 159.117 166.602 159.402C166.478 159.687 166.276 159.932 166.02 160.109C165.764 160.285 165.464 160.387 165.154 160.401C164.827 160.422 164.502 160.336 164.228 160.156C163.955 159.975 163.748 159.711 163.638 159.402C163.535 159.057 163.543 158.688 163.663 158.348C163.783 158.008 164.007 157.714 164.304 157.51" fill="#EBEBEB"/>
<path d="M176.314 190.979C176.314 190.979 139.834 167.048 138.347 166.551C136.86 166.054 133.24 163.689 129.635 164.683C126.029 165.677 122.786 168.916 121.169 173.646C120.242 176.349 119.808 180.959 119.6 184.419C119.324 188.558 120.665 192.642 123.341 195.81C124.526 197.289 126.101 198.407 127.888 199.04C128.269 199.16 128.665 199.262 129.07 199.348C135.967 200.845 143.068 197.746 146.929 191.848L147.778 190.554C147.778 190.554 171.647 199.319 172.018 199.199L176.314 190.979Z" fill="#263238"/>
<path d="M131.182 184.389C131.246 184.422 131.312 184.451 131.38 184.476L131.978 184.713L134.29 185.606L142.886 188.844C146.535 190.205 150.908 191.827 155.817 193.613C160.726 195.399 166.161 197.354 171.972 199.318L172.074 199.357L172.127 199.255L174.979 193.811L176.427 191.036L176.48 190.929L176.379 190.867L148.553 173.201L140.193 167.93L137.925 166.511L137.331 166.149C137.196 166.067 137.123 166.033 137.123 166.033L137.316 166.173L137.896 166.554L140.14 168.002L148.481 173.355L176.263 191.089L176.215 190.915C175.756 191.798 175.25 192.739 174.767 193.69L171.919 199.135L172.078 199.072C166.286 197.112 160.832 195.162 155.919 193.391L142.968 188.68L134.324 185.504L131.997 184.655L131.389 184.442L131.182 184.389Z" fill="#455A64"/>
<path d="M134.967 99.4163C135.59 97.7317 136.966 97.0029 138.708 96.583C139.584 96.379 140.497 96.3897 141.369 96.614C142.24 96.8384 143.044 97.2699 143.713 97.8717C144.597 98.6778 145.243 99.8024 146.334 100.285C148.135 101.101 150.437 99.9086 152.126 100.908C152.634 101.207 153.022 101.672 153.225 102.225C153.428 102.778 153.433 103.384 153.24 103.94C153.047 104.497 152.666 104.969 152.164 105.277C151.662 105.584 151.069 105.709 150.485 105.628C151.658 106.178 151.875 107.945 151.069 108.959C150.263 109.972 148.772 110.247 147.522 109.895C146.289 109.471 145.196 108.718 144.36 107.718C143.482 106.753 142.709 105.715 141.754 104.822C140.836 103.89 139.619 103.312 138.317 103.191C136.565 103.123 134.938 104.306 134.026 105.797C133.114 107.289 132.762 109.06 132.506 110.798C132.25 112.535 132.057 114.302 131.386 115.924C131.309 116.117 131.193 116.324 130.995 116.368C130.701 116.43 130.488 116.107 130.372 115.832C129.052 112.732 128.353 109.403 128.316 106.034C128.292 104.103 128.514 102.254 129.726 100.724C130.937 99.1942 133.732 98.2434 134.953 99.3921" fill="#263238"/>
<path d="M130.855 107.201L128.171 126.692C128.064 127.479 128.117 128.28 128.329 129.045C128.541 129.811 128.906 130.525 129.403 131.145C129.899 131.765 130.517 132.278 131.218 132.651C131.919 133.025 132.689 133.252 133.481 133.319C134.979 133.449 136.47 132.998 137.646 132.059C138.821 131.12 139.59 129.765 139.794 128.275C139.992 126.827 140.161 125.586 140.194 125.437C140.194 125.437 145.219 125.654 146.252 120.793C146.735 118.443 147.386 113.52 147.912 109.06C148.178 106.752 147.566 104.428 146.198 102.551C144.83 100.673 142.806 99.3784 140.528 98.9236L140.045 98.8319C134.904 98.0983 131.429 102.056 130.855 107.201Z" fill="#FFBE9D"/>
<path d="M140.189 125.369C137.93 124.955 135.845 123.878 134.199 122.275C134.199 122.275 135 126.079 139.948 126.619L140.189 125.369Z" fill="#EB996E"/>
<path d="M145.812 112.042C145.778 112.224 145.673 112.385 145.522 112.49C145.37 112.596 145.183 112.638 145.001 112.607C144.911 112.597 144.824 112.569 144.745 112.524C144.667 112.48 144.598 112.42 144.543 112.348C144.488 112.277 144.448 112.195 144.425 112.107C144.403 112.02 144.398 111.928 144.412 111.839C144.445 111.657 144.549 111.494 144.7 111.388C144.852 111.281 145.04 111.239 145.223 111.27C145.313 111.28 145.4 111.309 145.478 111.354C145.557 111.399 145.626 111.459 145.681 111.531C145.736 111.603 145.776 111.685 145.798 111.773C145.821 111.861 145.825 111.952 145.812 112.042Z" fill="#263238"/>
<path d="M146.364 111.241C146.258 111.318 145.809 110.821 145.061 110.671C144.313 110.522 143.685 110.792 143.613 110.671C143.54 110.551 143.705 110.478 143.98 110.353C144.346 110.19 144.755 110.147 145.148 110.232C145.537 110.307 145.893 110.505 146.161 110.797C146.369 111.028 146.412 111.212 146.364 111.241Z" fill="#263238"/>
<path d="M138.417 110.827C138.384 111.01 138.28 111.172 138.128 111.278C137.976 111.385 137.789 111.427 137.606 111.397C137.516 111.385 137.429 111.356 137.351 111.311C137.272 111.266 137.203 111.206 137.148 111.134C137.093 111.062 137.052 110.98 137.029 110.893C137.006 110.805 137 110.714 137.012 110.624C137.048 110.443 137.153 110.284 137.304 110.178C137.455 110.072 137.641 110.028 137.823 110.055C137.913 110.065 138 110.094 138.079 110.139C138.158 110.184 138.227 110.244 138.283 110.316C138.338 110.388 138.378 110.47 138.401 110.558C138.424 110.646 138.43 110.737 138.417 110.827Z" fill="#263238"/>
<path d="M138.973 109.916C138.867 109.988 138.418 109.491 137.67 109.341C136.922 109.192 136.295 109.462 136.222 109.341C136.15 109.221 136.314 109.148 136.589 109.023C136.956 108.862 137.365 108.82 137.757 108.902C138.147 108.981 138.502 109.178 138.776 109.467C138.978 109.728 139.022 109.882 138.973 109.916Z" fill="#263238"/>
<path d="M140.58 116C140.999 115.953 141.423 115.961 141.84 116.024C142.038 116.024 142.226 116.024 142.284 115.913C142.345 115.722 142.345 115.516 142.284 115.324C142.197 114.842 142.105 114.301 142.009 113.751C141.637 111.521 141.41 109.706 141.497 109.691C141.584 109.677 141.98 111.473 142.332 113.702C142.419 114.253 142.506 114.774 142.583 115.276C142.659 115.531 142.64 115.806 142.53 116.048C142.489 116.109 142.435 116.16 142.371 116.197C142.308 116.234 142.237 116.256 142.163 116.261C142.053 116.276 141.941 116.276 141.83 116.261C141.404 116.226 140.984 116.139 140.58 116Z" fill="#263238"/>
<path d="M138.273 116.087C138.398 116.087 138.234 116.918 138.813 117.632C139.393 118.346 140.261 118.433 140.261 118.549C140.261 118.665 140.039 118.665 139.673 118.602C139.195 118.514 138.763 118.261 138.451 117.888C138.157 117.526 138.013 117.064 138.051 116.599C138.089 116.251 138.22 116.068 138.273 116.087Z" fill="#263238"/>
<path d="M139.75 107.014C139.639 107.207 138.91 106.961 138.008 106.888C137.105 106.816 136.352 106.917 136.27 106.71C136.236 106.613 136.4 106.449 136.724 106.309C137.153 106.14 137.616 106.074 138.075 106.116C138.537 106.151 138.984 106.297 139.378 106.541C139.673 106.734 139.793 106.927 139.75 107.014Z" fill="#263238"/>
<path d="M146.516 109.021C146.352 109.166 145.874 108.886 145.252 108.751C144.629 108.615 144.083 108.64 144.001 108.437C143.963 108.34 144.079 108.186 144.344 108.07C144.69 107.934 145.069 107.908 145.43 107.998C145.794 108.074 146.124 108.265 146.371 108.543C146.55 108.76 146.593 108.948 146.516 109.021Z" fill="#263238"/>
<path d="M130.532 110.89C130.455 110.837 127.381 109.23 126.821 112.584C126.261 115.939 129.746 115.808 129.765 115.712C129.784 115.615 130.532 110.89 130.532 110.89Z" fill="#FFBE9D"/>
<path d="M128.952 114.268C128.952 114.268 128.889 114.301 128.783 114.33C128.634 114.366 128.477 114.343 128.344 114.268C128.148 114.095 128.003 113.873 127.923 113.625C127.843 113.377 127.832 113.112 127.89 112.858C127.929 112.568 128.033 112.291 128.194 112.047C128.24 111.947 128.309 111.859 128.395 111.791C128.482 111.723 128.583 111.677 128.691 111.656C128.762 111.65 128.833 111.669 128.891 111.71C128.949 111.75 128.991 111.81 129.01 111.878C129.039 111.975 129.01 112.042 129.01 112.047C129.01 112.052 129.092 112.004 129.087 111.864C129.082 111.778 129.048 111.696 128.991 111.632C128.952 111.589 128.904 111.554 128.851 111.53C128.798 111.506 128.74 111.493 128.682 111.492C128.54 111.496 128.402 111.537 128.28 111.609C128.159 111.682 128.058 111.785 127.987 111.907C127.795 112.175 127.671 112.484 127.625 112.81C127.533 113.49 127.774 114.181 128.238 114.398C128.323 114.439 128.418 114.461 128.513 114.461C128.608 114.461 128.702 114.439 128.788 114.398C128.933 114.35 128.962 114.277 128.952 114.268Z" fill="#EB996E"/>
<path d="M149.119 108.278C147.985 108.339 146.852 108.13 145.815 107.669C144.777 107.207 143.863 106.506 143.149 105.623C142.183 104.378 141.541 102.751 140.146 101.998C139.666 101.762 139.144 101.623 138.609 101.59C138.075 101.557 137.539 101.63 137.033 101.805C136.026 102.165 135.103 102.727 134.321 103.456C134.765 106.12 133.582 108.765 132.428 111.179C132.329 111.463 132.137 111.706 131.883 111.869C131.429 112.096 130.889 111.739 130.614 111.309C130.228 110.589 130.06 109.772 130.131 108.958C130.141 107.104 130.519 105.27 131.241 103.562C131.975 101.849 133.195 100.389 134.75 99.3629C136.745 98.1448 139.135 97.7486 141.416 98.2575C143.684 98.7852 145.729 100.013 147.261 101.767C148.008 102.544 148.55 103.494 148.839 104.532" fill="#263238"/>
<path d="M14.0362 186.88C14.0574 186.81 14.0865 186.742 14.1231 186.678L14.3934 186.094C14.7263 185.338 14.9959 184.557 15.1995 183.757C15.7304 181.682 15.9138 178.511 15.1271 174.746C14.7038 172.692 14.1459 170.669 13.457 168.688C12.7475 166.541 11.927 164.262 11.256 161.796C10.4986 159.223 10.1324 156.552 10.17 153.87C10.2714 151.066 11.1016 148.267 12.0138 145.482C12.9261 142.697 13.8673 139.965 14.1473 137.223C14.4636 134.585 13.9346 131.915 12.6365 129.597C11.425 127.367 9.9094 125.465 8.77512 123.491C7.71197 121.663 6.92783 119.686 6.44864 117.627C5.76494 114.641 5.7156 111.544 6.30384 108.538C6.52022 107.439 6.84354 106.364 7.26918 105.328C7.25786 105.402 7.24009 105.475 7.21609 105.545L7.02302 106.158C5.88736 109.865 5.76569 113.809 6.67067 117.578C7.15435 119.615 7.94016 121.567 9.00197 123.37C10.1363 125.301 11.6615 127.232 12.8923 129.467C14.2106 131.83 14.7494 134.55 14.432 137.238C14.1473 140.027 13.1964 142.774 12.289 145.559C11.3815 148.344 10.5562 151.11 10.4548 153.866C10.4128 156.52 10.7691 159.165 11.5119 161.714C12.1731 164.166 12.9888 166.444 13.6839 168.602C14.367 170.593 14.9168 172.628 15.3298 174.693C16.0972 178.487 15.8752 181.692 15.3298 183.772C15.117 184.574 14.8294 185.355 14.4706 186.103C14.3451 186.345 14.2438 186.533 14.1714 186.678C14.133 186.749 14.0877 186.817 14.0362 186.88Z" fill="#263238"/>
<path d="M10.3165 125.436C10.3165 125.436 8.00453 118.052 12.1507 113.727C12.1828 113.692 12.224 113.667 12.2695 113.654C12.3151 113.641 12.3634 113.641 12.4089 113.654C12.4545 113.667 12.4955 113.693 12.5274 113.728C12.5594 113.763 12.581 113.806 12.5899 113.852C12.8119 115.073 13.0871 118.79 10.3165 125.436Z" fill="#003B73"/>
<path d="M11.6998 116.189C11.6921 116.647 11.6387 117.103 11.5405 117.551C11.3909 118.516 11.2123 119.592 11.0144 120.809C10.8165 122.025 10.6476 123.13 10.498 124.067C10.4589 124.524 10.3765 124.976 10.2518 125.418C10.2128 124.959 10.2273 124.498 10.2952 124.043C10.3725 123.198 10.5221 122.039 10.7296 120.765C10.9372 119.491 11.1592 118.352 11.3426 117.517C11.4103 117.062 11.5302 116.617 11.6998 116.189Z" fill="#263238"/>
<path d="M13.0273 142.86C13.0273 142.86 14.4416 135.248 20.1274 133.376C20.1723 133.36 20.2205 133.357 20.2669 133.367C20.3132 133.378 20.3558 133.401 20.3899 133.434C20.4239 133.467 20.4481 133.509 20.4598 133.555C20.4714 133.601 20.47 133.649 20.4557 133.694C20.0888 134.862 18.5877 138.28 13.0273 142.86Z" fill="#003B73"/>
<path d="M18.5783 135.33C18.3575 135.732 18.0972 136.11 17.8012 136.46C17.2317 137.222 16.5559 138.11 15.8126 139.095L13.8143 141.735C13.5649 142.119 13.2805 142.48 12.9648 142.811C13.1443 142.387 13.3727 141.986 13.6454 141.614C14.1281 140.905 14.7797 139.949 15.5761 138.921C16.3725 137.893 17.0917 136.99 17.6371 136.334C17.9111 135.964 18.2269 135.627 18.5783 135.33Z" fill="#263238"/>
<path d="M11.4936 161.95C11.4936 161.95 10.6344 154.256 15.5287 150.8C15.5672 150.773 15.6128 150.756 15.6602 150.753C15.7076 150.749 15.755 150.759 15.7971 150.781C15.8392 150.803 15.8743 150.837 15.8985 150.877C15.9227 150.918 15.9351 150.965 15.9341 151.013C15.9197 152.248 15.4804 155.95 11.4936 161.95Z" fill="#003B73"/>
<path d="M14.6166 153.131C14.5248 153.58 14.3856 154.019 14.2015 154.439C13.8733 155.332 13.492 156.37 13.0624 157.538L11.9377 160.636C11.8181 161.077 11.6565 161.506 11.4551 161.915C11.5062 161.458 11.6082 161.008 11.7592 160.574C11.9957 159.758 12.3625 158.643 12.8114 157.436C13.2603 156.23 13.6995 155.144 14.0325 154.366C14.1798 153.934 14.3758 153.519 14.6166 153.131Z" fill="#263238"/>
<path d="M15.7747 181.161C15.7747 181.161 15.1907 173.439 20.2057 170.166C20.2449 170.139 20.2908 170.124 20.3384 170.121C20.3859 170.119 20.4331 170.13 20.4747 170.153C20.5164 170.176 20.5507 170.21 20.574 170.252C20.5972 170.293 20.6084 170.341 20.6063 170.388C20.5435 171.619 19.974 175.302 15.7747 181.161Z" fill="#003B73"/>
<path d="M19.2097 172.473C19.0939 172.919 18.9322 173.353 18.7271 173.766C18.365 174.645 17.9451 175.697 17.4769 176.817L16.2365 179.877C16.11 180.303 15.9452 180.716 15.7441 181.112C15.809 180.658 15.9273 180.212 16.0965 179.785C16.3571 178.979 16.7674 177.883 17.2597 176.691C17.7521 175.499 18.2251 174.427 18.5871 173.665C18.7502 173.246 18.959 172.846 19.2097 172.473Z" fill="#263238"/>
<path d="M6.99416 118.95C6.99416 118.95 0.135398 115.368 0.000250267 109.378C-0.0018539 109.331 0.00934357 109.284 0.0325844 109.242C0.0558252 109.201 0.0901874 109.166 0.131809 109.143C0.173431 109.12 0.220661 109.109 0.268192 109.112C0.315723 109.114 0.361669 109.129 0.400867 109.156C1.4193 109.861 4.24293 112.289 6.99416 118.95Z" fill="#003B73"/>
<path d="M1.42383 111.434C1.74443 111.761 2.0307 112.12 2.27816 112.505L4.20884 115.179L6.13953 117.848C6.43365 118.199 6.69537 118.575 6.92146 118.973C6.55851 118.682 6.23411 118.347 5.95611 117.974C5.4107 117.327 4.69151 116.4 3.93855 115.353C3.18558 114.305 2.52914 113.335 2.07061 112.621C1.81043 112.251 1.59342 111.853 1.42383 111.434Z" fill="#263238"/>
<path d="M14.3593 134.825C14.3593 134.825 7.29783 131.668 6.79585 125.697C6.79184 125.651 6.80086 125.603 6.82192 125.561C6.84297 125.519 6.87523 125.484 6.91516 125.459C6.95508 125.434 7.00112 125.42 7.0482 125.42C7.09528 125.419 7.14157 125.432 7.18199 125.456C8.24386 126.079 11.2123 128.333 14.3593 134.825Z" fill="#003B73"/>
<path d="M8.3457 127.65C8.68461 127.958 8.99183 128.3 9.26278 128.669L11.3576 131.222L13.4572 133.766C13.7706 134.09 14.0518 134.444 14.297 134.823C13.929 134.539 13.5938 134.216 13.2979 133.858C12.7139 133.24 11.9416 132.361 11.1259 131.362C10.3102 130.363 9.59582 129.431 9.09867 128.751C8.80689 128.414 8.55429 128.045 8.3457 127.65Z" fill="#263238"/>
<path d="M10.2965 152.51C10.2965 152.51 5.4457 146.476 7.72391 140.926C7.74123 140.882 7.77034 140.843 7.80803 140.815C7.84572 140.787 7.89051 140.769 7.93746 140.765C7.98441 140.76 8.03168 140.769 8.07406 140.79C8.11645 140.81 8.15229 140.842 8.17762 140.882C8.82922 141.949 10.4365 145.303 10.2965 152.51Z" fill="#003B73"/>
<path d="M8.20155 143.393C8.3639 143.82 8.48197 144.263 8.5539 144.715C8.75662 145.647 8.99313 146.737 9.2586 147.944C9.52407 149.151 9.74127 150.237 9.96813 151.164C10.0972 151.604 10.1861 152.054 10.2336 152.51C10.0193 152.101 9.85711 151.666 9.75093 151.217C9.50959 150.401 9.22481 149.286 8.95452 148.002C8.68422 146.718 8.47185 145.589 8.3367 144.759C8.24183 144.31 8.19651 143.851 8.20155 143.393Z" fill="#263238"/>
<path d="M15.1029 173.331C15.1029 173.331 8.0897 170.058 7.69391 164.073C7.69086 164.027 7.70059 163.98 7.72203 163.939C7.74347 163.898 7.77581 163.863 7.81556 163.838C7.85531 163.814 7.90096 163.801 7.94757 163.801C7.99418 163.8 8.03999 163.813 8.08004 163.837C9.13227 164.498 12.0621 166.8 15.1029 173.331Z" fill="#003B73"/>
<path d="M9.20508 166.068C9.5402 166.381 9.84262 166.727 10.1077 167.101C10.6965 167.849 11.3916 168.723 12.159 169.688L14.2152 172.271C14.5244 172.608 14.8022 172.974 15.0454 173.362C14.6863 173.079 14.3622 172.755 14.0801 172.396C13.5105 171.774 12.7527 170.881 11.9563 169.867C11.1599 168.853 10.4359 167.917 9.95322 167.227C9.66309 166.869 9.41227 166.48 9.20508 166.068Z" fill="#263238"/>
<path d="M29.067 142.898C29.0738 142.956 29.0738 143.014 29.067 143.072C29.067 143.207 29.067 143.367 29.067 143.555C29.067 144.038 29.0188 144.651 28.985 145.432C28.8933 147.083 28.7678 149.381 28.6182 152.137C28.1355 154.936 26.6875 158.04 24.7568 161.052C23.3522 163.272 21.8608 165.294 20.6106 167.172C19.4549 168.811 18.4146 170.529 17.4974 172.312C16.8977 173.523 16.4129 174.786 16.0494 176.087C15.9239 176.545 15.8322 176.907 15.7791 177.154C15.7578 177.281 15.7238 177.405 15.6777 177.525C15.6793 177.397 15.6938 177.269 15.7212 177.144C15.755 176.893 15.8322 176.526 15.9384 176.058C16.2659 174.727 16.7285 173.433 17.3188 172.197C18.2159 170.391 19.2435 168.654 20.3934 166.998C21.6532 165.106 23.1205 163.084 24.5203 160.878C26.451 157.876 27.8411 154.82 28.3816 152.064C28.5747 149.318 28.734 147.02 28.8643 145.37C28.9271 144.588 28.9802 143.96 29.0139 143.497C29.0139 143.304 29.0526 143.14 29.067 143.014C29.0629 142.976 29.0629 142.937 29.067 142.898Z" fill="#263238"/>
<path d="M24.9164 160.502C24.9164 160.502 27.8848 153.354 24.1489 148.672C24.12 148.634 24.0811 148.606 24.0368 148.589C23.9924 148.572 23.9443 148.568 23.8977 148.577C23.8511 148.586 23.808 148.608 23.7731 148.64C23.7382 148.672 23.7129 148.713 23.7 148.759C23.3477 149.956 22.7347 153.648 24.9164 160.502Z" fill="#003B73"/>
<path d="M24.351 151.166C24.479 151.607 24.5584 152.06 24.5876 152.518C24.6937 153.357 24.8096 154.521 24.9013 155.809C24.993 157.098 25.0364 158.266 25.0364 159.111C25.0662 159.569 25.0386 160.03 24.9544 160.482C24.8705 160.033 24.8301 159.577 24.8337 159.12C24.771 158.155 24.6937 157.059 24.6117 155.829C24.5296 154.598 24.4476 153.483 24.3848 152.537C24.3285 152.082 24.3172 151.623 24.351 151.166Z" fill="#263238"/>
<g opacity="0.3">
<path opacity="0.3" d="M24.9164 160.502C24.9164 160.502 27.8848 153.354 24.1489 148.672C24.12 148.634 24.0811 148.606 24.0368 148.589C23.9924 148.572 23.9443 148.568 23.8977 148.577C23.8511 148.586 23.808 148.608 23.7731 148.64C23.7382 148.672 23.7129 148.713 23.7 148.759C23.3477 149.956 22.7347 153.648 24.9164 160.502Z" fill="black"/>
</g>
<path d="M15.6961 177.723C15.6961 177.723 18.0757 170.363 13.973 165.999C13.9412 165.964 13.9004 165.939 13.8552 165.926C13.8099 165.913 13.7619 165.913 13.7165 165.925C13.671 165.938 13.63 165.962 13.5977 165.997C13.5655 166.031 13.5433 166.074 13.5338 166.12C13.2973 167.336 12.9884 171.048 15.6961 177.723Z" fill="#003B73"/>
<path d="M14.3984 168.461C14.5624 168.891 14.6774 169.338 14.7411 169.793C14.9149 170.618 15.1273 171.767 15.3252 173.046C15.5231 174.325 15.6582 175.484 15.7258 176.328C15.7914 176.784 15.8011 177.246 15.7547 177.704C15.6372 177.261 15.5597 176.809 15.5231 176.353C15.3831 175.387 15.219 174.311 15.0404 173.09C14.8618 171.869 14.688 170.768 14.5577 169.827C14.4599 169.378 14.4065 168.92 14.3984 168.461Z" fill="#263238"/>
<g opacity="0.3">
<path opacity="0.3" d="M15.6961 177.723C15.6961 177.723 18.0757 170.363 13.973 165.999C13.9412 165.964 13.9004 165.939 13.8552 165.926C13.8099 165.913 13.7619 165.913 13.7165 165.925C13.671 165.938 13.63 165.962 13.5977 165.997C13.5655 166.031 13.5433 166.074 13.5338 166.12C13.2973 167.336 12.9884 171.048 15.6961 177.723Z" fill="black"/>
</g>
<path d="M28.6699 151.771C28.6699 151.771 35.0122 147.33 34.3703 141.374C34.3661 141.327 34.349 141.282 34.3207 141.244C34.2923 141.206 34.254 141.176 34.21 141.159C34.1659 141.141 34.1179 141.136 34.0712 141.144C34.0245 141.153 33.981 141.174 33.9455 141.205C33.0284 142.064 30.5379 144.811 28.6699 151.771Z" fill="#003B73"/>
<g opacity="0.3">
<path opacity="0.3" d="M28.6699 151.771C28.6699 151.771 35.0122 147.33 34.3703 141.374C34.3661 141.327 34.349 141.282 34.3207 141.244C34.2923 141.206 34.254 141.176 34.21 141.159C34.1659 141.141 34.1179 141.136 34.0712 141.144C34.0245 141.153 33.981 141.174 33.9455 141.205C33.0284 142.064 30.5379 144.811 28.6699 151.771Z" fill="black"/>
</g>
<path d="M33.228 143.6C33.0999 144.039 32.9235 144.463 32.7019 144.864C32.3399 145.632 31.8138 146.674 31.2008 147.813C30.5878 148.952 29.999 149.961 29.5404 150.676C29.3212 151.079 29.0502 151.452 28.7344 151.786C28.9085 151.362 29.1201 150.955 29.3667 150.569L30.945 147.673L32.5185 144.777C32.7139 144.361 32.9516 143.967 33.228 143.6Z" fill="#263238"/>
<path d="M18.25 170.428C18.25 170.428 25.881 169.235 27.9469 163.607C27.9639 163.563 27.9683 163.515 27.9595 163.468C27.9507 163.421 27.929 163.378 27.8969 163.343C27.8648 163.308 27.8236 163.282 27.7779 163.269C27.7321 163.256 27.6837 163.257 27.638 163.27C26.4458 163.607 22.985 165.002 18.25 170.428Z" fill="#003B73"/>
<g opacity="0.3">
<path opacity="0.3" d="M18.25 170.428C18.25 170.428 25.881 169.235 27.9469 163.607C27.9639 163.563 27.9683 163.515 27.9595 163.468C27.9507 163.421 27.929 163.378 27.8969 163.343C27.8648 163.308 27.8236 163.282 27.7779 163.269C27.7321 163.256 27.6837 163.257 27.638 163.27C26.4458 163.607 22.985 165.002 18.25 170.428Z" fill="black"/>
</g>
<path d="M25.9377 165.098C25.6294 165.434 25.2864 165.736 24.9144 166C24.2532 166.531 23.3216 167.236 22.2694 167.984C21.2171 168.732 20.2422 169.384 19.523 169.828C19.1449 170.09 18.7365 170.306 18.3066 170.47C18.648 170.165 19.0163 169.892 19.4071 169.654L22.1053 167.752L24.7937 165.822C25.1489 165.541 25.5323 165.299 25.9377 165.098Z" fill="#263238"/>
<path d="M10.9585 184.502L8.72852 199.513H22.6295L20.8243 184.502H10.9585Z" fill="#455A64"/>
<path d="M21.3824 189.148C21.3824 189.23 18.8725 189.293 15.7737 189.293C12.675 189.293 10.1699 189.23 10.1699 189.148C12.0342 189.005 13.9046 188.957 15.7737 189.003C17.6445 188.957 19.5165 189.005 21.3824 189.148Z" fill="#263238"/>
<path d="M21.6583 190.33C21.6583 190.408 19.0664 190.475 15.8663 190.475C12.6662 190.475 10.0742 190.408 10.0742 190.33C10.0742 190.253 12.6662 190.186 15.8663 190.186C19.0664 190.186 21.6583 190.263 21.6583 190.33Z" fill="#263238"/>
</svg>
